{
.appVersion = "895";
classes = (
{
automatic = 1;
code = "A Aacute Abreve Abreveacute Abrevedotbelow Abrevegrave Abrevehookabove Abrevetilde Acircumflex Acircumflexacute Acircumflexdotbelow Acircumflexgrave Acircumflexhookabove Acircumflextilde Adblgrave Adieresis Adotbelow Agrave Ahookabove Ainvertedbreve Amacron Aogonek Aring Aringacute Atilde AE AEacute B C Cacute Ccaron Ccedilla Ccircumflex Cdotaccent D DZ DZcaron Eth Dcaron Dcroat Dz Dzcaron E Eacute Ebreve Ecaron Ecircumflex Ecircumflexacute Ecircumflexdotbelow Ecircumflexgrave Ecircumflexhookabove Ecircumflextilde Edblgrave Edieresis Edotaccent Edotbelow Egrave Ehookabove Einvertedbreve Emacron Eogonek Etilde F G Gbreve Gcaron Gcircumflex Gcommaaccent Gdotaccent H Hbar Hcircumflex I Iacute Ibreve Icircumflex Idblgrave Idieresis Idotaccent Idotbelow Igrave Ihookabove Iinvertedbreve Imacron Iogonek Itilde J Jcircumflex K Kcommaaccent L LJ Lacute Lcaron Lcommaaccent Ldot Lj Lslash M N NJ Nacute Ncaron Ncommaaccent Eng Nj Ntilde O Oacute Obreve Ocircumflex Ocircumflexacute Ocircumflexdotbelow Ocircumflexgrave Ocircumflexhookabove Ocircumflextilde Odblgrave Odieresis Odieresismacron Odotaccentmacron Odotbelow Ograve Ohookabove Ohorn Ohornacute Ohorndotbelow Ohorngrave Ohornhookabove Ohorntilde Ohungarumlaut Oinvertedbreve Omacron Oogonek Oslash Oslashacute Otilde Otildemacron OE P Thorn Q R Racute Rcaron Rcommaaccent Rdblgrave Rinvertedbreve S Sacute Scaron Scedilla Scircumflex Scommaaccent Germandbls Schwa T Tbar Tcaron Tcedilla Tcommaaccent U Uacute Ubreve Ucircumflex Udblgrave Udieresis Udotbelow Ugrave Uhookabove Uhorn Uhornacute Uhorndotbelow Uhorngrave Uhornhookabove Uhorntilde Uhungarumlaut Uinvertedbreve Umacron Uogonek Uring Utilde V W Wacute Wcircumflex Wdieresis Wgrave X Y Yacute Ycircumflex Ydieresis Ydotbelow Ygrave Yhookabove Ymacron Ytilde Z Zacute Zcaron Zdotaccent Iacute_J.loclNLD";
name = Uppercase;
}
);

glyphs = (
{
color = 4;
glyphname = A;
lastChange = "2016-07-31 01:33:48 +0000";
layers = (
{
anchors = (
{
name = bottom;
position = "{333, 0}";
},
{
name = ogonek;
position = "{562, 0}";
},
{
name = top;
position = "{334, 678}";
}
);
layerId = "9D2B49D7-8C02-48EB-8D57-D561CCF616AE";
paths = (
{
closed = 1;
nodes = (
"126 27 CURVE",
"330 545 LINE",
"543 27 LINE SMOOTH",
"553 2 OFFCURVE",
"572 -6 OFFCURVE",
"598 4 CURVE SMOOTH",
"623 14 OFFCURVE",
"631 34 OFFCURVE",
"621 59 CURVE SMOOTH",
"379 645 LINE SMOOTH",
"371 667 OFFCURVE",
"356 677 OFFCURVE",
"335 678 CURVE",
"333 678 LINE",
"311 678 OFFCURVE",
"296 667 OFFCURVE",
"286 645 CURVE SMOOTH",
"48 59 LINE SMOOTH",
"38 34 OFFCURVE",
"46 14 OFFCURVE",
"72 4 CURVE SMOOTH",
"96 -6 OFFCURVE",
"116 2 OFFCURVE"
);
},
{
closed = 1;
nodes = (
"511 158 LINE SMOOTH",
"538 158 OFFCURVE",
"553 173 OFFCURVE",
"553 200 CURVE SMOOTH",
"553 227 OFFCURVE",
"538 242 OFFCURVE",
"511 242 CURVE SMOOTH",
"154 242 LINE SMOOTH",
"126 242 OFFCURVE",
"112 227 OFFCURVE",
"112 200 CURVE SMOOTH",
"112 173 OFFCURVE",
"126 158 OFFCURVE",
"154 158 CURVE SMOOTH"
);
}
);
width = 666;
}
);
leftKerningGroup = A;
rightKerningGroup = A;
unicode = 0041;
},
{
color = 4;
glyphname = AE;
lastChange = "2016-07-31 01:33:48 +0000";
layers = (
{
anchors = (
{
name = bottom;
position = "{540, 0}";
},
{
name = top;
position = "{537, 678}";
}
);
layerId = "9D2B49D7-8C02-48EB-8D57-D561CCF616AE";
paths = (
{
closed = 1;
nodes = (
"762 0 LINE SMOOTH",
"789 0 OFFCURVE",
"804 15 OFFCURVE",
"804 42 CURVE SMOOTH",
"804 69 OFFCURVE",
"789 84 OFFCURVE",
"762 84 CURVE SMOOTH",
"513 84 LINE",
"513 300 LINE",
"644 300 LINE SMOOTH",
"671 300 OFFCURVE",
"686 315 OFFCURVE",
"686 342 CURVE SMOOTH",
"686 369 OFFCURVE",
"671 384 OFFCURVE",
"644 384 CURVE SMOOTH",
"513 384 LINE",
"513 594 LINE",
"762 594 LINE SMOOTH",
"789 594 OFFCURVE",
"804 609 OFFCURVE",
"804 636 CURVE SMOOTH",
"804 662 OFFCURVE",
"789 678 OFFCURVE",
"762 678 CURVE SMOOTH",
"434 678 LINE SMOOTH",
"410 678 OFFCURVE",
"395 668 OFFCURVE",
"383 649 CURVE SMOOTH",
"51 64 LINE SMOOTH",
"38 41 OFFCURVE",
"44 21 OFFCURVE",
"67 7 CURVE SMOOTH",
"90 -7 OFFCURVE",
"110 -1 OFFCURVE",
"124 24 CURVE SMOOTH",
"201 158 LINE",
"429 158 LINE",
"429 42 LINE SMOOTH",
"429 15 OFFCURVE",
"443 0 OFFCURVE",
"471 0 CURVE SMOOTH"
);
},
{
closed = 1;
nodes = (
"429 569 LINE",
"429 569 LINE",
"429 242 LINE",
"249 242 LINE"
);
}
);
width = 860;
}
);
leftKerningGroup = A;
leftMetricsKey = A;
rightKerningGroup = E;
rightMetricsKey = E;
unicode = 00C6;
},
{
color = 4;
glyphname = B;
lastChange = "2016-07-31 01:33:48 +0000";
layers = (
{
anchors = (
{
name = bottom;
position = "{341, 0}";
},
{
name = top;
position = "{338, 678}";
}
);
layerId = "9D2B49D7-8C02-48EB-8D57-D561CCF616AE";
paths = (
{
closed = 1;
nodes = (
"420 0 LINE SMOOTH",
"542 0 OFFCURVE",
"609 65 OFFCURVE",
"609 188 CURVE SMOOTH",
"609 222 LINE SMOOTH",
"609 343 OFFCURVE",
"544 409 OFFCURVE",
"420 409 CURVE SMOOTH",
"188 409 LINE SMOOTH",
"161 409 OFFCURVE",
"146 394 OFFCURVE",
"146 367 CURVE SMOOTH",
"146 340 OFFCURVE",
"161 325 OFFCURVE",
"188 325 CURVE SMOOTH",
"420 325 LINE SMOOTH",
"497 325 OFFCURVE",
"525 296 OFFCURVE",
"525 222 CURVE SMOOTH",
"525 188 LINE SMOOTH",
"525 114 OFFCURVE",
"495 84 OFFCURVE",
"420 84 CURVE SMOOTH",
"188 84 LINE",
"188 594 LINE",
"407 594 LINE SMOOTH",
"467 594 OFFCURVE",
"488 574 OFFCURVE",
"488 516 CURVE SMOOTH",
"488 489 LINE SMOOTH",
"488 443 OFFCURVE",
"471 407 OFFCURVE",
"428 408 CURVE SMOOTH",
"414 409 OFFCURVE",
"407 392 OFFCURVE",
"407 369 CURVE SMOOTH",
"407 359 OFFCURVE",
"423 350 OFFCURVE",
"451 353 CURVE SMOOTH",
"529 360 OFFCURVE",
"572 415 OFFCURVE",
"572 489 CURVE SMOOTH",
"572 516 LINE SMOOTH",
"572 620 OFFCURVE",
"513 678 OFFCURVE",
"407 678 CURVE SMOOTH",
"146 678 LINE SMOOTH",
"119 678 OFFCURVE",
"104 663 OFFCURVE",
"104 636 CURVE SMOOTH",
"104 42 LINE SMOOTH",
"104 15 OFFCURVE",
"119 0 OFFCURVE",
"146 0 CURVE SMOOTH"
);
}
);
width = 673;
}
);
leftKerningGroup = H;
leftMetricsKey = H;
rightKerningGroup = B;
unicode = 0042;
},
{
color = 4;
glyphname = C;
lastChange = "2016-07-31 01:33:48 +0000";
layers = (
{
anchors = (
{
name = bottom;
position = "{364, 0}";
},
{
name = top;
position = "{372, 678}";
}
);
layerId = "9D2B49D7-8C02-48EB-8D57-D561CCF616AE";
paths = (
{
closed = 1;
nodes = (
"424 0 LINE SMOOTH",
"549 0 OFFCURVE",
"614 49 OFFCURVE",
"625 161 CURVE SMOOTH",
"629 189 OFFCURVE",
"613 204 OFFCURVE",
"585 204 CURVE SMOOTH",
"558 204 OFFCURVE",
"545 190 OFFCURVE",
"541 162 CURVE SMOOTH",
"534 101 OFFCURVE",
"502 84 OFFCURVE",
"424 84 CURVE SMOOTH",
"304 84 LINE SMOOTH",
"197 84 OFFCURVE",
"164 117 OFFCURVE",
"164 224 CURVE SMOOTH",
"164 454 LINE SMOOTH",
"164 562 OFFCURVE",
"197 595 OFFCURVE",
"303 594 CURVE SMOOTH",
"424 594 LINE SMOOTH",
"502 594 OFFCURVE",
"534 577 OFFCURVE",
"541 516 CURVE SMOOTH",
"545 488 OFFCURVE",
"558 474 OFFCURVE",
"585 474 CURVE SMOOTH",
"613 474 OFFCURVE",
"629 489 OFFCURVE",
"625 517 CURVE SMOOTH",
"614 628 OFFCURVE",
"549 678 OFFCURVE",
"424 678 CURVE SMOOTH",
"303 678 LINE SMOOTH",
"151 679 OFFCURVE",
"80 608 OFFCURVE",
"80 454 CURVE SMOOTH",
"80 224 LINE SMOOTH",
"80 71 OFFCURVE",
"151 0 OFFCURVE",
"304 0 CURVE SMOOTH"
);
}
);
width = 696;
}
);
leftKerningGroup = O;
leftMetricsKey = O;
rightKerningGroup = C;
unicode = 0043;
},
{
color = 4;
glyphname = D;
lastChange = "2016-07-31 01:33:48 +0000";
layers = (
{
anchors = (
{
name = bottom;
position = "{341, 0}";
},
{
name = center;
position = "{192, 338}";
},
{
name = top;
position = "{353, 678}";
}
);
layerId = "9D2B49D7-8C02-48EB-8D57-D561CCF616AE";
paths = (
{
closed = 1;
nodes = (
"387 0 LINE SMOOTH",
"562 0 OFFCURVE",
"641 80 OFFCURVE",
"641 254 CURVE SMOOTH",
"641 424 LINE SMOOTH",
"641 598 OFFCURVE",
"561 678 OFFCURVE",
"387 678 CURVE SMOOTH",
"146 678 LINE SMOOTH",
"119 678 OFFCURVE",
"104 663 OFFCURVE",
"104 636 CURVE SMOOTH",
"104 42 LINE SMOOTH",
"104 15 OFFCURVE",
"119 0 OFFCURVE",
"146 0 CURVE SMOOTH"
);
},
{
closed = 1;
nodes = (
"188 594 LINE",
"387 594 LINE SMOOTH",
"515 594 OFFCURVE",
"557 551 OFFCURVE",
"557 424 CURVE SMOOTH",
"557 254 LINE SMOOTH",
"557 126 OFFCURVE",
"515 84 OFFCURVE",
"387 84 CURVE SMOOTH",
"188 84 LINE"
);
}
);
width = 721;
}
);
leftKerningGroup = H;
leftMetricsKey = H;
rightKerningGroup = O;
rightMetricsKey = O;
unicode = 0044;
},
{
color = 4;
glyphname = E;
lastChange = "2016-07-31 01:33:48 +0000";
layers = (
{
anchors = (
{
name = bottom;
position = "{348, 0}";
},
{
name = ogonek;
position = "{506, 41}";
},
{
name = top;
position = "{340, 678}";
},
{
name = topleft;
position = "{110, 678}";
}
);
layerId = "9D2B49D7-8C02-48EB-8D57-D561CCF616AE";
paths = (
{
closed = 1;
nodes = (
"505 0 LINE SMOOTH",
"532 0 OFFCURVE",
"547 15 OFFCURVE",
"547 42 CURVE SMOOTH",
"547 69 OFFCURVE",
"532 84 OFFCURVE",
"505 84 CURVE SMOOTH",
"188 84 LINE",
"188 594 LINE",
"505 594 LINE SMOOTH",
"532 594 OFFCURVE",
"547 609 OFFCURVE",
"547 636 CURVE SMOOTH",
"547 662 OFFCURVE",
"532 678 OFFCURVE",
"505 678 CURVE SMOOTH",
"146 678 LINE SMOOTH",
"119 678 OFFCURVE",
"104 662 OFFCURVE",
"104 636 CURVE SMOOTH",
"104 42 LINE SMOOTH",
"104 15 OFFCURVE",
"119 0 OFFCURVE",
"146 0 CURVE SMOOTH"
);
},
{
closed = 1;
nodes = (
"387 300 LINE SMOOTH",
"414 300 OFFCURVE",
"429 315 OFFCURVE",
"429 342 CURVE SMOOTH",
"429 369 OFFCURVE",
"414 384 OFFCURVE",
"387 384 CURVE SMOOTH",
"188 384 LINE SMOOTH",
"161 384 OFFCURVE",
"146 369 OFFCURVE",
"146 342 CURVE SMOOTH",
"146 315 OFFCURVE",
"161 300 OFFCURVE",
"188 300 CURVE SMOOTH"
);
}
);
width = 603;
}
);
leftKerningGroup = H;
leftMetricsKey = H;
rightKerningGroup = E;
unicode = 0045;
},
{
color = 4;
glyphname = F;
lastChange = "2016-07-31 01:33:48 +0000";
layers = (
{
anchors = (
{
name = bottom;
position = "{412, 0}";
},
{
name = top;
position = "{334, 678}";
}
);
layerId = "9D2B49D7-8C02-48EB-8D57-D561CCF616AE";
paths = (
{
closed = 1;
nodes = (
"188 42 CURVE SMOOTH",
"188 300 LINE",
"389 300 LINE SMOOTH",
"415 300 OFFCURVE",
"431 315 OFFCURVE",
"431 342 CURVE SMOOTH",
"431 369 OFFCURVE",
"415 384 OFFCURVE",
"389 384 CURVE SMOOTH",
"188 384 LINE",
"188 594 LINE",
"514 594 LINE SMOOTH",
"540 594 OFFCURVE",
"556 609 OFFCURVE",
"556 636 CURVE SMOOTH",
"556 662 OFFCURVE",
"540 678 OFFCURVE",
"514 678 CURVE SMOOTH",
"146 678 LINE SMOOTH",
"119 678 OFFCURVE",
"104 662 OFFCURVE",
"104 636 CURVE SMOOTH",
"104 42 LINE SMOOTH",
"104 15 OFFCURVE",
"119 0 OFFCURVE",
"146 0 CURVE SMOOTH",
"173 0 OFFCURVE",
"188 15 OFFCURVE"
);
}
);
width = 556;
}
);
leftKerningGroup = H;
leftMetricsKey = H;
rightKerningGroup = F;
unicode = 0046;
},
{
color = 4;
glyphname = G;
lastChange = "2016-07-31 01:33:48 +0000";
layers = (
{
anchors = (
{
name = bottom;
position = "{372, 0}";
},
{
name = top;
position = "{365, 678}";
}
);
layerId = "9D2B49D7-8C02-48EB-8D57-D561CCF616AE";
paths = (
{
closed = 1;
nodes = (
"424 0 LINE SMOOTH",
"564 0 OFFCURVE",
"628 62 OFFCURVE",
"628 204 CURVE SMOOTH",
"628 293 LINE SMOOTH",
"628 320 OFFCURVE",
"613 335 OFFCURVE",
"586 335 CURVE SMOOTH",
"466 336 LINE SMOOTH",
"439 336 OFFCURVE",
"424 321 OFFCURVE",
"424 294 CURVE SMOOTH",
"424 267 OFFCURVE",
"438 252 OFFCURVE",
"466 252 CURVE SMOOTH",
"544 251 LINE",
"544 204 LINE SMOOTH",
"544 109 OFFCURVE",
"517 84 OFFCURVE",
"424 84 CURVE SMOOTH",
"304 84 LINE SMOOTH",
"197 84 OFFCURVE",
"164 117 OFFCURVE",
"164 224 CURVE SMOOTH",
"164 454 LINE SMOOTH",
"164 562 OFFCURVE",
"197 595 OFFCURVE",
"303 594 CURVE SMOOTH",
"424 594 LINE SMOOTH",
"502 594 OFFCURVE",
"534 577 OFFCURVE",
"541 516 CURVE SMOOTH",
"545 488 OFFCURVE",
"558 474 OFFCURVE",
"585 474 CURVE SMOOTH",
"613 474 OFFCURVE",
"629 489 OFFCURVE",
"625 517 CURVE SMOOTH",
"614 628 OFFCURVE",
"549 678 OFFCURVE",
"424 678 CURVE SMOOTH",
"303 678 LINE SMOOTH",
"151 679 OFFCURVE",
"80 608 OFFCURVE",
"80 454 CURVE SMOOTH",
"80 224 LINE SMOOTH",
"80 71 OFFCURVE",
"151 0 OFFCURVE",
"304 0 CURVE SMOOTH"
);
}
);
width = 698;
}
);
leftKerningGroup = O;
leftMetricsKey = O;
rightKerningGroup = C;
rightMetricsKey = C;
unicode = 0047;
},
{
color = 4;
glyphname = H;
lastChange = "2016-07-31 01:33:48 +0000";
layers = (
{
anchors = (
{
name = bottom;
position = "{392, 0}";
},
{
name = center;
position = "{392, 513}";
},
{
name = top;
position = "{392, 678}";
},
{
name = topleft;
position = "{104, 678}";
}
);
layerId = "9D2B49D7-8C02-48EB-8D57-D561CCF616AE";
paths = (
{
closed = 1;
nodes = (
"188 42 CURVE SMOOTH",
"188 301 LINE",
"596 301 LINE",
"596 42 LINE SMOOTH",
"596 20 OFFCURVE",
"615 0 OFFCURVE",
"638 0 CURVE SMOOTH",
"660 0 OFFCURVE",
"680 20 OFFCURVE",
"680 42 CURVE SMOOTH",
"680 636 LINE SMOOTH",
"680 658 OFFCURVE",
"660 678 OFFCURVE",
"638 678 CURVE SMOOTH",
"615 678 OFFCURVE",
"596 658 OFFCURVE",
"596 636 CURVE SMOOTH",
"596 385 LINE",
"188 385 LINE",
"188 636 LINE SMOOTH",
"188 658 OFFCURVE",
"168 678 OFFCURVE",
"146 678 CURVE SMOOTH",
"124 678 OFFCURVE",
"104 658 OFFCURVE",
"104 636 CURVE SMOOTH",
"104 42 LINE SMOOTH",
"104 20 OFFCURVE",
"124 0 OFFCURVE",
"146 0 CURVE SMOOTH",
"168 0 OFFCURVE",
"188 20 OFFCURVE"
);
}
);
width = 784;
}
);
leftKerningGroup = H;
rightKerningGroup = H;
unicode = 0048;
},
{
color = 4;
glyphname = I;
lastChange = "2016-07-31 01:33:48 +0000";
layers = (
{
anchors = (
{
name = bottom;
position = "{146, 0}";
},
{
name = ogonek;
position = "{118, 7}";
},
{
name = top;
position = "{146, 678}";
},
{
name = topleft;
position = "{104, 678}";
}
);
layerId = "9D2B49D7-8C02-48EB-8D57-D561CCF616AE";
paths = (
{
closed = 1;
nodes = (
"188 42 CURVE SMOOTH",
"188 635 LINE SMOOTH",
"188 664 OFFCURVE",
"175 677 OFFCURVE",
"146 677 CURVE SMOOTH",
"117 677 OFFCURVE",
"104 664 OFFCURVE",
"104 635 CURVE SMOOTH",
"104 42 LINE SMOOTH",
"104 13 OFFCURVE",
"117 0 OFFCURVE",
"146 0 CURVE SMOOTH",
"175 0 OFFCURVE",
"188 13 OFFCURVE"
);
}
);
width = 292;
}
);
leftKerningGroup = H;
leftMetricsKey = H;
rightKerningGroup = H;
rightMetricsKey = H;
unicode = 0049;
},
{
color = 4;
glyphname = J;
lastChange = "2016-07-31 01:33:48 +0000";
layers = (
{
anchors = (
{
name = bottom;
position = "{283, 0}";
},
{
name = top;
position = "{481, 678}";
}
);
layerId = "9D2B49D7-8C02-48EB-8D57-D561CCF616AE";
paths = (
{
closed = 1;
nodes = (
"319 0 LINE SMOOTH",
"459 0 OFFCURVE",
"523 63 OFFCURVE",
"523 204 CURVE SMOOTH",
"523 636 LINE SMOOTH",
"523 663 OFFCURVE",
"508 678 OFFCURVE",
"481 678 CURVE SMOOTH",
"453 678 OFFCURVE",
"439 663 OFFCURVE",
"439 636 CURVE SMOOTH",
"439 204 LINE SMOOTH",
"439 110 OFFCURVE",
"412 84 OFFCURVE",
"319 84 CURVE SMOOTH",
"236 84 LINE SMOOTH",
"157 84 OFFCURVE",
"126 101 OFFCURVE",
"118 162 CURVE SMOOTH",
"115 190 OFFCURVE",
"102 204 OFFCURVE",
"75 204 CURVE SMOOTH",
"47 204 OFFCURVE",
"31 188 OFFCURVE",
"34 160 CURVE SMOOTH",
"46 50 OFFCURVE",
"111 0 OFFCURVE",
"236 0 CURVE SMOOTH"
);
}
);
width = 617;
}
);
leftKerningGroup = J;
rightKerningGroup = U;
rightMetricsKey = U;
unicode = 004A;
},
{
color = 4;
glyphname = K;
lastChange = "2016-07-31 01:33:48 +0000";
layers = (
{
anchors = (
{
name = bottom;
position = "{293, 0}";
},
{
name = top;
position = "{297, 678}";
}
);
layerId = "9D2B49D7-8C02-48EB-8D57-D561CCF616AE";
paths = (
{
closed = 1;
nodes = (
"181 271 CURVE SMOOTH",
"503 604 LINE SMOOTH",
"522 623 OFFCURVE",
"522 644 OFFCURVE",
"502 663 CURVE SMOOTH",
"483 682 OFFCURVE",
"462 682 OFFCURVE",
"443 662 CURVE SMOOTH",
"121 329 LINE SMOOTH",
"102 310 OFFCURVE",
"102 289 OFFCURVE",
"122 270 CURVE SMOOTH",
"141 250 OFFCURVE",
"162 251 OFFCURVE"
);
},
{
closed = 1;
nodes = (
"188 42 CURVE SMOOTH",
"188 636 LINE SMOOTH",
"188 663 OFFCURVE",
"173 678 OFFCURVE",
"146 678 CURVE SMOOTH",
"119 678 OFFCURVE",
"104 663 OFFCURVE",
"104 636 CURVE SMOOTH",
"104 42 LINE SMOOTH",
"104 15 OFFCURVE",
"119 0 OFFCURVE",
"146 0 CURVE SMOOTH",
"173 0 OFFCURVE",
"188 15 OFFCURVE"
);
},
{
closed = 1;
nodes = (
"541 73 CURVE SMOOTH",
"286 390 LINE SMOOTH",
"268 411 OFFCURVE",
"248 413 OFFCURVE",
"227 396 CURVE SMOOTH",
"205 379 OFFCURVE",
"203 358 OFFCURVE",
"220 337 CURVE SMOOTH",
"476 20 LINE SMOOTH",
"493 -1 OFFCURVE",
"514 -3 OFFCURVE",
"535 14 CURVE SMOOTH",
"556 31 OFFCURVE",
"558 51 OFFCURVE"
);
}
);
width = 587;
}
);
leftKerningGroup = H;
leftMetricsKey = H;
rightKerningGroup = K;
unicode = 004B;
},
{
color = 4;
glyphname = L;
lastChange = "2016-07-31 01:33:48 +0000";
layers = (
{
anchors = (
{
name = bottom;
position = "{322, 0}";
},
{
name = center;
position = "{158, 314}";
},
{
name = top;
position = "{146, 678}";
},
{
name = topright;
position = "{240, 454}";
}
);
layerId = "9D2B49D7-8C02-48EB-8D57-D561CCF616AE";
paths = (
{
closed = 1;
nodes = (
"465 0 LINE SMOOTH",
"493 0 OFFCURVE",
"507 14 OFFCURVE",
"507 42 CURVE SMOOTH",
"507 70 OFFCURVE",
"493 84 OFFCURVE",
"465 84 CURVE SMOOTH",
"188 84 LINE",
"188 636 LINE SMOOTH",
"188 664 OFFCURVE",
"174 678 OFFCURVE",
"146 678 CURVE SMOOTH",
"118 678 OFFCURVE",
"104 664 OFFCURVE",
"104 636 CURVE SMOOTH",
"104 42 LINE SMOOTH",
"104 14 OFFCURVE",
"118 0 OFFCURVE",
"146 0 CURVE SMOOTH"
);
}
);
width = 541;
}
);
leftKerningGroup = H;
leftMetricsKey = H;
rightKerningGroup = L;
unicode = 004C;
},
{
color = 4;
glyphname = M;
lastChange = "2016-07-31 01:33:48 +0000";
layers = (
{
anchors = (
{
name = bottom;
position = "{422, 0}";
},
{
name = top;
position = "{422, 678}";
}
);
layerId = "9D2B49D7-8C02-48EB-8D57-D561CCF616AE";
paths = (
{
closed = 1;
nodes = (
"188 42 CURVE SMOOTH",
"188 536 LINE SMOOTH",
"188 569 OFFCURVE",
"146 592 OFFCURVE",
"155 559 CURVE SMOOTH",
"156 554 OFFCURVE",
"159 548 OFFCURVE",
"163 543 CURVE SMOOTH",
"373 234 LINE SMOOTH",
"386 215 OFFCURVE",
"398 207 OFFCURVE",
"414 207 CURVE SMOOTH",
"437 207 OFFCURVE",
"452 215 OFFCURVE",
"465 234 CURVE SMOOTH",
"675 543 LINE SMOOTH",
"694 572 OFFCURVE",
"701 594 OFFCURVE",
"691 594 CURVE SMOOTH",
"664 594 OFFCURVE",
"649 579 OFFCURVE",
"649 552 CURVE SMOOTH",
"649 42 LINE SMOOTH",
"649 15 OFFCURVE",
"664 0 OFFCURVE",
"691 0 CURVE SMOOTH",
"718 0 OFFCURVE",
"733 15 OFFCURVE",
"733 42 CURVE SMOOTH",
"733 636 LINE SMOOTH",
"733 663 OFFCURVE",
"722 678 OFFCURVE",
"699 678 CURVE SMOOTH",
"676 678 OFFCURVE",
"660 670 OFFCURVE",
"648 651 CURVE SMOOTH",
"410 293 LINE",
"428 296 LINE",
"192 651 LINE SMOOTH",
"179 670 OFFCURVE",
"165 678 OFFCURVE",
"146 678 CURVE SMOOTH",
"119 678 OFFCURVE",
"104 663 OFFCURVE",
"104 636 CURVE SMOOTH",
"104 42 LINE SMOOTH",
"104 15 OFFCURVE",
"119 0 OFFCURVE",
"146 0 CURVE SMOOTH",
"173 0 OFFCURVE",
"188 15 OFFCURVE"
);
}
);
width = 837;
}
);
leftKerningGroup = H;
leftMetricsKey = H;
rightKerningGroup = H;
rightMetricsKey = H;
unicode = 004D;
},
{
color = 4;
glyphname = N;
lastChange = "2016-07-31 01:33:48 +0000";
layers = (
{
anchors = (
{
name = bottom;
position = "{375, 0}";
},
{
name = top;
position = "{375, 678}";
}
);
layerId = "9D2B49D7-8C02-48EB-8D57-D561CCF616AE";
paths = (
{
closed = 1;
nodes = (
"188 42 CURVE SMOOTH",
"188 534 LINE",
"167 543 LINE",
"569 25 LINE SMOOTH",
"583 7 OFFCURVE",
"595 0 OFFCURVE",
"611 0 CURVE SMOOTH",
"638 0 OFFCURVE",
"653 15 OFFCURVE",
"653 42 CURVE SMOOTH",
"653 636 LINE SMOOTH",
"653 663 OFFCURVE",
"638 678 OFFCURVE",
"611 678 CURVE SMOOTH",
"584 678 OFFCURVE",
"569 663 OFFCURVE",
"569 636 CURVE SMOOTH",
"569 144 LINE",
"590 135 LINE",
"188 653 LINE SMOOTH",
"174 670 OFFCURVE",
"162 678 OFFCURVE",
"146 678 CURVE SMOOTH",
"119 678 OFFCURVE",
"104 663 OFFCURVE",
"104 636 CURVE SMOOTH",
"104 42 LINE SMOOTH",
"104 15 OFFCURVE",
"119 0 OFFCURVE",
"146 0 CURVE SMOOTH",
"173 0 OFFCURVE",
"188 15 OFFCURVE"
);
}
);
width = 757;
}
);
leftKerningGroup = H;
leftMetricsKey = H;
rightKerningGroup = H;
rightMetricsKey = H;
unicode = 004E;
},
{
color = 4;
glyphname = Eng;
lastChange = "2016-07-31 01:33:48 +0000";
layers = (
{
components = (
{
name = N;
}
);
layerId = "9D2B49D7-8C02-48EB-8D57-D561CCF616AE";
paths = (
{
closed = 1;
nodes = (
"509 -200 LINE SMOOTH",
"607 -200 OFFCURVE",
"653 -154 OFFCURVE",
"653 -56 CURVE SMOOTH",
"653 515 LINE SMOOTH",
"653 542 OFFCURVE",
"638 557 OFFCURVE",
"611 557 CURVE SMOOTH",
"584 557 OFFCURVE",
"569 542 OFFCURVE",
"569 515 CURVE SMOOTH",
"569 -56 LINE SMOOTH",
"569 -105 OFFCURVE",
"558 -116 OFFCURVE",
"509 -116 CURVE SMOOTH",
"390 -116 LINE SMOOTH",
"357 -116 OFFCURVE",
"343 -112 OFFCURVE",
"334 -97 CURVE SMOOTH",
"325 -70 OFFCURVE",
"316 -56 OFFCURVE",
"291 -56 CURVE SMOOTH",
"261 -56 OFFCURVE",
"245 -72 OFFCURVE",
"250 -100 CURVE SMOOTH",
"263 -168 OFFCURVE",
"309 -200 OFFCURVE",
"390 -200 CURVE SMOOTH"
);
}
);
width = 757;
}
);
leftKerningGroup = H;
leftMetricsKey = N;
rightKerningGroup = H;
rightMetricsKey = N;
unicode = 014A;
},
{
color = 4;
glyphname = O;
lastChange = "2016-07-31 01:33:48 +0000";
layers = (
{
anchors = (
{
name = bottom;
position = "{353, 0}";
},
{
name = center;
position = "{353, 339}";
},
{
name = ogonek;
position = "{472, 20}";
},
{
name = top;
position = "{364, 678}";
},
{
name = topleft;
position = "{80, 678}";
},
{
name = topright;
position = "{575, 611}";
}
);
layerId = "9D2B49D7-8C02-48EB-8D57-D561CCF616AE";
paths = (
{
closed = 1;
nodes = (
"424 0 LINE SMOOTH",
"577 0 OFFCURVE",
"648 71 OFFCURVE",
"648 224 CURVE SMOOTH",
"648 454 LINE SMOOTH",
"648 607 OFFCURVE",
"577 678 OFFCURVE",
"424 678 CURVE SMOOTH",
"304 678 LINE SMOOTH",
"152 679 OFFCURVE",
"80 609 OFFCURVE",
"80 455 CURVE SMOOTH",
"80 224 LINE SMOOTH",
"80 71 OFFCURVE",
"151 0 OFFCURVE",
"304 0 CURVE SMOOTH"
);
},
{
closed = 1;
nodes = (
"164 224 CURVE SMOOTH",
"164 455 LINE SMOOTH",
"164 562 OFFCURVE",
"198 595 OFFCURVE",
"304 594 CURVE SMOOTH",
"424 594 LINE SMOOTH",
"531 594 OFFCURVE",
"564 560 OFFCURVE",
"564 454 CURVE SMOOTH",
"564 224 LINE SMOOTH",
"564 117 OFFCURVE",
"531 84 OFFCURVE",
"424 84 CURVE SMOOTH",
"304 84 LINE SMOOTH",
"197 84 OFFCURVE",
"164 117 OFFCURVE"
);
}
);
width = 728;
}
);
leftKerningGroup = O;
rightKerningGroup = O;
unicode = 004F;
},
{
color = 4;
glyphname = OE;
lastChange = "2016-07-31 01:33:48 +0000";
layers = (
{
layerId = "9D2B49D7-8C02-48EB-8D57-D561CCF616AE";
paths = (
{
closed = 1;
nodes = (
"504 84 LINE",
"504 300 LINE",
"675 300 LINE SMOOTH",
"701 300 OFFCURVE",
"717 315 OFFCURVE",
"717 342 CURVE SMOOTH",
"717 369 OFFCURVE",
"701 384 OFFCURVE",
"675 384 CURVE SMOOTH",
"504 384 LINE",
"504 594 LINE",
"793 594 LINE SMOOTH",
"819 594 OFFCURVE",
"835 609 OFFCURVE",
"835 636 CURVE SMOOTH",
"835 662 OFFCURVE",
"819 678 OFFCURVE",
"793 678 CURVE SMOOTH",
"304 678 LINE SMOOTH",
"152 678 OFFCURVE",
"80 609 OFFCURVE",
"80 455 CURVE SMOOTH",
"80 224 LINE SMOOTH",
"80 71 OFFCURVE",
"151 0 OFFCURVE",
"304 0 CURVE SMOOTH",
"793 0 LINE SMOOTH",
"819 0 OFFCURVE",
"835 15 OFFCURVE",
"835 42 CURVE SMOOTH",
"835 69 OFFCURVE",
"819 84 OFFCURVE",
"793 84 CURVE SMOOTH"
);
},
{
closed = 1;
nodes = (
"164 455 LINE SMOOTH",
"164 562 OFFCURVE",
"198 594 OFFCURVE",
"304 594 CURVE SMOOTH",
"420 594 LINE",
"420 84 LINE",
"304 84 LINE SMOOTH",
"197 84 OFFCURVE",
"164 117 OFFCURVE",
"164 224 CURVE SMOOTH"
);
}
);
width = 891;
}
);
leftKerningGroup = O;
leftMetricsKey = O;
rightKerningGroup = E;
rightMetricsKey = E;
unicode = 0152;
},
{
color = 4;
glyphname = P;
lastChange = "2016-07-31 01:33:48 +0000";
layers = (
{
anchors = (
{
name = bottom;
position = "{379, 0}";
},
{
name = top;
position = "{315, 678}";
}
);
layerId = "9D2B49D7-8C02-48EB-8D57-D561CCF616AE";
paths = (
{
closed = 1;
nodes = (
"188 42 CURVE SMOOTH",
"188 594 LINE",
"380 594 LINE SMOOTH",
"456 594 OFFCURVE",
"485 564 OFFCURVE",
"485 489 CURVE SMOOTH",
"485 459 LINE SMOOTH",
"485 383 OFFCURVE",
"456 354 OFFCURVE",
"380 354 CURVE SMOOTH",
"188 354 LINE SMOOTH",
"161 354 OFFCURVE",
"146 339 OFFCURVE",
"146 312 CURVE SMOOTH",
"146 285 OFFCURVE",
"161 270 OFFCURVE",
"188 270 CURVE SMOOTH",
"380 270 LINE SMOOTH",
"502 270 OFFCURVE",
"569 337 OFFCURVE",
"569 459 CURVE SMOOTH",
"569 489 LINE SMOOTH",
"569 611 OFFCURVE",
"502 678 OFFCURVE",
"380 678 CURVE SMOOTH",
"146 678 LINE SMOOTH",
"119 678 OFFCURVE",
"104 663 OFFCURVE",
"104 636 CURVE SMOOTH",
"104 42 LINE SMOOTH",
"104 15 OFFCURVE",
"119 0 OFFCURVE",
"146 0 CURVE SMOOTH",
"173 0 OFFCURVE",
"188 15 OFFCURVE"
);
}
);
width = 613;
}
);
leftKerningGroup = H;
leftMetricsKey = H;
rightKerningGroup = P;
unicode = 0050;
},
{
color = 4;
glyphname = Thorn;
lastChange = "2016-07-31 01:33:48 +0000";
layers = (
{
layerId = "9D2B49D7-8C02-48EB-8D57-D561CCF616AE";
paths = (
{
closed = 1;
nodes = (
"332 167 LINE SMOOTH",
"454 167 OFFCURVE",
"521 234 OFFCURVE",
"521 356 CURVE SMOOTH",
"521 386 LINE SMOOTH",
"521 508 OFFCURVE",
"454 575 OFFCURVE",
"332 575 CURVE SMOOTH",
"188 575 LINE SMOOTH",
"161 575 OFFCURVE",
"146 559 OFFCURVE",
"146 533 CURVE SMOOTH",
"146 506 OFFCURVE",
"161 491 OFFCURVE",
"188 491 CURVE SMOOTH",
"332 491 LINE SMOOTH",
"408 491 OFFCURVE",
"437 462 OFFCURVE",
"437 386 CURVE SMOOTH",
"437 356 LINE SMOOTH",
"437 280 OFFCURVE",
"408 251 OFFCURVE",
"332 251 CURVE SMOOTH",
"188 251 LINE SMOOTH",
"161 251 OFFCURVE",
"146 235 OFFCURVE",
"146 209 CURVE SMOOTH",
"146 182 OFFCURVE",
"161 167 OFFCURVE",
"188 167 CURVE SMOOTH"
);
},
{
closed = 1;
nodes = (
"173 0 OFFCURVE",
"188 15 OFFCURVE",
"188 42 CURVE SMOOTH",
"188 636 LINE SMOOTH",
"188 662 OFFCURVE",
"173 678 OFFCURVE",
"146 678 CURVE SMOOTH",
"119 678 OFFCURVE",
"104 662 OFFCURVE",
"104 636 CURVE SMOOTH",
"104 42 LINE SMOOTH",
"104 15 OFFCURVE",
"119 0 OFFCURVE",
"146 0 CURVE SMOOTH"
);
}
);
width = 565;
}
);
leftKerningGroup = H;
leftMetricsKey = H;
rightKerningGroup = P;
rightMetricsKey = P;
unicode = 00DE;
},
{
color = 4;
glyphname = Q;
lastChange = "2016-07-31 01:34:07 +0000";
layers = (
{
anchors = (
{
name = bottom;
position = "{364, 0}";
},
{
name = top;
position = "{364, 678}";
}
);
components = (
{
name = O;
}
);
layerId = "9D2B49D7-8C02-48EB-8D57-D561CCF616AE";
paths = (
{
closed = 1;
nodes = (
"643 -22 CURVE SMOOTH",
"470 160 LINE SMOOTH",
"453 176 OFFCURVE",
"436 177 OFFCURVE",
"419 161 CURVE SMOOTH",
"403 146 OFFCURVE",
"403 127 OFFCURVE",
"418 112 CURVE SMOOTH",
"590 -70 LINE SMOOTH",
"607 -86 OFFCURVE",
"624 -86 OFFCURVE",
"640 -71 CURVE SMOOTH",
"657 -56 OFFCURVE",
"657 -37 OFFCURVE"
);
}
);
width = 733;
}
);
leftKerningGroup = O;
leftMetricsKey = O;
rightKerningGroup = O;
rightMetricsKey = O;
unicode = 0051;
},
{
color = 4;
glyphname = R;
lastChange = "2016-07-31 01:33:48 +0000";
layers = (
{
anchors = (
{
name = bottom;
position = "{313, 0}";
},
{
name = top;
position = "{313, 678}";
}
);
components = (
{
name = P;
}
);
layerId = "9D2B49D7-8C02-48EB-8D57-D561CCF616AE";
paths = (
{
closed = 1;
nodes = (
"556 55 CURVE SMOOTH",
"404 308 LINE SMOOTH",
"388 333 OFFCURVE",
"370 337 OFFCURVE",
"347 323 CURVE SMOOTH",
"323 309 OFFCURVE",
"317 288 OFFCURVE",
"331 265 CURVE SMOOTH",
"483 12 LINE SMOOTH",
"497 -10 OFFCURVE",
"518 -16 OFFCURVE",
"540 -2 CURVE SMOOTH",
"562 12 OFFCURVE",
"568 33 OFFCURVE"
);
}
);
width = 625;
}
);
leftKerningGroup = H;
leftMetricsKey = H;
rightKerningGroup = R;
unicode = 0052;
},
{
color = 4;
glyphname = S;
lastChange = "2016-07-31 01:33:48 +0000";
layers = (
{
anchors = (
{
name = bottom;
position = "{353, 0}";
},
{
name = top;
position = "{353, 678}";
}
);
layerId = "9D2B49D7-8C02-48EB-8D57-D561CCF616AE";
paths = (
{
closed = 1;
nodes = (
"417 0 LINE SMOOTH",
"549 0 OFFCURVE",
"612 61 OFFCURVE",
"612 194 CURVE SMOOTH",
"612 327 OFFCURVE",
"548 390 OFFCURVE",
"417 390 CURVE SMOOTH",
"293 390 LINE SMOOTH",
"213 390 OFFCURVE",
"191 414 OFFCURVE",
"191 493 CURVE SMOOTH",
"191 571 OFFCURVE",
"212 594 OFFCURVE",
"292 594 CURVE SMOOTH",
"411 594 LINE SMOOTH",
"471 594 OFFCURVE",
"498 582 OFFCURVE",
"509 543 CURVE SMOOTH",
"513 516 OFFCURVE",
"525 502 OFFCURVE",
"552 502 CURVE SMOOTH",
"581 502 OFFCURVE",
"597 517 OFFCURVE",
"593 546 CURVE SMOOTH",
"577 635 OFFCURVE",
"517 678 OFFCURVE",
"411 678 CURVE SMOOTH",
"292 678 LINE SMOOTH",
"166 678 OFFCURVE",
"107 618 OFFCURVE",
"107 493 CURVE SMOOTH",
"107 367 OFFCURVE",
"167 306 OFFCURVE",
"293 306 CURVE SMOOTH",
"417 306 LINE SMOOTH",
"501 306 OFFCURVE",
"528 280 OFFCURVE",
"528 194 CURVE SMOOTH",
"528 109 OFFCURVE",
"503 84 OFFCURVE",
"417 84 CURVE SMOOTH",
"273 84 LINE SMOOTH",
"205 84 OFFCURVE",
"175 98 OFFCURVE",
"165 144 CURVE SMOOTH",
"160 172 OFFCURVE",
"149 185 OFFCURVE",
"121 185 CURVE SMOOTH",
"93 185 OFFCURVE",
"77 170 OFFCURVE",
"80 141 CURVE SMOOTH",
"96 45 OFFCURVE",
"159 0 OFFCURVE",
"273 0 CURVE SMOOTH"
);
}
);
width = 692;
}
);
leftKerningGroup = S;
leftMetricsKey = O;
rightKerningGroup = S;
rightMetricsKey = O;
unicode = 0053;
},
{
color = 4;
glyphname = Germandbls;
lastChange = "2016-07-31 01:33:48 +0000";
layers = (
{
layerId = "9D2B49D7-8C02-48EB-8D57-D561CCF616AE";
paths = (
{
closed = 1;
nodes = (
"168 -20 OFFCURVE",
"188 0 OFFCURVE",
"188 22 CURVE SMOOTH",
"188 480 LINE SMOOTH",
"188 559 OFFCURVE",
"210 581 OFFCURVE",
"289 581 CURVE SMOOTH",
"297 581 LINE SMOOTH",
"369 581 OFFCURVE",
"394 562 OFFCURVE",
"397 497 CURVE",
"322 411 LINE",
"322 345 LINE",
"412 284 OFFCURVE",
"445 234 OFFCURVE",
"445 161 CURVE SMOOTH",
"445 86 OFFCURVE",
"424 64 OFFCURVE",
"348 64 CURVE SMOOTH",
"278 64 LINE SMOOTH",
"256 64 OFFCURVE",
"236 45 OFFCURVE",
"236 22 CURVE SMOOTH",
"236 0 OFFCURVE",
"256 -20 OFFCURVE",
"278 -20 CURVE SMOOTH",
"348 -20 LINE SMOOTH",
"470 -20 OFFCURVE",
"529 39 OFFCURVE",
"529 161 CURVE SMOOTH",
"529 251 OFFCURVE",
"493 319 OFFCURVE",
"410 386 CURVE",
"461 442 LINE SMOOTH",
"475 459 OFFCURVE",
"481 473 OFFCURVE",
"481 495 CURVE SMOOTH",
"476 610 OFFCURVE",
"417 665 OFFCURVE",
"297 665 CURVE SMOOTH",
"289 665 LINE SMOOTH",
"164 665 OFFCURVE",
"104 605 OFFCURVE",
"104 480 CURVE SMOOTH",
"104 22 LINE SMOOTH",
"104 0 OFFCURVE",
"124 -20 OFFCURVE",
"146 -20 CURVE SMOOTH"
);
}
);
width = 609;
}
);
leftKerningGroup = H;
leftMetricsKey = n;
rightKerningGroup = Germandbls;
rightMetricsKey = o;
unicode = 1E9E;
},
{
color = 4;
glyphname = Schwa;
lastChange = "2016-07-31 01:33:48 +0000";
layers = (
{
layerId = "9D2B49D7-8C02-48EB-8D57-D561CCF616AE";
paths = (
{
closed = 1;
nodes = (
"424 0 LINE SMOOTH",
"577 0 OFFCURVE",
"648 70 OFFCURVE",
"648 224 CURVE SMOOTH",
"648 450 LINE SMOOTH",
"648 603 OFFCURVE",
"577 674 OFFCURVE",
"424 674 CURVE SMOOTH",
"304 674 LINE SMOOTH",
"151 674 OFFCURVE",
"80 603 OFFCURVE",
"80 450 CURVE SMOOTH",
"80 426 OFFCURVE",
"99 408 OFFCURVE",
"122 408 CURVE SMOOTH",
"145 408 OFFCURVE",
"164 426 OFFCURVE",
"164 450 CURVE SMOOTH",
"164 556 OFFCURVE",
"197 590 OFFCURVE",
"304 590 CURVE SMOOTH",
"424 590 LINE SMOOTH",
"531 590 OFFCURVE",
"564 556 OFFCURVE",
"564 450 CURVE SMOOTH",
"564 329 LINE",
"80 329 LINE",
"80 224 LINE SMOOTH",
"80 70 OFFCURVE",
"151 0 OFFCURVE",
"304 0 CURVE SMOOTH"
);
},
{
closed = 1;
nodes = (
"197 84 OFFCURVE",
"164 117 OFFCURVE",
"164 224 CURVE SMOOTH",
"164 245 LINE",
"564 245 LINE",
"564 224 LINE SMOOTH",
"564 117 OFFCURVE",
"531 84 OFFCURVE",
"424 84 CURVE SMOOTH",
"304 84 LINE SMOOTH"
);
}
);
width = 728;
}
);
leftKerningGroup = O;
leftMetricsKey = O;
rightKerningGroup = O;
rightMetricsKey = O;
unicode = 018F;
},
{
color = 4;
glyphname = T;
lastChange = "2016-07-31 01:33:48 +0000";
layers = (
{
anchors = (
{
name = bottom;
position = "{307, 0}";
},
{
name = center;
position = "{307, 339}";
},
{
name = top;
position = "{307, 678}";
}
);
layerId = "9D2B49D7-8C02-48EB-8D57-D561CCF616AE";
paths = (
{
closed = 1;
nodes = (
"349 42 CURVE SMOOTH",
"349 593 LINE",
"543 593 LINE SMOOTH",
"571 593 OFFCURVE",
"585 607 OFFCURVE",
"585 635 CURVE SMOOTH",
"585 663 OFFCURVE",
"571 677 OFFCURVE",
"543 677 CURVE SMOOTH",
"71 677 LINE SMOOTH",
"43 677 OFFCURVE",
"29 663 OFFCURVE",
"29 635 CURVE SMOOTH",
"29 607 OFFCURVE",
"43 593 OFFCURVE",
"71 593 CURVE SMOOTH",
"265 593 LINE",
"265 42 LINE SMOOTH",
"265 14 OFFCURVE",
"279 0 OFFCURVE",
"307 0 CURVE SMOOTH",
"334 0 OFFCURVE",
"349 15 OFFCURVE"
);
}
);
width = 614;
}
);
leftKerningGroup = T;
rightKerningGroup = T;
unicode = 0054;
},
{
color = 4;
glyphname = U;
lastChange = "2016-07-31 01:33:48 +0000";
layers = (
{
anchors = (
{
name = bottom;
position = "{378, 0}";
},
{
name = ogonek;
position = "{583, 59}";
},
{
name = top;
position = "{378, 678}";
},
{
name = topright;
position = "{620, 678}";
}
);
layerId = "9D2B49D7-8C02-48EB-8D57-D561CCF616AE";
paths = (
{
closed = 1;
nodes = (
"438 0 LINE SMOOTH",
"591 0 OFFCURVE",
"662 71 OFFCURVE",
"662 224 CURVE SMOOTH",
"662 636 LINE SMOOTH",
"662 664 OFFCURVE",
"648 678 OFFCURVE",
"620 678 CURVE SMOOTH",
"592 678 OFFCURVE",
"578 664 OFFCURVE",
"578 636 CURVE SMOOTH",
"578 224 LINE SMOOTH",
"578 117 OFFCURVE",
"545 84 OFFCURVE",
"438 84 CURVE SMOOTH",
"318 84 LINE SMOOTH",
"211 84 OFFCURVE",
"178 117 OFFCURVE",
"178 224 CURVE SMOOTH",
"178 636 LINE SMOOTH",
"178 664 OFFCURVE",
"164 678 OFFCURVE",
"136 678 CURVE SMOOTH",
"108 678 OFFCURVE",
"94 664 OFFCURVE",
"94 636 CURVE SMOOTH",
"94 224 LINE SMOOTH",
"94 71 OFFCURVE",
"165 0 OFFCURVE",
"318 0 CURVE SMOOTH"
);
}
);
width = 756;
}
);
leftKerningGroup = U;
leftMetricsKey = "=H-10";
rightKerningGroup = U;
rightMetricsKey = "=H-10";
unicode = 0055;
},
{
color = 4;
glyphname = V;
lastChange = "2016-07-31 01:33:48 +0000";
layers = (
{
anchors = (
{
name = bottom;
position = "{319, 0}";
},
{
name = top;
position = "{322, 678}";
}
);
layerId = "9D2B49D7-8C02-48EB-8D57-D561CCF616AE";
paths = (
{
closed = 1;
nodes = (
"321 0 LINE SMOOTH",
"342 0 OFFCURVE",
"356 12 OFFCURVE",
"366 33 CURVE SMOOTH",
"615 618 LINE SMOOTH",
"624 641 OFFCURVE",
"619 660 OFFCURVE",
"596 672 CURVE SMOOTH",
"569 685 OFFCURVE",
"549 678 OFFCURVE",
"538 651 CURVE",
"325 133 LINE",
"106 651 LINE SMOOTH",
"95 678 OFFCURVE",
"74 685 OFFCURVE",
"48 672 CURVE SMOOTH",
"22 660 OFFCURVE",
"19 641 OFFCURVE",
"29 618 CURVE SMOOTH",
"276 33 LINE SMOOTH",
"286 11 OFFCURVE",
"299 0 OFFCURVE",
"317 0 CURVE"
);
}
);
width = 643;
}
);
leftKerningGroup = V;
rightKerningGroup = V;
unicode = 0056;
},
{
color = 4;
glyphname = W;
lastChange = "2016-07-31 01:34:07 +0000";
layers = (
{
anchors = (
{
name = bottom;
position = "{450, 0}";
},
{
name = top;
position = "{450, 678}";
}
);
layerId = "9D2B49D7-8C02-48EB-8D57-D561CCF616AE";
paths = (
{
closed = 1;
nodes = (
"251 0 LINE",
"277 0 OFFCURVE",
"286 12 OFFCURVE",
"295 36 CURVE SMOOTH",
"443 513 LINE",
"442 533 LINE",
"596 36 LINE SMOOTH",
"604 12 OFFCURVE",
"618 0 OFFCURVE",
"640 0 CURVE",
"642 0 LINE",
"665 0 OFFCURVE",
"677 13 OFFCURVE",
"686 36 CURVE SMOOTH",
"871 622 LINE SMOOTH",
"880 647 OFFCURVE",
"870 664 OFFCURVE",
"847 674 CURVE SMOOTH",
"819 683 OFFCURVE",
"801 676 OFFCURVE",
"792 647 CURVE SMOOTH",
"633 143 LINE",
"646 143 LINE",
"496 642 LINE SMOOTH",
"489 664 OFFCURVE",
"473 678 OFFCURVE",
"449 678 CURVE",
"452 678 LINE",
"425 678 OFFCURVE",
"410 666 OFFCURVE",
"402 642 CURVE SMOOTH",
"252 143 LINE",
"265 143 LINE",
"106 647 LINE SMOOTH",
"96 676 OFFCURVE",
"78 685 OFFCURVE",
"51 674 CURVE SMOOTH",
"26 662 OFFCURVE",
"19 648 OFFCURVE",
"27 622 CURVE SMOOTH",
"212 36 LINE SMOOTH",
"220 11 OFFCURVE",
"231 0 OFFCURVE",
"251 0 CURVE"
);
}
);
width = 898;
}
);
leftKerningGroup = V;
leftMetricsKey = V;
rightKerningGroup = V;
rightMetricsKey = V;
unicode = 0057;
},
{
color = 4;
glyphname = X;
lastChange = "2016-07-31 01:33:48 +0000";
layers = (
{
anchors = (
{
name = bottom;
position = "{314, 0}";
},
{
name = top;
position = "{315, 678}";
}
);
layerId = "9D2B49D7-8C02-48EB-8D57-D561CCF616AE";
paths = (
{
closed = 1;
nodes = (
"145 19 CURVE SMOOTH",
"311 265 LINE",
"485 20 LINE SMOOTH",
"500 -2 OFFCURVE",
"521 -6 OFFCURVE",
"543 9 CURVE SMOOTH",
"566 26 OFFCURVE",
"569 47 OFFCURVE",
"554 69 CURVE SMOOTH",
"365 335 LINE",
"562 609 LINE SMOOTH",
"578 631 OFFCURVE",
"574 651 OFFCURVE",
"552 667 CURVE SMOOTH",
"530 684 OFFCURVE",
"511 680 OFFCURVE",
"494 658 CURVE SMOOTH",
"314 407 LINE",
"135 658 LINE SMOOTH",
"120 680 OFFCURVE",
"99 684 OFFCURVE",
"77 669 CURVE",
"55 652 OFFCURVE",
"51 632 OFFCURVE",
"66 610 CURVE SMOOTH",
"259 338 LINE",
"76 68 LINE SMOOTH",
"61 45 OFFCURVE",
"64 24 OFFCURVE",
"86 9 CURVE SMOOTH",
"110 -6 OFFCURVE",
"130 -2 OFFCURVE"
);
}
);
width = 626;
}
);
leftKerningGroup = X;
rightKerningGroup = X;
unicode = 0058;
},
{
color = 4;
glyphname = Y;
lastChange = "2016-07-31 01:34:07 +0000";
layers = (
{
anchors = (
{
name = bottom;
position = "{307, 0}";
},
{
name = top;
position = "{307, 678}";
},
{
name = topleft;
position = "{46, 678}";
}
);
layerId = "9D2B49D7-8C02-48EB-8D57-D561CCF616AE";
paths = (
{
closed = 1;
nodes = (
"513 657 CURVE SMOOTH",
"303 336 LINE",
"103 657 LINE SMOOTH",
"89 679 OFFCURVE",
"68 684 OFFCURVE",
"45 670 CURVE",
"23 655 OFFCURVE",
"18 635 OFFCURVE",
"32 611 CURVE SMOOTH",
"261 246 LINE",
"261 42 LINE SMOOTH",
"261 15 OFFCURVE",
"277 0 OFFCURVE",
"303 0 CURVE SMOOTH",
"330 0 OFFCURVE",
"345 15 OFFCURVE",
"345 42 CURVE SMOOTH",
"345 246 LINE",
"583 611 LINE SMOOTH",
"598 633 OFFCURVE",
"593 654 OFFCURVE",
"570 668 CURVE",
"548 684 OFFCURVE",
"527 679 OFFCURVE"
);
}
);
width = 615;
}
);
leftKerningGroup = Y;
leftMetricsKey = V;
rightKerningGroup = Y;
rightMetricsKey = V;
unicode = 0059;
},
{
color = 4;
glyphname = Z;
lastChange = "2016-07-31 01:33:48 +0000";
layers = (
{
anchors = (
{
name = bottom;
position = "{351, 0}";
},
{
name = top;
position = "{361, 678}";
}
);
layerId = "9D2B49D7-8C02-48EB-8D57-D561CCF616AE";
paths = (
{
closed = 1;
nodes = (
"473 0 LINE SMOOTH",
"564 0 OFFCURVE",
"619 42 OFFCURVE",
"635 120 CURVE SMOOTH",
"639 148 OFFCURVE",
"622 164 OFFCURVE",
"594 164 CURVE SMOOTH",
"567 164 OFFCURVE",
"556 150 OFFCURVE",
"549 125 CURVE SMOOTH",
"541 95 OFFCURVE",
"518 84 OFFCURVE",
"473 84 CURVE SMOOTH",
"180 84 LINE",
"177 80 LINE",
"574 598 LINE SMOOTH",
"586 614 OFFCURVE",
"590 625 OFFCURVE",
"590 636 CURVE SMOOTH",
"590 662 OFFCURVE",
"576 678 OFFCURVE",
"548 678 CURVE SMOOTH",
"214 678 LINE SMOOTH",
"124 678 OFFCURVE",
"70 635 OFFCURVE",
"54 558 CURVE SMOOTH",
"49 530 OFFCURVE",
"67 514 OFFCURVE",
"95 514 CURVE SMOOTH",
"122 514 OFFCURVE",
"133 528 OFFCURVE",
"139 553 CURVE SMOOTH",
"148 582 OFFCURVE",
"171 594 OFFCURVE",
"214 594 CURVE SMOOTH",
"483 594 LINE",
"481 604 LINE",
"79 78 LINE SMOOTH",
"68 62 OFFCURVE",
"63 51 OFFCURVE",
"63 42 CURVE SMOOTH",
"63 15 OFFCURVE",
"78 0 OFFCURVE",
"104 0 CURVE SMOOTH"
);
}
);
width = 689;
}
);
leftKerningGroup = Z;
rightKerningGroup = Z;
unicode = 005A;
},
{
color = 4;
glyphname = Iacute_J.loclNLD;
lastChange = "2016-07-31 01:33:48 +0000";
layers = (
{
layerId = "9D2B49D7-8C02-48EB-8D57-D561CCF616AE";
paths = (
{
closed = 1;
nodes = (
"391 0 LINE SMOOTH",
"532 0 OFFCURVE",
"595 62 OFFCURVE",
"595 204 CURVE SMOOTH",
"595 636 LINE SMOOTH",
"595 662 OFFCURVE",
"580 678 OFFCURVE",
"553 678 CURVE SMOOTH",
"525 678 OFFCURVE",
"511 662 OFFCURVE",
"511 636 CURVE SMOOTH",
"511 204 LINE SMOOTH",
"511 109 OFFCURVE",
"485 84 OFFCURVE",
"391 84 CURVE SMOOTH",
"308 84 LINE SMOOTH",
"230 84 OFFCURVE",
"199 101 OFFCURVE",
"189 162 CURVE SMOOTH",
"187 190 OFFCURVE",
"173 204 OFFCURVE",
"146 204 CURVE SMOOTH",
"120 204 OFFCURVE",
"103 189 OFFCURVE",
"105 161 CURVE SMOOTH",
"119 49 OFFCURVE",
"182 0 OFFCURVE",
"308 0 CURVE SMOOTH"
);
},
{
closed = 1;
nodes = (
"174 248 OFFCURVE",
"188 261 OFFCURVE",
"188 290 CURVE SMOOTH",
"188 635 LINE SMOOTH",
"188 664 OFFCURVE",
"174 677 OFFCURVE",
"146 677 CURVE SMOOTH",
"117 677 OFFCURVE",
"104 664 OFFCURVE",
"104 635 CURVE SMOOTH",
"104 290 LINE SMOOTH",
"104 261 OFFCURVE",
"117 248 OFFCURVE",
"146 248 CURVE SMOOTH"
);
},
{
closed = 1;
nodes = (
"146 707 OFFCURVE",
"164 708 OFFCURVE",
"178 726 CURVE SMOOTH",
"252 814 LINE SMOOTH",
"267 832 OFFCURVE",
"266 850 OFFCURVE",
"247 865 CURVE SMOOTH",
"229 879 OFFCURVE",
"211 878 OFFCURVE",
"196 860 CURVE SMOOTH",
"123 773 LINE SMOOTH",
"108 755 OFFCURVE",
"109 736 OFFCURVE",
"127 722 CURVE SMOOTH"
);
},
{
closed = 1;
nodes = (
"565 707 OFFCURVE",
"583 708 OFFCURVE",
"598 726 CURVE SMOOTH",
"671 814 LINE SMOOTH",
"686 832 OFFCURVE",
"685 850 OFFCURVE",
"667 865 CURVE SMOOTH",
"648 879 OFFCURVE",
"630 878 OFFCURVE",
"616 860 CURVE SMOOTH",
"543 773 LINE SMOOTH",
"528 755 OFFCURVE",
"529 736 OFFCURVE",
"547 722 CURVE SMOOTH"
);
}
);
width = 663;
}
);
leftKerningGroup = H;
leftMetricsKey = H;
rightKerningGroup = U;
},
{
color = 4;
glyphname = a;
lastChange = "2016-07-31 01:33:48 +0000";
layers = (
{
anchors = (
{
name = bottom;
position = "{311, 0}";
},
{
name = ogonek;
position = "{476, 7}";
},
{
name = top;
position = "{311, 507}";
}
);
layerId = "9D2B49D7-8C02-48EB-8D57-D561CCF616AE";
paths = (
{
closed = 1;
nodes = (
"546 42 CURVE SMOOTH",
"546 311 LINE SMOOTH",
"546 444 OFFCURVE",
"483 507 OFFCURVE",
"350 507 CURVE SMOOTH",
"292 507 LINE SMOOTH",
"178 507 OFFCURVE",
"116 473 OFFCURVE",
"96 398 CURVE SMOOTH",
"89 372 OFFCURVE",
"108 355 OFFCURVE",
"136 355 CURVE SMOOTH",
"161 355 OFFCURVE",
"171 364 OFFCURVE",
"183 392 CURVE SMOOTH",
"196 415 OFFCURVE",
"225 423 OFFCURVE",
"292 423 CURVE SMOOTH",
"350 423 LINE SMOOTH",
"437 423 OFFCURVE",
"462 398 OFFCURVE",
"462 311 CURVE SMOOTH",
"462 42 LINE SMOOTH",
"462 15 OFFCURVE",
"477 0 OFFCURVE",
"504 0 CURVE SMOOTH",
"531 0 OFFCURVE",
"546 15 OFFCURVE"
);
},
{
closed = 1;
nodes = (
"306 0 LINE SMOOTH",
"420 0 OFFCURVE",
"492 63 OFFCURVE",
"508 178 CURVE SMOOTH",
"510 188 OFFCURVE",
"507 193 OFFCURVE",
"503 193 CURVE SMOOTH",
"475 193 OFFCURVE",
"465 179 OFFCURVE",
"457 153 CURVE SMOOTH",
"441 107 OFFCURVE",
"393 84 OFFCURVE",
"306 84 CURVE SMOOTH",
"250 84 LINE SMOOTH",
"184 84 OFFCURVE",
"168 100 OFFCURVE",
"168 166 CURVE SMOOTH",
"168 231 OFFCURVE",
"184 248 OFFCURVE",
"250 248 CURVE SMOOTH",
"462 248 LINE SMOOTH",
"489 248 OFFCURVE",
"504 263 OFFCURVE",
"504 290 CURVE SMOOTH",
"504 316 OFFCURVE",
"489 332 OFFCURVE",
"462 332 CURVE SMOOTH",
"250 332 LINE SMOOTH",
"137 332 OFFCURVE",
"84 278 OFFCURVE",
"84 166 CURVE SMOOTH",
"84 54 OFFCURVE",
"138 0 OFFCURVE",
"250 0 CURVE SMOOTH"
);
}
);
width = 640;
}
);
leftKerningGroup = a;
leftMetricsKey = "=n-20";
rightKerningGroup = n;
rightMetricsKey = n;
unicode = 0061;
},
{
color = 4;
glyphname = ae;
lastChange = "2016-07-31 01:33:48 +0000";
layers = (
{
anchors = (
{
name = bottom;
position = "{486, 0}";
},
{
name = top;
position = "{486, 507}";
}
);
layerId = "9D2B49D7-8C02-48EB-8D57-D561CCF616AE";
paths = (
{
closed = 1;
nodes = (
"694 -22 LINE SMOOTH",
"823 -22 OFFCURVE",
"886 27 OFFCURVE",
"886 135 CURVE SMOOTH",
"886 158 OFFCURVE",
"867 177 OFFCURVE",
"844 177 CURVE SMOOTH",
"821 177 OFFCURVE",
"802 158 OFFCURVE",
"802 135 CURVE SMOOTH",
"802 80 OFFCURVE",
"780 62 OFFCURVE",
"694 62 CURVE SMOOTH",
"633 62 LINE SMOOTH",
"552 62 OFFCURVE",
"526 87 OFFCURVE",
"526 176 CURVE SMOOTH",
"526 228 LINE",
"843 228 LINE SMOOTH",
"871 228 OFFCURVE",
"886 243 OFFCURVE",
"886 270 CURVE SMOOTH",
"886 413 OFFCURVE",
"825 482 OFFCURVE",
"694 482 CURVE SMOOTH",
"634 482 LINE SMOOTH",
"565 483 OFFCURVE",
"516 458 OFFCURVE",
"484 406 CURVE",
"451 458 OFFCURVE",
"400 483 OFFCURVE",
"330 483 CURVE SMOOTH",
"292 483 LINE SMOOTH",
"157 483 OFFCURVE",
"92 436 OFFCURVE",
"92 331 CURVE SMOOTH",
"92 308 OFFCURVE",
"111 289 OFFCURVE",
"134 289 CURVE SMOOTH",
"157 289 OFFCURVE",
"176 308 OFFCURVE",
"176 331 CURVE SMOOTH",
"176 382 OFFCURVE",
"199 399 OFFCURVE",
"292 399 CURVE SMOOTH",
"330 399 LINE SMOOTH",
"407 399 OFFCURVE",
"435 379 OFFCURVE",
"442 312 CURVE",
"250 312 LINE SMOOTH",
"138 312 OFFCURVE",
"84 258 OFFCURVE",
"84 146 CURVE SMOOTH",
"84 34 OFFCURVE",
"138 -20 OFFCURVE",
"250 -20 CURVE SMOOTH",
"286 -20 LINE SMOOTH",
"370 -20 OFFCURVE",
"435 9 OFFCURVE",
"476 64 CURVE",
"509 6 OFFCURVE",
"560 -22 OFFCURVE",
"633 -22 CURVE SMOOTH"
);
},
{
closed = 1;
nodes = (
"184 64 OFFCURVE",
"168 80 OFFCURVE",
"168 146 CURVE SMOOTH",
"168 212 OFFCURVE",
"184 228 OFFCURVE",
"250 228 CURVE SMOOTH",
"442 228 LINE",
"442 172 LINE SMOOTH",
"442 99 OFFCURVE",
"395 64 OFFCURVE",
"286 64 CURVE SMOOTH",
"250 64 LINE SMOOTH"
);
},
{
closed = 1;
nodes = (
"533 379 OFFCURVE",
"560 399 OFFCURVE",
"634 398 CURVE SMOOTH",
"694 398 LINE SMOOTH",
"762 398 OFFCURVE",
"791 377 OFFCURVE",
"799 312 CURVE",
"527 312 LINE"
);
}
);
width = 966;
}
);
leftKerningGroup = a;
leftMetricsKey = a;
rightKerningGroup = e;
rightMetricsKey = e;
unicode = 00E6;
},
{
color = 4;
glyphname = b;
lastChange = "2016-07-31 01:33:48 +0000";
layers = (
{
anchors = (
{
name = bottom;
position = "{363, 0}";
},
{
name = top;
position = "{363, 507}";
}
);
layerId = "9D2B49D7-8C02-48EB-8D57-D561CCF616AE";
paths = (
{
closed = 1;
nodes = (
"382 0 LINE SMOOTH",
"515 0 OFFCURVE",
"578 63 OFFCURVE",
"578 196 CURVE SMOOTH",
"578 311 LINE SMOOTH",
"578 444 OFFCURVE",
"515 507 OFFCURVE",
"382 507 CURVE SMOOTH",
"344 507 LINE SMOOTH",
"227 507 OFFCURVE",
"159 455 OFFCURVE",
"142 358 CURVE SMOOTH",
"140 331 OFFCURVE",
"139 315 OFFCURVE",
"149 315 CURVE SMOOTH",
"175 315 OFFCURVE",
"188 327 OFFCURVE",
"188 354 CURVE SMOOTH",
"188 401 OFFCURVE",
"256 423 OFFCURVE",
"344 423 CURVE SMOOTH",
"382 423 LINE SMOOTH",
"468 423 OFFCURVE",
"494 398 OFFCURVE",
"494 311 CURVE SMOOTH",
"494 196 LINE SMOOTH",
"494 110 OFFCURVE",
"469 84 OFFCURVE",
"382 84 CURVE SMOOTH",
"344 84 LINE SMOOTH",
"256 84 OFFCURVE",
"188 106 OFFCURVE",
"188 153 CURVE SMOOTH",
"188 179 OFFCURVE",
"175 192 OFFCURVE",
"148 192 CURVE SMOOTH",
"139 192 OFFCURVE",
"140 176 OFFCURVE",
"142 148 CURVE SMOOTH",
"159 52 OFFCURVE",
"227 0 OFFCURVE",
"344 0 CURVE SMOOTH"
);
},
{
closed = 1;
nodes = (
"188 42 CURVE SMOOTH",
"188 662 LINE SMOOTH",
"188 689 OFFCURVE",
"173 704 OFFCURVE",
"146 704 CURVE SMOOTH",
"119 704 OFFCURVE",
"104 689 OFFCURVE",
"104 662 CURVE SMOOTH",
"104 42 LINE SMOOTH",
"104 15 OFFCURVE",
"119 0 OFFCURVE",
"146 0 CURVE SMOOTH",
"173 0 OFFCURVE",
"188 15 OFFCURVE"
);
}
);
width = 658;
}
);
leftKerningGroup = h;
leftMetricsKey = n;
rightKerningGroup = o;
rightMetricsKey = o;
unicode = 0062;
},
{
color = 4;
glyphname = c;
lastChange = "2016-07-31 01:34:07 +0000";
layers = (
{
anchors = (
{
name = bottom;
position = "{318, 0}";
},
{
name = top;
position = "{316, 507}";
}
);
layerId = "9D2B49D7-8C02-48EB-8D57-D561CCF616AE";
paths = (
{
closed = 1;
nodes = (
"358 0 LINE SMOOTH",
"457 0 OFFCURVE",
"514 33 OFFCURVE",
"530 102 CURVE SMOOTH",
"536 130 OFFCURVE",
"518 146 OFFCURVE",
"490 146 CURVE SMOOTH",
"463 146 OFFCURVE",
"454 133 OFFCURVE",
"444 108 CURVE SMOOTH",
"434 90 OFFCURVE",
"409 84 OFFCURVE",
"358 84 CURVE SMOOTH",
"276 84 LINE SMOOTH",
"190 84 OFFCURVE",
"164 109 OFFCURVE",
"164 196 CURVE SMOOTH",
"164 312 LINE",
"164 399 OFFCURVE",
"190 424 OFFCURVE",
"276 423 CURVE SMOOTH",
"358 423 LINE SMOOTH",
"409 423 OFFCURVE",
"434 417 OFFCURVE",
"444 399 CURVE SMOOTH",
"454 375 OFFCURVE",
"463 361 OFFCURVE",
"489 361 CURVE SMOOTH",
"518 361 OFFCURVE",
"536 377 OFFCURVE",
"530 405 CURVE SMOOTH",
"514 474 OFFCURVE",
"457 507 OFFCURVE",
"358 507 CURVE SMOOTH",
"276 507 LINE SMOOTH",
"142 508 OFFCURVE",
"80 445 OFFCURVE",
"80 312 CURVE SMOOTH",
"80 196 LINE SMOOTH",
"80 63 OFFCURVE",
"143 0 OFFCURVE",
"276 0 CURVE SMOOTH"
);
}
);
width = 591;
}
);
leftKerningGroup = o;
leftMetricsKey = o;
rightKerningGroup = c;
rightMetricsKey = "=o-20";
unicode = 0063;
},
{
color = 4;
glyphname = d;
lastChange = "2016-07-31 01:33:48 +0000";
layers = (
{
anchors = (
{
name = bottom;
position = "{326, 0}";
},
{
name = center;
position = "{468, 595}";
},
{
name = top;
position = "{353, 507}";
},
{
name = topright;
position = "{602, 507}";
}
);
layerId = "9D2B49D7-8C02-48EB-8D57-D561CCF616AE";
paths = (
{
closed = 1;
nodes = (
"314 0 LINE SMOOTH",
"447 0 OFFCURVE",
"497 52 OFFCURVE",
"516 148 CURVE SMOOTH",
"521 176 OFFCURVE",
"538 192 OFFCURVE",
"509 192 CURVE SMOOTH",
"483 192 OFFCURVE",
"470 179 OFFCURVE",
"470 153 CURVE SMOOTH",
"470 106 OFFCURVE",
"402 84 OFFCURVE",
"314 84 CURVE SMOOTH",
"276 84 LINE SMOOTH",
"190 84 OFFCURVE",
"164 109 OFFCURVE",
"164 196 CURVE SMOOTH",
"164 311 LINE SMOOTH",
"164 397 OFFCURVE",
"189 423 OFFCURVE",
"276 423 CURVE SMOOTH",
"470 423 LINE SMOOTH",
"497 423 OFFCURVE",
"512 438 OFFCURVE",
"512 465 CURVE SMOOTH",
"512 493 OFFCURVE",
"497 507 OFFCURVE",
"470 507 CURVE SMOOTH",
"276 507 LINE SMOOTH",
"143 507 OFFCURVE",
"80 444 OFFCURVE",
"80 311 CURVE SMOOTH",
"80 196 LINE SMOOTH",
"80 63 OFFCURVE",
"143 0 OFFCURVE",
"276 0 CURVE SMOOTH"
);
},
{
closed = 1;
nodes = (
"554 42 CURVE SMOOTH",
"554 662 LINE SMOOTH",
"554 689 OFFCURVE",
"539 704 OFFCURVE",
"512 704 CURVE SMOOTH",
"485 704 OFFCURVE",
"470 689 OFFCURVE",
"470 662 CURVE SMOOTH",
"470 42 LINE SMOOTH",
"470 15 OFFCURVE",
"485 0 OFFCURVE",
"512 0 CURVE SMOOTH",
"539 0 OFFCURVE",
"554 15 OFFCURVE"
);
}
);
width = 648;
}
);
leftKerningGroup = o;
leftMetricsKey = o;
rightKerningGroup = d;
rightMetricsKey = n;
unicode = 0064;
},
{
color = 4;
glyphname = eth;
lastChange = "2016-07-31 01:33:48 +0000";
layers = (
{
layerId = "9D2B49D7-8C02-48EB-8D57-D561CCF616AE";
paths = (
{
closed = 1;
nodes = (
"175 733 LINE SMOOTH",
"149 740 OFFCURVE",
"131 730 OFFCURVE",
"124 703 CURVE SMOOTH",
"117 676 OFFCURVE",
"128 658 OFFCURVE",
"155 651 CURVE SMOOTH",
"388 592 LINE SMOOTH",
"426 584 OFFCURVE",
"451 561 OFFCURVE",
"462 463 CURVE",
"433 492 OFFCURVE",
"399 507 OFFCURVE",
"358 507 CURVE SMOOTH",
"276 507 LINE SMOOTH",
"143 506 OFFCURVE",
"80 445 OFFCURVE",
"80 311 CURVE SMOOTH",
"80 195 LINE SMOOTH",
"80 62 OFFCURVE",
"143 0 OFFCURVE",
"276 0 CURVE SMOOTH",
"358 0 LINE SMOOTH",
"491 0 OFFCURVE",
"554 62 OFFCURVE",
"554 196 CURVE SMOOTH",
"554 339 LINE SMOOTH",
"549 553 OFFCURVE",
"508 651 OFFCURVE",
"410 674 CURVE SMOOTH"
);
},
{
closed = 1;
nodes = (
"470 109 OFFCURVE",
"445 84 OFFCURVE",
"358 84 CURVE SMOOTH",
"276 84 LINE SMOOTH",
"189 84 OFFCURVE",
"164 109 OFFCURVE",
"164 195 CURVE SMOOTH",
"164 311 LINE SMOOTH",
"164 399 OFFCURVE",
"189 422 OFFCURVE",
"276 423 CURVE SMOOTH",
"358 423 LINE SMOOTH",
"452 423 OFFCURVE",
"470 394 OFFCURVE",
"470 301 CURVE SMOOTH",
"470 196 LINE SMOOTH"
);
},
{
closed = 1;
nodes = (
"407 697 LINE SMOOTH",
"424 713 OFFCURVE",
"424 731 OFFCURVE",
"408 748 CURVE SMOOTH",
"392 765 OFFCURVE",
"374 766 OFFCURVE",
"357 749 CURVE SMOOTH",
"210 610 LINE SMOOTH",
"193 595 OFFCURVE",
"193 576 OFFCURVE",
"209 559 CURVE SMOOTH",
"225 542 OFFCURVE",
"243 541 OFFCURVE",
"260 558 CURVE SMOOTH"
);
}
);
width = 634;
}
);
leftKerningGroup = o;
leftMetricsKey = o;
rightKerningGroup = o;
rightMetricsKey = o;
unicode = 00F0;
},
{
color = 4;
glyphname = e;
lastChange = "2016-07-31 01:33:48 +0000";
layers = (
{
anchors = (
{
name = bottom;
position = "{318, 0}";
},
{
name = ogonek;
position = "{499, 68}";
},
{
name = top;
position = "{318, 507}";
}
);
layerId = "9D2B49D7-8C02-48EB-8D57-D561CCF616AE";
paths = (
{
closed = 1;
nodes = (
"358 0 LINE SMOOTH",
"471 0 OFFCURVE",
"535 40 OFFCURVE",
"550 123 CURVE SMOOTH",
"555 151 OFFCURVE",
"539 166 OFFCURVE",
"511 166 CURVE SMOOTH",
"484 166 OFFCURVE",
"473 152 OFFCURVE",
"466 127 CURVE SMOOTH",
"455 95 OFFCURVE",
"426 84 OFFCURVE",
"358 84 CURVE SMOOTH",
"276 84 LINE SMOOTH",
"189 84 OFFCURVE",
"164 109 OFFCURVE",
"164 195 CURVE SMOOTH",
"164 311 LINE SMOOTH",
"164 399 OFFCURVE",
"189 424 OFFCURVE",
"276 423 CURVE SMOOTH",
"358 423 LINE SMOOTH",
"445 423 OFFCURVE",
"470 398 OFFCURVE",
"470 311 CURVE SMOOTH",
"470 303 LINE",
"164 303 LINE SMOOTH",
"137 303 OFFCURVE",
"122 289 OFFCURVE",
"122 261 CURVE SMOOTH",
"122 234 OFFCURVE",
"137 219 OFFCURVE",
"164 219 CURVE SMOOTH",
"512 219 LINE SMOOTH",
"539 219 OFFCURVE",
"554 234 OFFCURVE",
"554 261 CURVE SMOOTH",
"554 311 LINE",
"554 445 OFFCURVE",
"491 507 OFFCURVE",
"358 507 CURVE SMOOTH",
"276 507 LINE SMOOTH",
"143 508 OFFCURVE",
"80 446 OFFCURVE",
"80 311 CURVE SMOOTH",
"80 195 LINE SMOOTH",
"80 63 OFFCURVE",
"143 0 OFFCURVE",
"276 0 CURVE SMOOTH"
);
}
);
width = 634;
}
);
leftKerningGroup = o;
leftMetricsKey = o;
rightKerningGroup = o;
rightMetricsKey = o;
unicode = 0065;
},
{
color = 4;
glyphname = f;
lastChange = "2016-07-31 01:33:48 +0000";
layers = (
{
layerId = "9D2B49D7-8C02-48EB-8D57-D561CCF616AE";
paths = (
{
closed = 1;
nodes = (
"207 42 CURVE SMOOTH",
"207 511 LINE",
"207 596 OFFCURVE",
"232 620 OFFCURVE",
"316 620 CURVE SMOOTH",
"338 620 OFFCURVE",
"352 635 OFFCURVE",
"352 662 CURVE SMOOTH",
"352 690 OFFCURVE",
"339 704 OFFCURVE",
"316 704 CURVE SMOOTH",
"185 704 OFFCURVE",
"123 642 OFFCURVE",
"123 511 CURVE SMOOTH",
"123 42 LINE SMOOTH",
"123 15 OFFCURVE",
"138 0 OFFCURVE",
"165 0 CURVE SMOOTH",
"192 0 OFFCURVE",
"207 15 OFFCURVE"
);
},
{
closed = 1;
nodes = (
"310 423 LINE SMOOTH",
"337 423 OFFCURVE",
"352 438 OFFCURVE",
"352 465 CURVE SMOOTH",
"352 493 OFFCURVE",
"337 507 OFFCURVE",
"310 507 CURVE SMOOTH",
"86 507 LINE SMOOTH",
"59 507 OFFCURVE",
"44 493 OFFCURVE",
"44 465 CURVE SMOOTH",
"44 438 OFFCURVE",
"59 423 OFFCURVE",
"86 423 CURVE SMOOTH"
);
}
);
width = 386;
}
);
leftKerningGroup = f;
rightKerningGroup = f;
unicode = 0066;
},
{
color = 4;
glyphname = g;
lastChange = "2016-07-31 01:33:48 +0000";
layers = (
{
anchors = (
{
name = bottom;
position = "{320, -200}";
},
{
name = top;
position = "{312, 507}";
}
);
layerId = "9D2B49D7-8C02-48EB-8D57-D561CCF616AE";
paths = (
{
closed = 1;
nodes = (
"410 -200 LINE SMOOTH",
"508 -200 OFFCURVE",
"554 -154 OFFCURVE",
"554 -56 CURVE SMOOTH",
"554 465 LINE SMOOTH",
"554 493 OFFCURVE",
"539 507 OFFCURVE",
"512 507 CURVE SMOOTH",
"485 507 OFFCURVE",
"470 493 OFFCURVE",
"470 465 CURVE SMOOTH",
"470 -56 LINE SMOOTH",
"470 -105 OFFCURVE",
"460 -116 OFFCURVE",
"410 -116 CURVE SMOOTH",
"224 -116 LINE SMOOTH",
"190.995 -116 OFFCURVE",
"176 -112 OFFCURVE",
"168 -97 CURVE SMOOTH",
"159 -70 OFFCURVE",
"150 -56 OFFCURVE",
"125 -56 CURVE SMOOTH",
"95 -56 OFFCURVE",
"79 -73 OFFCURVE",
"84 -101 CURVE SMOOTH",
"97 -168 OFFCURVE",
"143 -200 OFFCURVE",
"224 -200 CURVE SMOOTH"
);
},
{
closed = 1;
nodes = (
"314 0 LINE SMOOTH",
"423 0 OFFCURVE",
"500 57 OFFCURVE",
"516 162 CURVE SMOOTH",
"516 181 OFFCURVE",
"509 192 OFFCURVE",
"510 192 CURVE SMOOTH",
"483 192 OFFCURVE",
"470 179 OFFCURVE",
"470 153 CURVE SMOOTH",
"470 105 OFFCURVE",
"402 84 OFFCURVE",
"314 84 CURVE SMOOTH",
"276 84 LINE SMOOTH",
"189 84 OFFCURVE",
"164 110 OFFCURVE",
"164 195 CURVE SMOOTH",
"164 311 LINE SMOOTH",
"164 399 OFFCURVE",
"190 424 OFFCURVE",
"276 423 CURVE SMOOTH",
"358 423 LINE SMOOTH",
"429 423 OFFCURVE",
"470 407 OFFCURVE",
"470 353 CURVE SMOOTH",
"470 325 OFFCURVE",
"484 311 OFFCURVE",
"511 311 CURVE SMOOTH",
"510 311 OFFCURVE",
"517 322 OFFCURVE",
"517 341 CURVE SMOOTH",
"507 454 OFFCURVE",
"450 507 OFFCURVE",
"358 507 CURVE SMOOTH",
"276 507 LINE SMOOTH",
"142 508 OFFCURVE",
"80 445 OFFCURVE",
"80 311 CURVE SMOOTH",
"80 195 LINE SMOOTH",
"80 63 OFFCURVE",
"143 0 OFFCURVE",
"276 0 CURVE SMOOTH"
);
}
);
width = 648;
}
);
leftKerningGroup = o;
leftMetricsKey = o;
rightKerningGroup = u;
rightMetricsKey = n;
unicode = 0067;
},
{
color = 4;
glyphname = h;
lastChange = "2016-07-31 01:34:07 +0000";
layers = (
{
anchors = (
{
name = bottom;
position = "{342, 0}";
},
{
name = center;
position = "{205, 583}";
},
{
name = top;
position = "{151, 710}";
}
);
layerId = "9D2B49D7-8C02-48EB-8D57-D561CCF616AE";
paths = (
{
closed = 1;
nodes = (
"573 42 CURVE SMOOTH",
"573 311 LINE SMOOTH",
"573 444 OFFCURVE",
"510 507 OFFCURVE",
"377 507 CURVE SMOOTH",
"349 507 LINE SMOOTH",
"211 507 OFFCURVE",
"124 455 OFFCURVE",
"105 358 CURVE SMOOTH",
"99 331 OFFCURVE",
"119 315 OFFCURVE",
"153 315 CURVE SMOOTH",
"180 315 OFFCURVE",
"191 328 OFFCURVE",
"198 354 CURVE SMOOTH",
"213 400 OFFCURVE",
"261 423 OFFCURVE",
"349 423 CURVE SMOOTH",
"377 423 LINE SMOOTH",
"463 423 OFFCURVE",
"489 398 OFFCURVE",
"489 311 CURVE SMOOTH",
"489 42 LINE SMOOTH",
"489 15 OFFCURVE",
"504 0 OFFCURVE",
"531 0 CURVE SMOOTH",
"558 0 OFFCURVE",
"573 15 OFFCURVE"
);
},
{
closed = 1;
nodes = (
"193 42 CURVE SMOOTH",
"193 662 LINE SMOOTH",
"193 689 OFFCURVE",
"178 704 OFFCURVE",
"151 704 CURVE SMOOTH",
"124 704 OFFCURVE",
"109 689 OFFCURVE",
"109 662 CURVE SMOOTH",
"109 42 LINE SMOOTH",
"109 15 OFFCURVE",
"124 0 OFFCURVE",
"151 0 CURVE SMOOTH",
"178 0 OFFCURVE",
"193 15 OFFCURVE"
);
}
);
width = 667;
}
);
leftKerningGroup = h;
leftMetricsKey = n;
rightKerningGroup = n;
rightMetricsKey = n;
unicode = 0068;
},
{
color = 4;
glyphname = idotless;
lastChange = "2016-07-31 01:33:48 +0000";
layers = (
{
anchors = (
{
name = bottom;
position = "{145, 0}";
},
{
name = ogonek;
position = "{118, 7}";
},
{
name = top;
position = "{145, 507}";
}
);
layerId = "9D2B49D7-8C02-48EB-8D57-D561CCF616AE";
paths = (
{
closed = 1;
nodes = (
"173 0 OFFCURVE",
"188 15 OFFCURVE",
"188 42 CURVE SMOOTH",
"188 465 LINE SMOOTH",
"188 492 OFFCURVE",
"173 507 OFFCURVE",
"146 507 CURVE SMOOTH",
"119 507 OFFCURVE",
"104 492 OFFCURVE",
"104 465 CURVE SMOOTH",
"104 42 LINE SMOOTH",
"104 15 OFFCURVE",
"119 0 OFFCURVE",
"146 0 CURVE SMOOTH"
);
}
);
width = 292;
}
);
leftKerningGroup = n;
leftMetricsKey = n;
rightKerningGroup = u;
rightMetricsKey = u;
unicode = 0131;
},
{
color = 4;
glyphname = jdotless;
lastChange = "2016-07-31 01:33:48 +0000";
layers = (
{
anchors = (
{
name = bottom;
position = "{20, -200}";
},
{
name = top;
position = "{146, 507}";
}
);
layerId = "9D2B49D7-8C02-48EB-8D57-D561CCF616AE";
paths = (
{
closed = 1;
nodes = (
"-5 -185 OFFCURVE",
"7 -200 OFFCURVE",
"36 -200 CURVE SMOOTH",
"139 -200 OFFCURVE",
"188 -151 OFFCURVE",
"188 -48 CURVE SMOOTH",
"188 465 LINE SMOOTH",
"188 492 OFFCURVE",
"173 507 OFFCURVE",
"146 507 CURVE SMOOTH",
"119 507 OFFCURVE",
"104 492 OFFCURVE",
"104 465 CURVE SMOOTH",
"104 -48 LINE SMOOTH",
"104 -102 OFFCURVE",
"90 -116 OFFCURVE",
"36 -116 CURVE SMOOTH",
"9 -116 OFFCURVE",
"-5 -131 OFFCURVE",
"-5 -158 CURVE SMOOTH"
);
}
);
width = 292;
}
);
leftKerningGroup = jdotless;
rightKerningGroup = jdotless;
rightMetricsKey = idotless;
unicode = 0237;
},
{
color = 4;
glyphname = k;
lastChange = "2016-07-31 01:33:48 +0000";
layers = (
{
anchors = (
{
name = bottom;
position = "{255, 0}";
},
{
name = top;
position = "{146, 704}";
}
);
layerId = "9D2B49D7-8C02-48EB-8D57-D561CCF616AE";
paths = (
{
closed = 1;
nodes = (
"481 428 LINE SMOOTH",
"501 445 OFFCURVE",
"503 466 OFFCURVE",
"485 487 CURVE SMOOTH",
"467 507 OFFCURVE",
"447 510 OFFCURVE",
"426 491 CURVE SMOOTH",
"126 233 LINE SMOOTH",
"105 216 OFFCURVE",
"104 195 OFFCURVE",
"123 174 CURVE SMOOTH",
"142 153 OFFCURVE",
"161 152 OFFCURVE",
"181 169 CURVE SMOOTH"
);
},
{
closed = 1;
nodes = (
"188 42 CURVE SMOOTH",
"188 662 LINE SMOOTH",
"188 689 OFFCURVE",
"173 704 OFFCURVE",
"146 704 CURVE SMOOTH",
"119 704 OFFCURVE",
"104 689 OFFCURVE",
"104 662 CURVE SMOOTH",
"104 42 LINE SMOOTH",
"104 15 OFFCURVE",
"119 0 OFFCURVE",
"146 0 CURVE SMOOTH",
"173 0 OFFCURVE",
"188 15 OFFCURVE"
);
},
{
closed = 1;
nodes = (
"473 72 CURVE SMOOTH",
"296 273 LINE SMOOTH",
"278 293 OFFCURVE",
"257 294 OFFCURVE",
"236 277 CURVE SMOOTH",
"215 259 OFFCURVE",
"214 238 OFFCURVE",
"233 217 CURVE SMOOTH",
"410 17 LINE SMOOTH",
"428 -3 OFFCURVE",
"449 -5 OFFCURVE",
"470 13 CURVE SMOOTH",
"490 32 OFFCURVE",
"492 51 OFFCURVE"
);
}
);
width = 508;
}
);
leftKerningGroup = h;
leftMetricsKey = n;
rightKerningGroup = k;
unicode = 006B;
},
{
color = 4;
glyphname = kgreenlandic;
lastChange = "2016-07-31 01:33:48 +0000";
layers = (
{
anchors = (
{
name = bottom;
position = "{265, 0}";
},
{
name = top;
position = "{264, 507}";
}
);
layerId = "9D2B49D7-8C02-48EB-8D57-D561CCF616AE";
paths = (
{
closed = 1;
nodes = (
"481 428 LINE SMOOTH",
"501 445 OFFCURVE",
"503 467 OFFCURVE",
"486 486 CURVE SMOOTH",
"467 507 OFFCURVE",
"447 510 OFFCURVE",
"426 491 CURVE SMOOTH",
"126 233 LINE SMOOTH",
"105 216 OFFCURVE",
"104 195 OFFCURVE",
"123 174 CURVE SMOOTH",
"142 153 OFFCURVE",
"161 152 OFFCURVE",
"181 169 CURVE SMOOTH"
);
},
{
closed = 1;
nodes = (
"173 0 OFFCURVE",
"188 15 OFFCURVE",
"188 42 CURVE SMOOTH",
"188 465 LINE SMOOTH",
"188 492 OFFCURVE",
"173 507 OFFCURVE",
"146 507 CURVE SMOOTH",
"119 507 OFFCURVE",
"104 492 OFFCURVE",
"104 465 CURVE SMOOTH",
"104 42 LINE SMOOTH",
"104 15 OFFCURVE",
"119 0 OFFCURVE",
"146 0 CURVE SMOOTH"
);
},
{
closed = 1;
nodes = (
"490 32 OFFCURVE",
"492 51 OFFCURVE",
"473 72 CURVE SMOOTH",
"296 273 LINE SMOOTH",
"278 293 OFFCURVE",
"257 294 OFFCURVE",
"236 277 CURVE SMOOTH",
"215 259 OFFCURVE",
"214 238 OFFCURVE",
"233 217 CURVE SMOOTH",
"410 16 LINE SMOOTH",
"428 -3 OFFCURVE",
"450 -5 OFFCURVE",
"469 13 CURVE SMOOTH"
);
}
);
width = 508;
}
);
leftKerningGroup = n;
leftMetricsKey = n;
rightKerningGroup = k;
rightMetricsKey = k;
unicode = 0138;
},
{
color = 4;
glyphname = l;
lastChange = "2016-07-31 01:33:48 +0000";
layers = (
{
anchors = (
{
name = bottom;
position = "{217, 0}";
},
{
name = center;
position = "{165, 363}";
},
{
name = top;
position = "{146, 704}";
},
{
name = topright;
position = "{232, 507}";
}
);
layerId = "9D2B49D7-8C02-48EB-8D57-D561CCF616AE";
paths = (
{
closed = 1;
nodes = (
"298 42 CURVE SMOOTH",
"298 69 OFFCURVE",
"284 84 OFFCURVE",
"255 84 CURVE SMOOTH",
"201 84 OFFCURVE",
"188 98 OFFCURVE",
"188 152 CURVE SMOOTH",
"188 662 LINE SMOOTH",
"188 689 OFFCURVE",
"173 704 OFFCURVE",
"146 704 CURVE SMOOTH",
"119 704 OFFCURVE",
"104 689 OFFCURVE",
"104 662 CURVE SMOOTH",
"104 152 LINE SMOOTH",
"104 50 OFFCURVE",
"153 0 OFFCURVE",
"255 0 CURVE SMOOTH",
"284 0 OFFCURVE",
"299 15 OFFCURVE"
);
}
);
width = 343;
}
);
leftKerningGroup = h;
leftMetricsKey = n;
rightKerningGroup = l;
unicode = 006C;
},
{
color = 4;
glyphname = lslash;
lastChange = "2016-07-31 01:33:48 +0000";
layers = (
{
anchors = (
{
name = _center;
position = "{158, 363}";
}
);
components = (
{
name = l;
}
);
layerId = "9D2B49D7-8C02-48EB-8D57-D561CCF616AE";
paths = (
{
closed = 1;
nodes = (
"39 235 OFFCURVE",
"44 236 OFFCURVE",
"49 241 CURVE SMOOTH",
"304 431 LINE SMOOTH",
"312 436 OFFCURVE",
"316 444 OFFCURVE",
"316 454 CURVE SMOOTH",
"316 469 OFFCURVE",
"303 482 OFFCURVE",
"288 482 CURVE SMOOTH",
"282 482 OFFCURVE",
"276 481 OFFCURVE",
"271 476 CURVE SMOOTH",
"16 286 LINE SMOOTH",
"9 281 OFFCURVE",
"4 273 OFFCURVE",
"4 263 CURVE SMOOTH",
"4 249 OFFCURVE",
"17 235 OFFCURVE",
"32 235 CURVE SMOOTH"
);
}
);
width = 356;
}
);
leftKerningGroup = hbar;
rightKerningGroup = l;
unicode = 0142;
},
{
color = 4;
glyphname = m;
lastChange = "2016-07-31 01:33:48 +0000";
layers = (
{
anchors = (
{
name = bottom;
position = "{472, 0}";
},
{
name = top;
position = "{469, 507}";
}
);
layerId = "9D2B49D7-8C02-48EB-8D57-D561CCF616AE";
paths = (
{
closed = 1;
nodes = (
"188 42 CURVE SMOOTH",
"188 315 LINE SMOOTH",
"188 391 OFFCURVE",
"218 423 OFFCURVE",
"294 423 CURVE SMOOTH",
"335 423 LINE SMOOTH",
"401 423 OFFCURVE",
"428 391 OFFCURVE",
"428 315 CURVE SMOOTH",
"428 42 LINE SMOOTH",
"428 14 OFFCURVE",
"442 0 OFFCURVE",
"470 0 CURVE SMOOTH",
"498 0 OFFCURVE",
"512 14 OFFCURVE",
"512 42 CURVE SMOOTH",
"512 315 LINE SMOOTH",
"512 391 OFFCURVE",
"542 423 OFFCURVE",
"618 423 CURVE SMOOTH",
"659 423 LINE SMOOTH",
"725 423 OFFCURVE",
"752 391 OFFCURVE",
"752 315 CURVE SMOOTH",
"752 42 LINE SMOOTH",
"752 14 OFFCURVE",
"766 0 OFFCURVE",
"794 0 CURVE SMOOTH",
"822 0 OFFCURVE",
"836 14 OFFCURVE",
"836 42 CURVE SMOOTH",
"836 315 LINE SMOOTH",
"836 452 OFFCURVE",
"785 507 OFFCURVE",
"659 507 CURVE SMOOTH",
"618 507 LINE SMOOTH",
"556 507 OFFCURVE",
"521 486 OFFCURVE",
"485 432 CURVE",
"492 421 LINE",
"469 482 OFFCURVE",
"424 507 OFFCURVE",
"335 507 CURVE SMOOTH",
"322 507 LINE SMOOTH",
"263 507 OFFCURVE",
"223 488 OFFCURVE",
"188 442 CURVE",
"188 465 LINE SMOOTH",
"188 493 OFFCURVE",
"173 507 OFFCURVE",
"146 507 CURVE SMOOTH",
"118 507 OFFCURVE",
"104 493 OFFCURVE",
"104 465 CURVE SMOOTH",
"104 42 LINE SMOOTH",
"104 14 OFFCURVE",
"118 0 OFFCURVE",
"146 0 CURVE SMOOTH",
"174 0 OFFCURVE",
"188 14 OFFCURVE"
);
}
);
width = 930;
}
);
leftKerningGroup = n;
leftMetricsKey = n;
rightKerningGroup = n;
rightMetricsKey = n;
unicode = 006D;
},
{
color = 4;
glyphname = n;
lastChange = "2016-07-31 01:33:48 +0000";
layers = (
{
anchors = (
{
name = bottom;
position = "{353, 0}";
},
{
name = top;
position = "{357, 507}";
}
);
layerId = "9D2B49D7-8C02-48EB-8D57-D561CCF616AE";
paths = (
{
closed = 1;
nodes = (
"568 42 CURVE SMOOTH",
"568 311 LINE SMOOTH",
"568 444 OFFCURVE",
"505 507 OFFCURVE",
"372 507 CURVE SMOOTH",
"344 507 LINE SMOOTH",
"230 507 OFFCURVE",
"158 450 OFFCURVE",
"142 345 CURVE SMOOTH",
"141 326 OFFCURVE",
"144 315 OFFCURVE",
"149 315 CURVE SMOOTH",
"175 315 OFFCURVE",
"188 328 OFFCURVE",
"187 354 CURVE SMOOTH",
"184 401 OFFCURVE",
"256 423 OFFCURVE",
"344 423 CURVE SMOOTH",
"372 423 LINE SMOOTH",
"458 423 OFFCURVE",
"484 398 OFFCURVE",
"484 311 CURVE SMOOTH",
"484 42 LINE SMOOTH",
"484 15 OFFCURVE",
"499 0 OFFCURVE",
"526 0 CURVE SMOOTH",
"553 0 OFFCURVE",
"568 15 OFFCURVE"
);
},
{
closed = 1;
nodes = (
"188 42 CURVE SMOOTH",
"188 465 LINE SMOOTH",
"188 493 OFFCURVE",
"173 507 OFFCURVE",
"146 507 CURVE SMOOTH",
"119 507 OFFCURVE",
"104 493 OFFCURVE",
"104 465 CURVE SMOOTH",
"104 42 LINE SMOOTH",
"104 15 OFFCURVE",
"119 0 OFFCURVE",
"146 0 CURVE SMOOTH",
"173 0 OFFCURVE",
"188 15 OFFCURVE"
);
}
);
width = 662;
}
);
leftKerningGroup = n;
rightKerningGroup = n;
unicode = 006E;
},
{
color = 4;
glyphname = eng;
lastChange = "2016-07-31 01:33:48 +0000";
layers = (
{
components = (
{
name = n;
}
);
layerId = "9D2B49D7-8C02-48EB-8D57-D561CCF616AE";
paths = (
{
closed = 1;
nodes = (
"424 -199 LINE SMOOTH",
"522 -199 OFFCURVE",
"568 -152 OFFCURVE",
"568 -55 CURVE SMOOTH",
"568 263 LINE SMOOTH",
"568 289 OFFCURVE",
"553 305 OFFCURVE",
"526 305 CURVE SMOOTH",
"499 305 OFFCURVE",
"484 289 OFFCURVE",
"484 263 CURVE SMOOTH",
"484 -55 LINE SMOOTH",
"484 -104 OFFCURVE",
"474 -115 OFFCURVE",
"424 -115 CURVE SMOOTH",
"328 -115 LINE SMOOTH",
"298 -115 OFFCURVE",
"282 -113 OFFCURVE",
"272 -104 CURVE SMOOTH",
"262 -78 OFFCURVE",
"254 -64 OFFCURVE",
"229 -64 CURVE SMOOTH",
"199 -64 OFFCURVE",
"183 -80 OFFCURVE",
"188 -108 CURVE SMOOTH",
"204 -169 OFFCURVE",
"250 -199 OFFCURVE",
"328 -199 CURVE SMOOTH"
);
}
);
width = 662;
}
);
leftKerningGroup = n;
rightKerningGroup = j;
unicode = 014B;
},
{
color = 4;
glyphname = o;
lastChange = "2016-07-31 01:33:48 +0000";
layers = (
{
anchors = (
{
name = bottom;
position = "{317, 0}";
},
{
name = center;
position = "{317, 253}";
},
{
name = ogonek;
position = "{472, 33}";
},
{
name = top;
position = "{317, 507}";
},
{
name = topright;
position = "{481, 451}";
}
);
layerId = "9D2B49D7-8C02-48EB-8D57-D561CCF616AE";
paths = (
{
closed = 1;
nodes = (
"358 0 LINE SMOOTH",
"491 0 OFFCURVE",
"554 63 OFFCURVE",
"554 196 CURVE SMOOTH",
"554 311 LINE SMOOTH",
"554 444 OFFCURVE",
"491 507 OFFCURVE",
"358 507 CURVE SMOOTH",
"276 507 LINE SMOOTH",
"143 507 OFFCURVE",
"80 445 OFFCURVE",
"80 311 CURVE SMOOTH",
"80 195 LINE SMOOTH",
"80 63 OFFCURVE",
"143 0 OFFCURVE",
"276 0 CURVE SMOOTH"
);
},
{
closed = 1;
nodes = (
"164 195 CURVE SMOOTH",
"164 311 LINE SMOOTH",
"164 399 OFFCURVE",
"189 423 OFFCURVE",
"276 423 CURVE SMOOTH",
"358 423 LINE SMOOTH",
"445 423 OFFCURVE",
"470 398 OFFCURVE",
"470 311 CURVE SMOOTH",
"470 196 LINE SMOOTH",
"470 109 OFFCURVE",
"445 84 OFFCURVE",
"358 84 CURVE SMOOTH",
"276 84 LINE SMOOTH",
"189 84 OFFCURVE",
"164 109 OFFCURVE"
);
}
);
width = 634;
}
);
leftKerningGroup = o;
rightKerningGroup = o;
unicode = 006F;
},
{
color = 4;
glyphname = oslash;
lastChange = "2016-07-31 01:33:48 +0000";
layers = (
{
anchors = (
{
name = top;
position = "{317, 507}";
}
);
components = (
{
name = o;
}
);
layerId = "9D2B49D7-8C02-48EB-8D57-D561CCF616AE";
paths = (
{
closed = 1;
nodes = (
"138 -75 OFFCURVE",
"156 -71 OFFCURVE",
"169 -49 CURVE SMOOTH",
"218 30 LINE",
"228 50 LINE",
"461 421 LINE",
"476 438 LINE",
"510 493 LINE SMOOTH",
"522 512 OFFCURVE",
"519 528 OFFCURVE",
"501 542 CURVE SMOOTH",
"480 556 OFFCURVE",
"462 551 OFFCURVE",
"449 531 CURVE SMOOTH",
"412 471 LINE",
"407 457 LINE",
"164 71 LINE",
"149 57 LINE",
"106 -12 LINE SMOOTH",
"94 -32 OFFCURVE",
"98 -47 OFFCURVE",
"117 -61 CURVE SMOOTH"
);
}
);
width = 634;
}
);
leftKerningGroup = o;
rightKerningGroup = o;
unicode = 00F8;
},
{
color = 4;
glyphname = oe;
lastChange = "2016-07-31 01:33:48 +0000";
layers = (
{
anchors = (
{
name = bottom;
position = "{498, 0}";
},
{
name = top;
position = "{498, 507}";
}
);
layerId = "9D2B49D7-8C02-48EB-8D57-D561CCF616AE";
paths = (
{
closed = 1;
nodes = (
"328 -20 LINE SMOOTH",
"398 -20 OFFCURVE",
"449 -2 OFFCURVE",
"482 61 CURVE",
"514 -2 OFFCURVE",
"563 -20 OFFCURVE",
"631 -20 CURVE SMOOTH",
"692 -20 LINE SMOOTH",
"821 -20 OFFCURVE",
"884 29 OFFCURVE",
"884 137 CURVE SMOOTH",
"884 160 OFFCURVE",
"865 179 OFFCURVE",
"842 179 CURVE SMOOTH",
"819 179 OFFCURVE",
"800 160 OFFCURVE",
"800 137 CURVE SMOOTH",
"800 82 OFFCURVE",
"778 64 OFFCURVE",
"692 64 CURVE SMOOTH",
"631 64 LINE SMOOTH",
"550 64 OFFCURVE",
"524 89 OFFCURVE",
"524 178 CURVE SMOOTH",
"524 220 LINE",
"841 220 LINE SMOOTH",
"869 220 OFFCURVE",
"884 235 OFFCURVE",
"884 262 CURVE SMOOTH",
"884 412 OFFCURVE",
"824 483 OFFCURVE",
"692 483 CURVE SMOOTH",
"632 483 LINE SMOOTH",
"563 484 OFFCURVE",
"513 466 OFFCURVE",
"481 403 CURVE",
"449 467 OFFCURVE",
"398 483 OFFCURVE",
"328 483 CURVE SMOOTH",
"276 483 LINE SMOOTH",
"143 484 OFFCURVE",
"80 421 OFFCURVE",
"80 287 CURVE SMOOTH",
"80 175 LINE SMOOTH",
"80 43 OFFCURVE",
"143 -20 OFFCURVE",
"276 -20 CURVE SMOOTH"
);
},
{
closed = 1;
nodes = (
"189 64 OFFCURVE",
"164 89 OFFCURVE",
"164 175 CURVE SMOOTH",
"164 287 LINE SMOOTH",
"164 375 OFFCURVE",
"189 400 OFFCURVE",
"276 399 CURVE SMOOTH",
"328 399 LINE SMOOTH",
"415 399 OFFCURVE",
"440 374 OFFCURVE",
"440 287 CURVE SMOOTH",
"440 176 LINE SMOOTH",
"440 89 OFFCURVE",
"415 64 OFFCURVE",
"328 64 CURVE SMOOTH",
"276 64 LINE SMOOTH"
);
},
{
closed = 1;
nodes = (
"527 380 OFFCURVE",
"555 400 OFFCURVE",
"632 399 CURVE SMOOTH",
"692 399 LINE SMOOTH",
"761 399 OFFCURVE",
"791 377 OFFCURVE",
"799 304 CURVE",
"524 304 LINE"
);
}
);
width = 964;
}
);
leftKerningGroup = o;
leftMetricsKey = o;
rightKerningGroup = e;
rightMetricsKey = e;
unicode = 0153;
},
{
color = 4;
glyphname = p;
lastChange = "2016-07-31 01:33:48 +0000";
layers = (
{
anchors = (
{
name = bottom;
position = "{346, 0}";
},
{
name = bottomleft;
position = "{146, -200}";
},
{
name = center;
position = "{352, 234}";
},
{
name = top;
position = "{365, 507}";
}
);
layerId = "9D2B49D7-8C02-48EB-8D57-D561CCF616AE";
paths = (
{
closed = 1;
nodes = (
"382 0 LINE SMOOTH",
"515 0 OFFCURVE",
"578 63 OFFCURVE",
"578 196 CURVE SMOOTH",
"578 311 LINE SMOOTH",
"578 444 OFFCURVE",
"515 507 OFFCURVE",
"382 507 CURVE SMOOTH",
"344 507 LINE SMOOTH",
"234 507 OFFCURVE",
"157 455 OFFCURVE",
"142 358 CURVE SMOOTH",
"141 332 OFFCURVE",
"148 315 OFFCURVE",
"147 315 CURVE SMOOTH",
"175 315 OFFCURVE",
"188 328 OFFCURVE",
"188 353 CURVE SMOOTH",
"184 401 OFFCURVE",
"256 423 OFFCURVE",
"344 423 CURVE SMOOTH",
"382 423 LINE SMOOTH",
"469 423 OFFCURVE",
"494 398 OFFCURVE",
"494 311 CURVE SMOOTH",
"494 196 LINE SMOOTH",
"494 109 OFFCURVE",
"469 84 OFFCURVE",
"382 84 CURVE SMOOTH",
"188 84 LINE SMOOTH",
"161 84 OFFCURVE",
"146 69 OFFCURVE",
"146 42 CURVE SMOOTH",
"146 15 OFFCURVE",
"161 0 OFFCURVE",
"188 0 CURVE SMOOTH"
);
},
{
closed = 1;
nodes = (
"188 -158 CURVE SMOOTH",
"188 465 LINE SMOOTH",
"188 492 OFFCURVE",
"173 507 OFFCURVE",
"146 507 CURVE SMOOTH",
"119 507 OFFCURVE",
"104 492 OFFCURVE",
"104 465 CURVE SMOOTH",
"104 -158 LINE SMOOTH",
"104 -185 OFFCURVE",
"119 -200 OFFCURVE",
"146 -200 CURVE SMOOTH",
"173 -200 OFFCURVE",
"188 -185 OFFCURVE"
);
}
);
width = 658;
}
);
leftKerningGroup = n;
leftMetricsKey = n;
rightKerningGroup = o;
rightMetricsKey = o;
unicode = 0070;
},
{
color = 4;
glyphname = thorn;
lastChange = "2016-07-31 01:33:48 +0000";
layers = (
{
layerId = "9D2B49D7-8C02-48EB-8D57-D561CCF616AE";
paths = (
{
closed = 1;
nodes = (
"177 -200 OFFCURVE",
"188 -189 OFFCURVE",
"188 -158 CURVE SMOOTH",
"188 1 LINE",
"382 1 LINE SMOOTH",
"515 1 OFFCURVE",
"578 64 OFFCURVE",
"578 197 CURVE SMOOTH",
"578 308 LINE SMOOTH",
"578 441 OFFCURVE",
"515 504 OFFCURVE",
"382 504 CURVE SMOOTH",
"344 504 LINE SMOOTH",
"281 504 OFFCURVE",
"228 481 OFFCURVE",
"188 436 CURVE",
"188 644 LINE SMOOTH",
"188 675 OFFCURVE",
"177 686 OFFCURVE",
"146 686 CURVE SMOOTH",
"115 686 OFFCURVE",
"104 675 OFFCURVE",
"104 644 CURVE SMOOTH",
"104 -158 LINE SMOOTH",
"104 -189 OFFCURVE",
"115 -200 OFFCURVE",
"146 -200 CURVE SMOOTH"
);
},
{
closed = 1;
nodes = (
"188 312 LINE SMOOTH",
"188 385 OFFCURVE",
"235 420 OFFCURVE",
"344 420 CURVE SMOOTH",
"382 420 LINE SMOOTH",
"469 420 OFFCURVE",
"494 395 OFFCURVE",
"494 308 CURVE SMOOTH",
"494 197 LINE SMOOTH",
"494 110 OFFCURVE",
"469 85 OFFCURVE",
"382 85 CURVE SMOOTH",
"188 85 LINE"
);
}
);
width = 658;
}
);
leftKerningGroup = h;
leftMetricsKey = h;
rightKerningGroup = o;
rightMetricsKey = o;
unicode = 00FE;
},
{
color = 4;
glyphname = q;
lastChange = "2016-07-31 01:33:48 +0000";
layers = (
{
anchors = (
{
name = bottom;
position = "{335, 0}";
},
{
name = top;
position = "{335, 507}";
}
);
layerId = "9D2B49D7-8C02-48EB-8D57-D561CCF616AE";
paths = (
{
closed = 1;
nodes = (
"80 311 CURVE SMOOTH",
"80 196 LINE SMOOTH",
"80 63 OFFCURVE",
"143 0 OFFCURVE",
"276 0 CURVE SMOOTH",
"470 0 LINE SMOOTH",
"497 0 OFFCURVE",
"512 15 OFFCURVE",
"512 42 CURVE SMOOTH",
"512 69 OFFCURVE",
"497 84 OFFCURVE",
"470 84 CURVE SMOOTH",
"276 84 LINE SMOOTH",
"189 84 OFFCURVE",
"164 109 OFFCURVE",
"164 196 CURVE SMOOTH",
"164 311 LINE SMOOTH",
"164 398 OFFCURVE",
"189 423 OFFCURVE",
"276 423 CURVE SMOOTH",
"314 423 LINE SMOOTH",
"402 423 OFFCURVE",
"470 401 OFFCURVE",
"470 353 CURVE SMOOTH",
"470 328 OFFCURVE",
"483 315 OFFCURVE",
"509 315 CURVE SMOOTH",
"539 315 OFFCURVE",
"502 316 OFFCURVE",
"502 344 CURVE SMOOTH",
"506 441 OFFCURVE",
"447 507 OFFCURVE",
"314 507 CURVE SMOOTH",
"276 507 LINE SMOOTH",
"143 507 OFFCURVE",
"80 444 OFFCURVE"
);
},
{
closed = 1;
nodes = (
"470 465 CURVE SMOOTH",
"470 -158 LINE SMOOTH",
"470 -185 OFFCURVE",
"485 -200 OFFCURVE",
"512 -200 CURVE SMOOTH",
"539 -200 OFFCURVE",
"554 -185 OFFCURVE",
"554 -158 CURVE SMOOTH",
"554 465 LINE SMOOTH",
"554 492 OFFCURVE",
"539 507 OFFCURVE",
"512 507 CURVE SMOOTH",
"485 507 OFFCURVE",
"470 492 OFFCURVE"
);
}
);
width = 648;
}
);
leftKerningGroup = o;
leftMetricsKey = o;
rightKerningGroup = q;
rightMetricsKey = n;
unicode = 0071;
},
{
color = 4;
glyphname = r;
lastChange = "2016-07-31 01:33:48 +0000";
layers = (
{
anchors = (
{
name = bottom;
position = "{146, 0}";
},
{
name = top;
position = "{250, 507}";
}
);
layerId = "9D2B49D7-8C02-48EB-8D57-D561CCF616AE";
paths = (
{
closed = 1;
nodes = (
"188 296 CURVE SMOOTH",
"185 372 OFFCURVE",
"247 423 OFFCURVE",
"368 423 CURVE SMOOTH",
"395 423 OFFCURVE",
"410 438 OFFCURVE",
"410 465 CURVE SMOOTH",
"410 492 OFFCURVE",
"395 507 OFFCURVE",
"368 507 CURVE SMOOTH",
"235 507 OFFCURVE",
"153 428 OFFCURVE",
"138 285 CURVE SMOOTH",
"137 266 OFFCURVE",
"140 255 OFFCURVE",
"144 255 CURVE SMOOTH",
"171 255 OFFCURVE",
"188 269 OFFCURVE"
);
},
{
closed = 1;
nodes = (
"188 42 CURVE SMOOTH",
"188 465 LINE SMOOTH",
"188 493 OFFCURVE",
"173 507 OFFCURVE",
"146 507 CURVE SMOOTH",
"119 507 OFFCURVE",
"104 493 OFFCURVE",
"104 465 CURVE SMOOTH",
"104 42 LINE SMOOTH",
"104 15 OFFCURVE",
"119 0 OFFCURVE",
"146 0 CURVE SMOOTH",
"173 0 OFFCURVE",
"188 15 OFFCURVE"
);
}
);
width = 427;
}
);
leftKerningGroup = n;
leftMetricsKey = n;
rightKerningGroup = r;
unicode = 0072;
},
{
color = 4;
glyphname = s;
lastChange = "2016-07-31 01:33:48 +0000";
layers = (
{
anchors = (
{
name = bottom;
position = "{316, 0}";
},
{
name = top;
position = "{316, 507}";
}
);
layerId = "9D2B49D7-8C02-48EB-8D57-D561CCF616AE";
paths = (
{
closed = 1;
nodes = (
"387 0 LINE SMOOTH",
"487 0 OFFCURVE",
"537 49 OFFCURVE",
"537 150 CURVE SMOOTH",
"537 250 OFFCURVE",
"487 300 OFFCURVE",
"387 300 CURVE SMOOTH",
"226 300 LINE SMOOTH",
"177 300 OFFCURVE",
"165 313 OFFCURVE",
"165 361 CURVE SMOOTH",
"165 413 OFFCURVE",
"175 423 OFFCURVE",
"226 423 CURVE SMOOTH",
"382 423 LINE SMOOTH",
"413 423 OFFCURVE",
"428 419 OFFCURVE",
"436 403 CURVE SMOOTH",
"443 378 OFFCURVE",
"454 364 OFFCURVE",
"480 364 CURVE SMOOTH",
"508 364 OFFCURVE",
"526 380 OFFCURVE",
"521 408 CURVE SMOOTH",
"507 473 OFFCURVE",
"461 507 OFFCURVE",
"382 507 CURVE SMOOTH",
"226 507 LINE SMOOTH",
"128 507 OFFCURVE",
"81 459 OFFCURVE",
"81 361 CURVE SMOOTH",
"81 265 OFFCURVE",
"130 216 OFFCURVE",
"226 216 CURVE SMOOTH",
"387 216 LINE SMOOTH",
"439 216 OFFCURVE",
"453 203 OFFCURVE",
"453 150 CURVE SMOOTH",
"453 96 OFFCURVE",
"439 84 OFFCURVE",
"387 84 CURVE SMOOTH",
"223 84 LINE SMOOTH",
"186 84 OFFCURVE",
"169 89 OFFCURVE",
"161 109 CURVE SMOOTH",
"153 136 OFFCURVE",
"143 150 OFFCURVE",
"116 150 CURVE SMOOTH",
"88 150 OFFCURVE",
"70 133 OFFCURVE",
"75 105 CURVE SMOOTH",
"89 35 OFFCURVE",
"138 0 OFFCURVE",
"223 0 CURVE SMOOTH"
);
}
);
width = 611;
}
);
leftKerningGroup = s;
rightKerningGroup = s;
unicode = 0073;
},
{
color = 4;
glyphname = germandbls;
lastChange = "2016-07-31 01:33:48 +0000";
layers = (
{
layerId = "9D2B49D7-8C02-48EB-8D57-D561CCF616AE";
paths = (
{
closed = 1;
nodes = (
"174 0 OFFCURVE",
"188 14 OFFCURVE",
"188 42 CURVE SMOOTH",
"188 519 LINE SMOOTH",
"188 598 OFFCURVE",
"210 620 OFFCURVE",
"289 620 CURVE SMOOTH",
"367 620 OFFCURVE",
"389 598 OFFCURVE",
"389 520 CURVE SMOOTH",
"389 458 OFFCURVE",
"376 430 OFFCURVE",
"330 422 CURVE SMOOTH",
"302 419 OFFCURVE",
"289 405 OFFCURVE",
"289 379 CURVE SMOOTH",
"289 350 OFFCURVE",
"303 336 OFFCURVE",
"331 336 CURVE SMOOTH",
"339 336 LINE SMOOTH",
"425 336 OFFCURVE",
"449 312 OFFCURVE",
"449 226 CURVE SMOOTH",
"449 194 LINE SMOOTH",
"449 108 OFFCURVE",
"425 84 OFFCURVE",
"339 84 CURVE SMOOTH",
"278 84 LINE SMOOTH",
"250 84 OFFCURVE",
"236 70 OFFCURVE",
"236 42 CURVE SMOOTH",
"236 14 OFFCURVE",
"250 0 OFFCURVE",
"278 0 CURVE SMOOTH",
"339 0 LINE SMOOTH",
"471 0 OFFCURVE",
"533 61 OFFCURVE",
"533 194 CURVE SMOOTH",
"533 226 LINE SMOOTH",
"533 315 OFFCURVE",
"498 372 OFFCURVE",
"398 395 CURVE",
"457 425 OFFCURVE",
"473 471 OFFCURVE",
"473 520 CURVE SMOOTH",
"473 644 OFFCURVE",
"413 704 OFFCURVE",
"289 704 CURVE SMOOTH",
"164 704 OFFCURVE",
"104 644 OFFCURVE",
"104 519 CURVE SMOOTH",
"104 42 LINE SMOOTH",
"104 14 OFFCURVE",
"118 0 OFFCURVE",
"146 0 CURVE SMOOTH"
);
}
);
width = 587;
}
);
leftKerningGroup = h;
leftMetricsKey = n;
rightKerningGroup = germandbls;
unicode = 00DF;
},
{
color = 4;
glyphname = t;
lastChange = "2016-07-31 01:33:48 +0000";
layers = (
{
anchors = (
{
name = bottom;
position = "{187, 0}";
},
{
name = center;
position = "{196, 311}";
},
{
name = top;
position = "{167, 622}";
},
{
name = topright;
position = "{242, 507}";
}
);
layerId = "9D2B49D7-8C02-48EB-8D57-D561CCF616AE";
paths = (
{
closed = 1;
nodes = (
"360 42 CURVE SMOOTH",
"360 71 OFFCURVE",
"344 84 OFFCURVE",
"318 84 CURVE SMOOTH",
"234 84 OFFCURVE",
"209 107 OFFCURVE",
"209 192 CURVE",
"209 580 LINE SMOOTH",
"209 607 OFFCURVE",
"194 622 OFFCURVE",
"167 622 CURVE SMOOTH",
"140 622 OFFCURVE",
"125 607 OFFCURVE",
"125 580 CURVE SMOOTH",
"125 192 LINE SMOOTH",
"125 61 OFFCURVE",
"186 0 OFFCURVE",
"318 0 CURVE SMOOTH",
"344 0 OFFCURVE",
"360 15 OFFCURVE"
);
},
{
closed = 1;
nodes = (
"324 423 LINE SMOOTH",
"351 423 OFFCURVE",
"366 438 OFFCURVE",
"366 465 CURVE SMOOTH",
"366 493 OFFCURVE",
"351 507 OFFCURVE",
"324 507 CURVE SMOOTH",
"76 507 LINE SMOOTH",
"49 507 OFFCURVE",
"34 493 OFFCURVE",
"34 465 CURVE SMOOTH",
"34 438 OFFCURVE",
"49 423 OFFCURVE",
"76 423 CURVE SMOOTH"
);
}
);
width = 419;
}
);
leftKerningGroup = t;
rightKerningGroup = t;
unicode = 0074;
},
{
color = 4;
glyphname = tbar;
lastChange = "2016-07-31 01:33:48 +0000";
layers = (
{
components = (
{
name = t;
}
);
layerId = "9D2B49D7-8C02-48EB-8D57-D561CCF616AE";
paths = (
{
closed = 1;
nodes = (
"331 276 LINE SMOOTH",
"353 276 OFFCURVE",
"366 289 OFFCURVE",
"366 311 CURVE SMOOTH",
"366 333 OFFCURVE",
"353 346 OFFCURVE",
"331 346 CURVE SMOOTH",
"69 346 LINE SMOOTH",
"47 346 OFFCURVE",
"34 333 OFFCURVE",
"34 311 CURVE SMOOTH",
"34 289 OFFCURVE",
"47 276 OFFCURVE",
"69 276 CURVE SMOOTH"
);
}
);
width = 409;
}
);
leftKerningGroup = t;
rightKerningGroup = t;
unicode = 0167;
},
{
color = 4;
glyphname = v;
lastChange = "2016-07-31 01:33:48 +0000";
layers = (
{
anchors = (
{
name = bottom;
position = "{265, 0}";
},
{
name = top;
position = "{263, 507}";
}
);
layerId = "9D2B49D7-8C02-48EB-8D57-D561CCF616AE";
paths = (
{
closed = 1;
nodes = (
"302 31 CURVE SMOOTH",
"486 446 LINE SMOOTH",
"497 471 OFFCURVE",
"491 490 OFFCURVE",
"466 502 CURVE SMOOTH",
"442 513 OFFCURVE",
"421 504 OFFCURVE",
"410 482 CURVE SMOOTH",
"236 92 LINE",
"275 92 LINE",
"116 480 LINE SMOOTH",
"105 505 OFFCURVE",
"85 513 OFFCURVE",
"61 502 CURVE SMOOTH",
"35 492 OFFCURVE",
"28 472 OFFCURVE",
"39 447 CURVE SMOOTH",
"209 33 LINE SMOOTH",
"218 11 OFFCURVE",
"232 0 OFFCURVE",
"254 0 CURVE SMOOTH",
"278 0 OFFCURVE",
"293 10 OFFCURVE"
);
}
);
width = 526;
}
);
leftKerningGroup = v;
rightKerningGroup = v;
unicode = 0076;
},
{
color = 4;
glyphname = w;
lastChange = "2016-07-31 01:34:07 +0000";
layers = (
{
anchors = (
{
name = bottom;
position = "{370, 0}";
},
{
name = top;
position = "{370, 507}";
}
);
layerId = "9D2B49D7-8C02-48EB-8D57-D561CCF616AE";
paths = (
{
closed = 1;
nodes = (
"514 0 CURVE SMOOTH",
"538 0 OFFCURVE",
"553 11 OFFCURVE",
"561 34 CURVE SMOOTH",
"713 450 LINE SMOOTH",
"723 476 OFFCURVE",
"713 495 OFFCURVE",
"688 504 CURVE SMOOTH",
"662 513 OFFCURVE",
"643 505 OFFCURVE",
"634 478 CURVE SMOOTH",
"519 145 LINE",
"521 149 LINE",
"423 475 LINE SMOOTH",
"416 499 OFFCURVE",
"401 510 OFFCURVE",
"378 510 CURVE SMOOTH",
"353 510 OFFCURVE",
"337 500 OFFCURVE",
"330 477 CURVE SMOOTH",
"226 148 LINE",
"227 149 LINE",
"117 477 LINE SMOOTH",
"108 504 OFFCURVE",
"90 513 OFFCURVE",
"64 504 CURVE SMOOTH",
"38 496 OFFCURVE",
"29 477 OFFCURVE",
"37 452 CURVE SMOOTH",
"176 34 LINE SMOOTH",
"184 11 OFFCURVE",
"198 0 OFFCURVE",
"220 0 CURVE SMOOTH",
"241 0 OFFCURVE",
"257 12 OFFCURVE",
"264 34 CURVE",
"391 426 LINE",
"365 379 LINE",
"468 35 LINE SMOOTH",
"474 12 OFFCURVE",
"489 0 OFFCURVE"
);
}
);
width = 752;
}
);
leftKerningGroup = v;
leftMetricsKey = v;
rightKerningGroup = v;
rightMetricsKey = v;
unicode = 0077;
},
{
color = 4;
glyphname = x;
lastChange = "2016-07-31 01:33:48 +0000";
layers = (
{
anchors = (
{
name = bottom;
position = "{269, 0}";
},
{
name = top;
position = "{274, 507}";
}
);
layerId = "9D2B49D7-8C02-48EB-8D57-D561CCF616AE";
paths = (
{
closed = 1;
nodes = (
"476 70 CURVE SMOOTH",
"155 489 LINE SMOOTH",
"139 510 OFFCURVE",
"118 513 OFFCURVE",
"97 496 CURVE SMOOTH",
"75 480 OFFCURVE",
"72 459 OFFCURVE",
"89 438 CURVE SMOOTH",
"410 19 LINE SMOOTH",
"426 -3 OFFCURVE",
"447 -6 OFFCURVE",
"469 11 CURVE SMOOTH",
"490 28 OFFCURVE",
"492 48 OFFCURVE"
);
},
{
closed = 1;
nodes = (
"132 20 CURVE SMOOTH",
"280 228 LINE SMOOTH",
"296 250 OFFCURVE",
"293 271 OFFCURVE",
"271 287 CURVE SMOOTH",
"249 303 OFFCURVE",
"228 300 OFFCURVE",
"212 278 CURVE SMOOTH",
"64 69 LINE SMOOTH",
"48 47 OFFCURVE",
"51 27 OFFCURVE",
"73 10 CURVE SMOOTH",
"95 -6 OFFCURVE",
"116 -2 OFFCURVE"
);
},
{
closed = 1;
nodes = (
"321 266 CURVE SMOOTH",
"452 438 LINE SMOOTH",
"468 460 OFFCURVE",
"465 481 OFFCURVE",
"444 497 CURVE SMOOTH",
"422 514 OFFCURVE",
"401 511 OFFCURVE",
"385 489 CURVE SMOOTH",
"255 317 LINE SMOOTH",
"238 295 OFFCURVE",
"241 274 OFFCURVE",
"263 258 CURVE SMOOTH",
"285 241 OFFCURVE",
"304 243 OFFCURVE"
);
}
);
width = 533;
}
);
leftKerningGroup = x;
rightKerningGroup = x;
unicode = 0078;
},
{
color = 4;
glyphname = y;
lastChange = "2016-07-31 01:33:48 +0000";
layers = (
{
anchors = (
{
name = bottom;
position = "{655, 0}";
},
{
name = top;
position = "{335, 507}";
}
);
layerId = "9D2B49D7-8C02-48EB-8D57-D561CCF616AE";
paths = (
{
closed = 1;
nodes = (
"432 -200 LINE SMOOTH",
"528 -200 OFFCURVE",
"576 -152 OFFCURVE",
"576 -55 CURVE SMOOTH",
"576 465 LINE SMOOTH",
"576 493 OFFCURVE",
"562 507 OFFCURVE",
"534 507 CURVE SMOOTH",
"506 507 OFFCURVE",
"492 493 OFFCURVE",
"492 465 CURVE SMOOTH",
"492 192 LINE SMOOTH",
"492 119 OFFCURVE",
"445 84 OFFCURVE",
"336 84 CURVE SMOOTH",
"287 84 LINE SMOOTH",
"202 84 OFFCURVE",
"178 108 OFFCURVE",
"178 192 CURVE SMOOTH",
"178 465 LINE SMOOTH",
"178 493 OFFCURVE",
"164 507 OFFCURVE",
"136 507 CURVE SMOOTH",
"108 507 OFFCURVE",
"94 493 OFFCURVE",
"94 465 CURVE SMOOTH",
"94 192 LINE SMOOTH",
"94 61 OFFCURVE",
"155 0 OFFCURVE",
"287 0 CURVE SMOOTH",
"336 0 LINE SMOOTH",
"398 0 OFFCURVE",
"452 12 OFFCURVE",
"492 72 CURVE",
"492 -55 LINE SMOOTH",
"492 -105 OFFCURVE",
"481 -116 OFFCURVE",
"432 -116 CURVE SMOOTH",
"238 -116 LINE SMOOTH",
"188 -116 OFFCURVE",
"178 -105 OFFCURVE",
"178 -55 CURVE SMOOTH",
"178 -27 OFFCURVE",
"164 -13 OFFCURVE",
"136 -13 CURVE SMOOTH",
"108 -13 OFFCURVE",
"94 -27 OFFCURVE",
"94 -55 CURVE SMOOTH",
"94 -152 OFFCURVE",
"141 -200 OFFCURVE",
"238 -200 CURVE SMOOTH"
);
}
);
width = 680;
}
);
leftKerningGroup = u;
leftMetricsKey = u;
rightKerningGroup = u;
rightMetricsKey = u;
unicode = 0079;
},
{
color = 4;
glyphname = z;
lastChange = "2016-07-31 01:33:48 +0000";
layers = (
{
anchors = (
{
name = bottom;
position = "{272, 0}";
},
{
name = top;
position = "{284, 507}";
}
);
layerId = "9D2B49D7-8C02-48EB-8D57-D561CCF616AE";
paths = (
{
closed = 1;
nodes = (
"368 0 LINE SMOOTH",
"446 0 OFFCURVE",
"494 35 OFFCURVE",
"508 100 CURVE SMOOTH",
"514 128 OFFCURVE",
"496 144 OFFCURVE",
"467 144 CURVE SMOOTH",
"441 144 OFFCURVE",
"432 130 OFFCURVE",
"423 105 CURVE SMOOTH",
"415 89 OFFCURVE",
"399 84 OFFCURVE",
"368 84 CURVE SMOOTH",
"161 85 LINE",
"172 68 LINE",
"455 423 LINE SMOOTH",
"468 439 OFFCURVE",
"473 451 OFFCURVE",
"473 465 CURVE SMOOTH",
"473 493 OFFCURVE",
"458 507 OFFCURVE",
"431 507 CURVE SMOOTH",
"186 507 LINE SMOOTH",
"105 507 OFFCURVE",
"59 474 OFFCURVE",
"46 407 CURVE SMOOTH",
"41 379 OFFCURVE",
"58 363 OFFCURVE",
"87 363 CURVE SMOOTH",
"113 363 OFFCURVE",
"123 377 OFFCURVE",
"130 403 CURVE SMOOTH",
"138 419 OFFCURVE",
"153 423 OFFCURVE",
"186 423 CURVE SMOOTH",
"375 423 LINE",
"373 443 LINE",
"85 83 LINE SMOOTH",
"72 67 OFFCURVE",
"67 55 OFFCURVE",
"67 42 CURVE SMOOTH",
"67 15 OFFCURVE",
"83 0 OFFCURVE",
"109 0 CURVE SMOOTH"
);
}
);
width = 545;
}
);
leftKerningGroup = z;
rightKerningGroup = z;
unicode = 007A;
},
{
color = 4;
glyphname = a.ss01;
lastChange = "2016-07-31 01:34:07 +0000";
layers = (
{
layerId = "9D2B49D7-8C02-48EB-8D57-D561CCF616AE";
paths = (
{
closed = 1;
nodes = (
"314 0 LINE SMOOTH",
"426 0 OFFCURVE",
"497 51 OFFCURVE",
"513 155 CURVE",
"470 154 LINE",
"470 105 OFFCURVE",
"402 84 OFFCURVE",
"314 84 CURVE SMOOTH",
"273 84 LINE SMOOTH",
"189 84 OFFCURVE",
"164 107 OFFCURVE",
"164 192 CURVE SMOOTH",
"164 311 LINE SMOOTH",
"164 402 OFFCURVE",
"185 424 OFFCURVE",
"272 423 CURVE SMOOTH",
"362 423 LINE SMOOTH",
"433 423 OFFCURVE",
"472 409 OFFCURVE",
"470 352 CURVE",
"518 354 LINE",
"508 461 OFFCURVE",
"460 507 OFFCURVE",
"362 507 CURVE SMOOTH",
"272 507 LINE SMOOTH",
"139 508 OFFCURVE",
"80 448 OFFCURVE",
"80 311 CURVE SMOOTH",
"80 192 LINE SMOOTH",
"80 60 OFFCURVE",
"142 0 OFFCURVE",
"273 0 CURVE SMOOTH"
);
},
{
closed = 1;
nodes = (
"587 -1 OFFCURVE",
"603 15 OFFCURVE",
"603 44 CURVE SMOOTH",
"603 71 OFFCURVE",
"589 79 OFFCURVE",
"564 89 CURVE SMOOTH",
"556 96 OFFCURVE",
"554 109 OFFCURVE",
"554 133 CURVE SMOOTH",
"554 466 LINE SMOOTH",
"554 492 OFFCURVE",
"539 508 OFFCURVE",
"512 508 CURVE SMOOTH",
"485 508 OFFCURVE",
"470 492 OFFCURVE",
"470 466 CURVE SMOOTH",
"470 133 LINE SMOOTH",
"470 61 OFFCURVE",
"500 18 OFFCURVE",
"559 4 CURVE SMOOTH"
);
}
);
width = 648;
}
);
leftKerningGroup = o;
leftMetricsKey = o;
rightKerningGroup = l;
rightMetricsKey = l;
},
{
color = 4;
glyphname = f_f;
lastChange = "2016-07-31 01:33:48 +0000";
layers = (
{
components = (
{
name = f;
transform = "{1, 0, 0, 1, 320, 0}";
}
);
layerId = "9D2B49D7-8C02-48EB-8D57-D561CCF616AE";
paths = (
{
closed = 1;
nodes = (
"192 0 OFFCURVE",
"207 15 OFFCURVE",
"207 42 CURVE SMOOTH",
"207 511 LINE SMOOTH",
"207 596 OFFCURVE",
"233 620 OFFCURVE",
"316 620 CURVE SMOOTH",
"338 620 OFFCURVE",
"352 635 OFFCURVE",
"352 662 CURVE SMOOTH",
"352 690 OFFCURVE",
"338 704 OFFCURVE",
"316 704 CURVE SMOOTH",
"185 704 OFFCURVE",
"123 642 OFFCURVE",
"123 511 CURVE SMOOTH",
"123 42 LINE SMOOTH",
"123 15 OFFCURVE",
"138 0 OFFCURVE",
"165 0 CURVE SMOOTH"
);
},
{
closed = 1;
nodes = (
"473 423 LINE SMOOTH",
"499 423 OFFCURVE",
"515 439 OFFCURVE",
"515 465 CURVE SMOOTH",
"515 492 OFFCURVE",
"499 507 OFFCURVE",
"473 507 CURVE SMOOTH",
"86 507 LINE SMOOTH",
"59 507 OFFCURVE",
"44 492 OFFCURVE",
"44 465 CURVE SMOOTH",
"44 439 OFFCURVE",
"59 423 OFFCURVE",
"86 423 CURVE SMOOTH"
);
}
);
width = 706;
}
);
leftKerningGroup = f;
leftMetricsKey = f;
rightKerningGroup = f;
rightMetricsKey = f;
},
{
color = 4;
glyphname = f_f_i;
lastChange = "2016-07-31 01:33:48 +0000";
layers = (
{
components = (
{
name = fi;
transform = "{1, 0, 0, 1, 319, 0}";
}
);
layerId = "9D2B49D7-8C02-48EB-8D57-D561CCF616AE";
paths = (
{
closed = 1;
nodes = (
"192 0 OFFCURVE",
"207 15 OFFCURVE",
"207 42 CURVE SMOOTH",
"207 511 LINE SMOOTH",
"207 596 OFFCURVE",
"233 620 OFFCURVE",
"316 620 CURVE SMOOTH",
"338 620 OFFCURVE",
"352 635 OFFCURVE",
"352 662 CURVE SMOOTH",
"352 690 OFFCURVE",
"338 704 OFFCURVE",
"316 704 CURVE SMOOTH",
"185 704 OFFCURVE",
"123 642 OFFCURVE",
"123 511 CURVE SMOOTH",
"123 42 LINE SMOOTH",
"123 15 OFFCURVE",
"138 0 OFFCURVE",
"165 0 CURVE SMOOTH"
);
},
{
closed = 1;
nodes = (
"471 423 LINE SMOOTH",
"498 423 OFFCURVE",
"513 439 OFFCURVE",
"513 465 CURVE SMOOTH",
"513 492 OFFCURVE",
"498 507 OFFCURVE",
"471 507 CURVE SMOOTH",
"86 507 LINE SMOOTH",
"59 507 OFFCURVE",
"44 492 OFFCURVE",
"44 465 CURVE SMOOTH",
"44 439 OFFCURVE",
"59 423 OFFCURVE",
"86 423 CURVE SMOOTH"
);
}
);
width = 949;
}
);
leftKerningGroup = f;
leftMetricsKey = f;
rightKerningGroup = dotless;
rightMetricsKey = i;
},
{
color = 4;
glyphname = f_f_l;
lastChange = "2016-07-31 01:34:07 +0000";
layers = (
{
components = (
{
name = fl;
transform = "{1, 0, 0, 1, 306, 0}";
}
);
layerId = "9D2B49D7-8C02-48EB-8D57-D561CCF616AE";
paths = (
{
closed = 1;
nodes = (
"192 0 OFFCURVE",
"207 15 OFFCURVE",
"207 42 CURVE SMOOTH",
"207 511 LINE SMOOTH",
"207 596 OFFCURVE",
"233 620 OFFCURVE",
"316 620 CURVE SMOOTH",
"338 620 OFFCURVE",
"352 635 OFFCURVE",
"352 662 CURVE SMOOTH",
"352 690 OFFCURVE",
"338 704 OFFCURVE",
"316 704 CURVE SMOOTH",
"185 704 OFFCURVE",
"123 642 OFFCURVE",
"123 511 CURVE SMOOTH",
"123 42 LINE SMOOTH",
"123 15 OFFCURVE",
"138 0 OFFCURVE",
"165 0 CURVE SMOOTH"
);
},
{
closed = 1;
nodes = (
"429 423 LINE SMOOTH",
"456 423 OFFCURVE",
"471 439 OFFCURVE",
"471 465 CURVE SMOOTH",
"471 492 OFFCURVE",
"456 507 OFFCURVE",
"429 507 CURVE SMOOTH",
"86 507 LINE SMOOTH",
"59 507 OFFCURVE",
"44 492 OFFCURVE",
"44 465 CURVE SMOOTH",
"44 439 OFFCURVE",
"59 423 OFFCURVE",
"86 423 CURVE SMOOTH"
);
}
);
width = 996;
}
);
leftKerningGroup = f;
leftMetricsKey = f;
rightKerningGroup = l;
rightMetricsKey = l;
},
{
color = 4;
glyphname = fi;
lastChange = "2016-07-31 01:33:48 +0000";
layers = (
{
components = (
{
alignment = -1;
name = idotless;
transform = "{1, 0, 0, 1, 339, 0}";
},
{
alignment = -1;
name = dotaccentcomb;
transform = "{1.0296, 0, 0, 1.0296, 379, -28}";
}
);
layerId = "9D2B49D7-8C02-48EB-8D57-D561CCF616AE";
paths = (
{
closed = 1;
nodes = (
"192 0 OFFCURVE",
"207 15 OFFCURVE",
"207 42 CURVE SMOOTH",
"207 423 LINE",
"486 423 LINE SMOOTH",
"513 423 OFFCURVE",
"528 439 OFFCURVE",
"528 465 CURVE SMOOTH",
"528 492 OFFCURVE",
"513 507 OFFCURVE",
"486 507 CURVE SMOOTH",
"207 507 LINE",
"207 511 LINE SMOOTH",
"207 595 OFFCURVE",
"233 620 OFFCURVE",
"316 620 CURVE",
"452 581 LINE",
"478 704 LINE",
"316 704 LINE SMOOTH",
"185 704 OFFCURVE",
"123 642 OFFCURVE",
"123 511 CURVE SMOOTH",
"123 507 LINE",
"86 507 LINE SMOOTH",
"59 507 OFFCURVE",
"44 492 OFFCURVE",
"44 465 CURVE SMOOTH",
"44 439 OFFCURVE",
"59 423 OFFCURVE",
"86 423 CURVE SMOOTH",
"123 423 LINE",
"123 42 LINE SMOOTH",
"123 15 OFFCURVE",
"138 0 OFFCURVE",
"165 0 CURVE SMOOTH"
);
}
);
width = 631;
}
);
leftKerningGroup = f;
leftMetricsKey = f;
rightMetricsKey = i;
unicode = FB01;
},
{
color = 4;
glyphname = fl;
lastChange = "2016-07-31 01:34:07 +0000";
layers = (
{
layerId = "9D2B49D7-8C02-48EB-8D57-D561CCF616AE";
paths = (
{
closed = 1;
nodes = (
"630 0 OFFCURVE",
"645 15 OFFCURVE",
"645 42 CURVE SMOOTH",
"645 73 OFFCURVE",
"633 84 OFFCURVE",
"603 84 CURVE SMOOTH",
"542 83 OFFCURVE",
"527 96 OFFCURVE",
"527 160 CURVE SMOOTH",
"527 662 LINE SMOOTH",
"527 689 OFFCURVE",
"512 704 OFFCURVE",
"485 704 CURVE SMOOTH",
"316 704 LINE SMOOTH",
"185 704 OFFCURVE",
"123 642 OFFCURVE",
"123 511 CURVE SMOOTH",
"123 42 LINE SMOOTH",
"123 15 OFFCURVE",
"138 0 OFFCURVE",
"165 0 CURVE SMOOTH",
"192 0 OFFCURVE",
"207 15 OFFCURVE",
"207 42 CURVE SMOOTH",
"207 511 LINE SMOOTH",
"207 596 OFFCURVE",
"231 620 OFFCURVE",
"316 620 CURVE SMOOTH",
"443 620 LINE",
"443 160 LINE SMOOTH",
"443 50 OFFCURVE",
"495 -2 OFFCURVE",
"604 0 CURVE SMOOTH"
);
},
{
closed = 1;
nodes = (
"309 423 LINE SMOOTH",
"336 423 OFFCURVE",
"351 439 OFFCURVE",
"351 465 CURVE SMOOTH",
"351 492 OFFCURVE",
"336 507 OFFCURVE",
"309 507 CURVE SMOOTH",
"86 507 LINE SMOOTH",
"59 507 OFFCURVE",
"44 492 OFFCURVE",
"44 465 CURVE SMOOTH",
"44 439 OFFCURVE",
"59 423 OFFCURVE",
"86 423 CURVE SMOOTH"
);
}
);
width = 690;
}
);
leftKerningGroup = f;
leftMetricsKey = f;
rightKerningGroup = l;
rightMetricsKey = l;
unicode = FB02;
},
{
color = 4;
glyphname = I_J.loclNLD;
lastChange = "2016-07-31 01:33:48 +0000";
layers = (
{
layerId = "9D2B49D7-8C02-48EB-8D57-D561CCF616AE";
paths = (
{
closed = 1;
nodes = (
"174 248 OFFCURVE",
"188 261 OFFCURVE",
"188 290 CURVE SMOOTH",
"188 635 LINE SMOOTH",
"188 664 OFFCURVE",
"174 677 OFFCURVE",
"146 677 CURVE SMOOTH",
"117 677 OFFCURVE",
"104 664 OFFCURVE",
"104 635 CURVE SMOOTH",
"104 290 LINE SMOOTH",
"104 261 OFFCURVE",
"117 248 OFFCURVE",
"146 248 CURVE SMOOTH"
);
},
{
closed = 1;
nodes = (
"391 0 LINE SMOOTH",
"532 0 OFFCURVE",
"595 62 OFFCURVE",
"595 204 CURVE SMOOTH",
"595 636 LINE SMOOTH",
"595 662 OFFCURVE",
"580 678 OFFCURVE",
"553 678 CURVE SMOOTH",
"525 678 OFFCURVE",
"511 662 OFFCURVE",
"511 636 CURVE SMOOTH",
"511 204 LINE SMOOTH",
"511 109 OFFCURVE",
"485 84 OFFCURVE",
"391 84 CURVE SMOOTH",
"308 84 LINE SMOOTH",
"230 84 OFFCURVE",
"199 101 OFFCURVE",
"189 162 CURVE SMOOTH",
"187 190 OFFCURVE",
"173 204 OFFCURVE",
"146 204 CURVE SMOOTH",
"120 204 OFFCURVE",
"103 189 OFFCURVE",
"105 161 CURVE SMOOTH",
"119 49 OFFCURVE",
"182 0 OFFCURVE",
"308 0 CURVE SMOOTH"
);
}
);
width = 689;
}
);
leftKerningGroup = H;
leftMetricsKey = H;
rightKerningGroup = U;
rightMetricsKey = J;
},
{
color = 4;
glyphname = ordfeminine;
lastChange = "2016-07-31 01:33:48 +0000";
layers = (
{
layerId = "9D2B49D7-8C02-48EB-8D57-D561CCF616AE";
paths = (
{
closed = 1;
nodes = (
"397 298 OFFCURVE",
"410 311 OFFCURVE",
"410 334 CURVE SMOOTH",
"410 527 LINE SMOOTH",
"410 622 OFFCURVE",
"364 668 OFFCURVE",
"269 668 CURVE SMOOTH",
"213 668 LINE SMOOTH",
"135 668 OFFCURVE",
"90 645 OFFCURVE",
"75 595 CURVE SMOOTH",
"69 570 OFFCURVE",
"84 556 OFFCURVE",
"109 556 CURVE SMOOTH",
"127 556 OFFCURVE",
"129 558 OFFCURVE",
"150 585 CURVE SMOOTH",
"160 592 OFFCURVE",
"178 595 OFFCURVE",
"213 595 CURVE SMOOTH",
"269 595 LINE SMOOTH",
"323 595 OFFCURVE",
"337 581 OFFCURVE",
"337 527 CURVE SMOOTH",
"337 334 LINE SMOOTH",
"337 311 OFFCURVE",
"350 298 OFFCURVE",
"373 298 CURVE SMOOTH"
);
},
{
closed = 1;
nodes = (
"239 298 LINE SMOOTH",
"304 298 OFFCURVE",
"346 333 OFFCURVE",
"355 398 CURVE",
"337 404 LINE",
"337 379 OFFCURVE",
"295 371 OFFCURVE",
"239 371 CURVE SMOOTH",
"184 371 LINE SMOOTH",
"145 371 OFFCURVE",
"137 379 OFFCURVE",
"137 418 CURVE SMOOTH",
"137 458 OFFCURVE",
"145 466 OFFCURVE",
"184 466 CURVE SMOOTH",
"337 466 LINE SMOOTH",
"361 466 OFFCURVE",
"373 479 OFFCURVE",
"373 502 CURVE SMOOTH",
"373 526 OFFCURVE",
"361 539 OFFCURVE",
"337 539 CURVE SMOOTH",
"184 539 LINE SMOOTH",
"105 539 OFFCURVE",
"64 499 OFFCURVE",
"64 418 CURVE SMOOTH",
"64 339 OFFCURVE",
"104 298 OFFCURVE",
"184 298 CURVE SMOOTH"
);
}
);
width = 474;
}
);
leftKerningGroup = ordfeminine;
rightKerningGroup = ordfemnne;
unicode = 00AA;
},
{
color = 4;
glyphname = ordmasculine;
lastChange = "2016-07-31 01:33:48 +0000";
layers = (
{
layerId = "9D2B49D7-8C02-48EB-8D57-D561CCF616AE";
paths = (
{
closed = 1;
nodes = (
"248 298 LINE SMOOTH",
"345 298 OFFCURVE",
"394 347 OFFCURVE",
"394 445 CURVE SMOOTH",
"394 504 LINE SMOOTH",
"394 601 OFFCURVE",
"345 650 OFFCURVE",
"248 650 CURVE SMOOTH",
"182 650 LINE SMOOTH",
"85 649 OFFCURVE",
"36 602 OFFCURVE",
"36 504 CURVE SMOOTH",
"36 444 LINE SMOOTH",
"36 347 OFFCURVE",
"85 298 OFFCURVE",
"182 298 CURVE SMOOTH"
);
},
{
closed = 1;
nodes = (
"131 382 OFFCURVE",
"120 393 OFFCURVE",
"120 444 CURVE SMOOTH",
"120 504 LINE SMOOTH",
"120 555 OFFCURVE",
"131 565 OFFCURVE",
"182 566 CURVE SMOOTH",
"248 566 LINE SMOOTH",
"299 566 OFFCURVE",
"310 554 OFFCURVE",
"310 504 CURVE SMOOTH",
"310 445 LINE SMOOTH",
"310 393 OFFCURVE",
"299 382 OFFCURVE",
"248 382 CURVE SMOOTH",
"182 382 LINE SMOOTH"
);
}
);
width = 430;
}
);
leftKerningGroup = ordfeminine;
rightKerningGroup = ordfemnne;
unicode = 00BA;
},
{
export = 0;
glyphname = "i-kayahli";
lastChange = "2016-07-31 01:33:48 +0000";
layers = (
{
layerId = "9D2B49D7-8C02-48EB-8D57-D561CCF616AE";
paths = (
{
closed = 1;
nodes = (
"423 -21 LINE SMOOTH",
"513 -21 OFFCURVE",
"539 21 OFFCURVE",
"539 124 CURVE SMOOTH",
"539 337 LINE SMOOTH",
"539 440 OFFCURVE",
"513 482 OFFCURVE",
"423 482 CURVE SMOOTH",
"169 482 LINE SMOOTH",
"79 482 OFFCURVE",
"53 440 OFFCURVE",
"53 337 CURVE SMOOTH",
"53 263 LINE",
"198 263 LINE SMOOTH",
"232 263 OFFCURVE",
"250 278 OFFCURVE",
"250 307 CURVE SMOOTH",
"250 334 OFFCURVE",
"232 347 OFFCURVE",
"198 347 CURVE SMOOTH",
"137 347 LINE",
"137 354 LINE SMOOTH",
"137 389 OFFCURVE",
"144 398 OFFCURVE",
"176 398 CURVE SMOOTH",
"416 398 LINE SMOOTH",
"448 398 OFFCURVE",
"455 389 OFFCURVE",
"455 354 CURVE",
"455 357 LINE",
"53 156 LINE",
"53 124 LINE SMOOTH",
"53 21 OFFCURVE",
"79 -21 OFFCURVE",
"169 -21 CURVE SMOOTH"
);
},
{
closed = 1;
nodes = (
"144 63 OFFCURVE",
"137 71 OFFCURVE",
"137 106 CURVE SMOOTH",
"137 106 LINE",
"455 265 LINE",
"455 106 LINE SMOOTH",
"455 71 OFFCURVE",
"448 63 OFFCURVE",
"416 63 CURVE SMOOTH",
"176 63 LINE SMOOTH"
);
}
);
width = 597;
}
);
leftKerningGroup = "i-kayahli";
rightKerningGroup = "-kayahl";
unicode = A924;
},
{
color = 4;
glyphname = zero;
lastChange = "2016-07-31 01:33:48 +0000";
layers = (
{
components = (
{
name = periodcentered;
transform = "{1, 0, 0, 1, 200, 41}";
}
);
layerId = "9D2B49D7-8C02-48EB-8D57-D561CCF616AE";
paths = (
{
closed = 1;
nodes = (
"372 1 LINE SMOOTH",
"525 1 OFFCURVE",
"596 72 OFFCURVE",
"596 225 CURVE SMOOTH",
"596 455 LINE SMOOTH",
"596 609 OFFCURVE",
"525 679 OFFCURVE",
"372 679 CURVE SMOOTH",
"312 679 LINE SMOOTH",
"159 681 OFFCURVE",
"88 610 OFFCURVE",
"88 456 CURVE SMOOTH",
"88 225 LINE SMOOTH",
"88 72 OFFCURVE",
"159 1 OFFCURVE",
"312 1 CURVE SMOOTH"
);
},
{
closed = 1;
nodes = (
"205 85 OFFCURVE",
"172 119 OFFCURVE",
"172 225 CURVE SMOOTH",
"172 456 LINE SMOOTH",
"172 564 OFFCURVE",
"206 597 OFFCURVE",
"312 595 CURVE SMOOTH",
"372 595 LINE SMOOTH",
"479 595 OFFCURVE",
"512 562 OFFCURVE",
"512 455 CURVE SMOOTH",
"512 225 LINE SMOOTH",
"512 119 OFFCURVE",
"479 85 OFFCURVE",
"372 85 CURVE SMOOTH",
"312 85 LINE SMOOTH"
);
}
);
width = 684;
}
);
leftKerningGroup = zero;
rightKerningGroup = zero;
unicode = 0030;
},
{
color = 4;
glyphname = one;
lastChange = "2016-07-31 01:33:48 +0000";
layers = (
{
layerId = "9D2B49D7-8C02-48EB-8D57-D561CCF616AE";
paths = (
{
closed = 1;
nodes = (
"274 0 OFFCURVE",
"289 15 OFFCURVE",
"289 42 CURVE SMOOTH",
"289 636 LINE SMOOTH",
"289 663 OFFCURVE",
"276 678 OFFCURVE",
"253 678 CURVE SMOOTH",
"231 678 OFFCURVE",
"216 672 OFFCURVE",
"201 657 CURVE SMOOTH",
"67 525 LINE SMOOTH",
"48 506 OFFCURVE",
"47 485 OFFCURVE",
"64 468 CURVE SMOOTH",
"82 450 OFFCURVE",
"101 455 OFFCURVE",
"118 471 CURVE SMOOTH",
"228 574 LINE",
"205 558 LINE",
"205 42 LINE SMOOTH",
"205 15 OFFCURVE",
"219 0 OFFCURVE",
"247 0 CURVE SMOOTH"
);
}
);
width = 389;
}
);
leftKerningGroup = one;
rightKerningGroup = one;
unicode = 0031;
},
{
color = 4;
glyphname = two;
lastChange = "2016-07-31 01:33:48 +0000";
layers = (
{
layerId = "9D2B49D7-8C02-48EB-8D57-D561CCF616AE";
paths = (
{
closed = 1;
nodes = (
"498 0 OFFCURVE",
"513 15 OFFCURVE",
"513 42 CURVE SMOOTH",
"513 69 OFFCURVE",
"498 84 OFFCURVE",
"471 84 CURVE SMOOTH",
"141 84 LINE",
"157 176 OFFCURVE",
"231 214 OFFCURVE",
"311 260 CURVE SMOOTH",
"421 322 OFFCURVE",
"521 373 OFFCURVE",
"521 493 CURVE SMOOTH",
"521 618 OFFCURVE",
"461 678 OFFCURVE",
"336 678 CURVE SMOOTH",
"229 678 LINE SMOOTH",
"119 678 OFFCURVE",
"60 632 OFFCURVE",
"46 538 CURVE SMOOTH",
"43 509 OFFCURVE",
"59 494 OFFCURVE",
"87 494 CURVE SMOOTH",
"114 494 OFFCURVE",
"126 508 OFFCURVE",
"131 535 CURVE SMOOTH",
"139 580 OFFCURVE",
"166 594 OFFCURVE",
"229 594 CURVE SMOOTH",
"336 594 LINE SMOOTH",
"414 594 OFFCURVE",
"437 572 OFFCURVE",
"437 493 CURVE SMOOTH",
"437 424 OFFCURVE",
"381 396 OFFCURVE",
"270 333 CURVE SMOOTH",
"184 284 OFFCURVE",
"54 221 OFFCURVE",
"54 42 CURVE SMOOTH",
"54 14 OFFCURVE",
"70 0 OFFCURVE",
"97 0 CURVE SMOOTH",
"471 0 LINE SMOOTH"
);
}
);
width = 575;
}
);
leftKerningGroup = two;
rightKerningGroup = two;
unicode = 0032;
},
{
color = 4;
glyphname = three;
lastChange = "2016-07-31 01:33:48 +0000";
layers = (
{
layerId = "9D2B49D7-8C02-48EB-8D57-D561CCF616AE";
paths = (
{
closed = 1;
nodes = (
"371 0 LINE SMOOTH",
"504 0 OFFCURVE",
"566 62 OFFCURVE",
"566 194 CURVE SMOOTH",
"566 277 OFFCURVE",
"544 332 OFFCURVE",
"498 362 CURVE",
"533 388 OFFCURVE",
"550 432 OFFCURVE",
"550 493 CURVE SMOOTH",
"550 618 OFFCURVE",
"490 678 OFFCURVE",
"365 678 CURVE SMOOTH",
"268 678 LINE SMOOTH",
"159 678 OFFCURVE",
"99 632 OFFCURVE",
"86 538 CURVE SMOOTH",
"82 509 OFFCURVE",
"98 494 OFFCURVE",
"126 494 CURVE SMOOTH",
"153 494 OFFCURVE",
"166 508 OFFCURVE",
"170 535 CURVE SMOOTH",
"178 580 OFFCURVE",
"205 594 OFFCURVE",
"268 594 CURVE SMOOTH",
"365 594 LINE SMOOTH",
"443 594 OFFCURVE",
"466 572 OFFCURVE",
"466 493 CURVE SMOOTH",
"466 428 OFFCURVE",
"451 388 OFFCURVE",
"409 388 CURVE SMOOTH",
"294 388 LINE SMOOTH",
"267 388 OFFCURVE",
"252 373 OFFCURVE",
"252 346 CURVE SMOOTH",
"252 318 OFFCURVE",
"267 304 OFFCURVE",
"294 304 CURVE SMOOTH",
"371 304 LINE SMOOTH",
"457 304 OFFCURVE",
"482 278 OFFCURVE",
"482 194 CURVE SMOOTH",
"482 109 OFFCURVE",
"457 84 OFFCURVE",
"371 84 CURVE SMOOTH",
"257 84 LINE SMOOTH",
"186 84 OFFCURVE",
"157 100 OFFCURVE",
"148 152 CURVE SMOOTH",
"145 179 OFFCURVE",
"132 194 OFFCURVE",
"105 194 CURVE SMOOTH",
"77 194 OFFCURVE",
"61 178 OFFCURVE",
"64 150 CURVE SMOOTH",
"77 48 OFFCURVE",
"140 0 OFFCURVE",
"257 0 CURVE SMOOTH"
);
}
);
width = 654;
}
);
leftKerningGroup = three;
rightKerningGroup = three;
unicode = 0033;
},
{
color = 4;
glyphname = four;
lastChange = "2016-07-31 01:33:48 +0000";
layers = (
{
layerId = "9D2B49D7-8C02-48EB-8D57-D561CCF616AE";
paths = (
{
closed = 1;
nodes = (
"465 0 OFFCURVE",
"479 15 OFFCURVE",
"479 42 CURVE SMOOTH",
"480 636 LINE SMOOTH",
"480 663 OFFCURVE",
"465 678 OFFCURVE",
"434 678 CURVE SMOOTH",
"409 678 OFFCURVE",
"392 675 OFFCURVE",
"375 652 CURVE SMOOTH",
"61 228 LINE SMOOTH",
"49 211 OFFCURVE",
"44 199 OFFCURVE",
"44 184 CURVE SMOOTH",
"44 157 OFFCURVE",
"59 142 OFFCURVE",
"86 142 CURVE SMOOTH",
"537 142 LINE SMOOTH",
"564 142 OFFCURVE",
"579 157 OFFCURVE",
"579 184 CURVE SMOOTH",
"579 208 OFFCURVE",
"564 226 OFFCURVE",
"537 226 CURVE",
"126 224 LINE",
"133 203 LINE",
"429 604 LINE",
"396 580 LINE",
"395 42 LINE SMOOTH",
"395 15 OFFCURVE",
"410 0 OFFCURVE",
"437 0 CURVE SMOOTH"
);
}
);
width = 623;
}
);
leftKerningGroup = four;
rightKerningGroup = four;
unicode = 0034;
},
{
color = 4;
glyphname = five;
lastChange = "2016-07-31 01:33:48 +0000";
layers = (
{
layerId = "9D2B49D7-8C02-48EB-8D57-D561CCF616AE";
paths = (
{
closed = 1;
nodes = (
"385.007 0 LINE SMOOTH",
"517 0 OFFCURVE",
"580 63 OFFCURVE",
"580.007 195 CURVE SMOOTH",
"580.007 264 LINE SMOOTH",
"580 396 OFFCURVE",
"517 459 OFFCURVE",
"385.007 459 CURVE SMOOTH",
"311.007 459 LINE SMOOTH",
"262 459 OFFCURVE",
"221 453 OFFCURVE",
"187 441 CURVE",
"187 594 LINE",
"538 594 LINE SMOOTH",
"565 594 OFFCURVE",
"580 609 OFFCURVE",
"580 636 CURVE SMOOTH",
"580 663 OFFCURVE",
"565 678 OFFCURVE",
"538 678 CURVE SMOOTH",
"145 678 LINE SMOOTH",
"118 678 OFFCURVE",
"103 663 OFFCURVE",
"103 636 CURVE SMOOTH",
"103 394 LINE SMOOTH",
"103 369 OFFCURVE",
"114 354 OFFCURVE",
"138 347 CURVE SMOOTH",
"148 344 LINE SMOOTH",
"170 337 OFFCURVE",
"184 345 OFFCURVE",
"204 357 CURVE SMOOTH",
"226 369 OFFCURVE",
"261 375 OFFCURVE",
"311.007 375 CURVE SMOOTH",
"385.007 375 LINE SMOOTH",
"470 375 OFFCURVE",
"496 350 OFFCURVE",
"496.007 264 CURVE SMOOTH",
"496.007 195 LINE SMOOTH",
"496 110 OFFCURVE",
"471 84 OFFCURVE",
"385.007 84 CURVE SMOOTH",
"281.007 84 LINE SMOOTH",
"210 84 OFFCURVE",
"181 101 OFFCURVE",
"172 153 CURVE SMOOTH",
"169 180 OFFCURVE",
"156 194 OFFCURVE",
"129 194 CURVE SMOOTH",
"101 194 OFFCURVE",
"85 178 OFFCURVE",
"88 150 CURVE SMOOTH",
"101 48 OFFCURVE",
"164 0 OFFCURVE",
"281.007 0 CURVE SMOOTH"
);
}
);
width = 668;
}
);
leftKerningGroup = five;
rightKerningGroup = fve;
unicode = 0035;
},
{
color = 4;
glyphname = six;
lastChange = "2016-07-31 01:33:48 +0000";
layers = (
{
layerId = "9D2B49D7-8C02-48EB-8D57-D561CCF616AE";
paths = (
{
closed = 1;
nodes = (
"387 0 LINE SMOOTH",
"519 0 OFFCURVE",
"582 62 OFFCURVE",
"582 195 CURVE SMOOTH",
"582 262 LINE SMOOTH",
"582 394 OFFCURVE",
"519 457 OFFCURVE",
"387 457 CURVE SMOOTH",
"283 457 LINE SMOOTH",
"234 457 OFFCURVE",
"197 440 OFFCURVE",
"172 410 CURVE",
"172 493 LINE SMOOTH",
"172 571 OFFCURVE",
"194 594 OFFCURVE",
"273 594 CURVE SMOOTH",
"397 594 LINE SMOOTH",
"460 594 OFFCURVE",
"487 580 OFFCURVE",
"495 535 CURVE SMOOTH",
"499 508 OFFCURVE",
"512 494 OFFCURVE",
"539 494 CURVE SMOOTH",
"567 494 OFFCURVE",
"583 509 OFFCURVE",
"579 538 CURVE SMOOTH",
"566 632 OFFCURVE",
"506 678 OFFCURVE",
"397 678 CURVE SMOOTH",
"273 678 LINE SMOOTH",
"148 678 OFFCURVE",
"88 618 OFFCURVE",
"88 493 CURVE SMOOTH",
"88 194 LINE SMOOTH",
"88 62 OFFCURVE",
"150 0 OFFCURVE",
"283 0 CURVE SMOOTH"
);
},
{
closed = 1;
nodes = (
"197 84 OFFCURVE",
"172 109 OFFCURVE",
"172 194 CURVE SMOOTH",
"172 263 LINE SMOOTH",
"172 347 OFFCURVE",
"197 373 OFFCURVE",
"283 373 CURVE SMOOTH",
"387 373 LINE SMOOTH",
"472 373 OFFCURVE",
"498 348 OFFCURVE",
"498 262 CURVE SMOOTH",
"498 195 LINE SMOOTH",
"498 110 OFFCURVE",
"473 84 OFFCURVE",
"387 84 CURVE SMOOTH",
"283 84 LINE SMOOTH"
);
}
);
width = 670;
}
);
leftKerningGroup = six;
rightKerningGroup = sx;
unicode = 0036;
},
{
color = 4;
glyphname = seven;
lastChange = "2016-07-31 01:33:48 +0000";
layers = (
{
layerId = "9D2B49D7-8C02-48EB-8D57-D561CCF616AE";
paths = (
{
closed = 1;
nodes = (
"224 0 OFFCURVE",
"238 15 OFFCURVE",
"239 44 CURVE SMOOTH",
"242 213 OFFCURVE",
"267 268 OFFCURVE",
"355 329 CURVE SMOOTH",
"447 399 OFFCURVE",
"487 493 OFFCURVE",
"487 636 CURVE SMOOTH",
"487 663 OFFCURVE",
"472 678 OFFCURVE",
"445 678 CURVE SMOOTH",
"86 678 LINE SMOOTH",
"59 678 OFFCURVE",
"44 663 OFFCURVE",
"44 636 CURVE SMOOTH",
"44 609 OFFCURVE",
"59 594 OFFCURVE",
"86 594 CURVE SMOOTH",
"402 594 LINE",
"396 502 OFFCURVE",
"366 444 OFFCURVE",
"306 397 CURVE SMOOTH",
"197 321 OFFCURVE",
"159 249 OFFCURVE",
"155 44 CURVE SMOOTH",
"154 15 OFFCURVE",
"169.002 0 OFFCURVE",
"196 0 CURVE SMOOTH"
);
}
);
width = 531;
}
);
leftKerningGroup = seven;
rightKerningGroup = seven;
unicode = 0037;
},
{
color = 4;
glyphname = eight;
lastChange = "2016-07-31 01:33:48 +0000";
layers = (
{
layerId = "9D2B49D7-8C02-48EB-8D57-D561CCF616AE";
paths = (
{
closed = 1;
nodes = (
"554 384 OFFCURVE",
"576 432 OFFCURVE",
"576 496 CURVE SMOOTH",
"576 619 OFFCURVE",
"516 678 OFFCURVE",
"391 678 CURVE SMOOTH",
"294 678 LINE SMOOTH",
"169 678 OFFCURVE",
"109 619 OFFCURVE",
"109 496 CURVE SMOOTH",
"109 434 OFFCURVE",
"131 387 OFFCURVE",
"175 354 CURVE",
"116 323 OFFCURVE",
"88 270 OFFCURVE",
"88 194 CURVE SMOOTH",
"88 62 OFFCURVE",
"150 0 OFFCURVE",
"283 0 CURVE SMOOTH",
"397 0 LINE SMOOTH",
"530 0 OFFCURVE",
"592 62 OFFCURVE",
"592 194 CURVE SMOOTH",
"592 268 OFFCURVE",
"565 320 OFFCURVE",
"508 352 CURVE"
);
},
{
closed = 1;
nodes = (
"391 594 LINE SMOOTH",
"470 594 OFFCURVE",
"492 571 OFFCURVE",
"492 496 CURVE SMOOTH",
"492 426 OFFCURVE",
"478 387 OFFCURVE",
"392 387 CURVE",
"278 388 LINE",
"217 388 OFFCURVE",
"193 412 OFFCURVE",
"193 496 CURVE SMOOTH",
"193 571 OFFCURVE",
"215 594 OFFCURVE",
"294 594 CURVE SMOOTH"
);
},
{
closed = 1;
nodes = (
"283 84 LINE SMOOTH",
"197 84 OFFCURVE",
"172 109 OFFCURVE",
"172 194 CURVE SMOOTH",
"172 279 OFFCURVE",
"197 304 OFFCURVE",
"283 304 CURVE",
"397 304 LINE",
"483 304 OFFCURVE",
"508 279 OFFCURVE",
"508 194 CURVE SMOOTH",
"508 109 OFFCURVE",
"483 84 OFFCURVE",
"397 84 CURVE SMOOTH"
);
}
);
width = 680;
}
);
leftKerningGroup = eight;
rightKerningGroup = eght;
unicode = 0038;
},
{
color = 4;
glyphname = onesuperior;
lastChange = "2016-07-31 01:34:07 +0000";
layers = (
{
layerId = "9D2B49D7-8C02-48EB-8D57-D561CCF616AE";
paths = (
{
closed = 1;
nodes = (
"212 298 OFFCURVE",
"227 312 OFFCURVE",
"227 340 CURVE SMOOTH",
"227 650 LINE SMOOTH",
"227 669 OFFCURVE",
"216 678 OFFCURVE",
"197 678 CURVE SMOOTH",
"175 678 OFFCURVE",
"164 675 OFFCURVE",
"145 657 CURVE SMOOTH",
"67 580 LINE SMOOTH",
"47 562 OFFCURVE",
"47 541 OFFCURVE",
"66 521 CURVE SMOOTH",
"85 502 OFFCURVE",
"106 501 OFFCURVE",
"125 520 CURVE SMOOTH",
"158 552 LINE",
"143 544 LINE",
"143 340 LINE SMOOTH",
"143 312 OFFCURVE",
"157 298 OFFCURVE",
"185 298 CURVE SMOOTH"
);
}
);
width = 287;
}
);
leftKerningGroup = onesuperior;
leftMetricsKey = one;
rightKerningGroup = onesuperor;
rightMetricsKey = "=one-40";
unicode = 00B9;
},
{
color = 4;
glyphname = twosuperior;
lastChange = "2016-07-31 01:34:07 +0000";
layers = (
{
layerId = "9D2B49D7-8C02-48EB-8D57-D561CCF616AE";
paths = (
{
closed = 1;
nodes = (
"306 298 OFFCURVE",
"320 312 OFFCURVE",
"320 337 CURVE SMOOTH",
"320 363 OFFCURVE",
"306 376 OFFCURVE",
"280 376 CURVE SMOOTH",
"141 376 LINE",
"152 400 OFFCURVE",
"174 414 OFFCURVE",
"211 437 CURVE SMOOTH",
"259 467 OFFCURVE",
"312 495 OFFCURVE",
"312 567 CURVE",
"312 636 OFFCURVE",
"276 672 OFFCURVE",
"207 672 CURVE SMOOTH",
"157 672 LINE SMOOTH",
"97 672 OFFCURVE",
"60 647 OFFCURVE",
"47 600 CURVE SMOOTH",
"41 573 OFFCURVE",
"58 558 OFFCURVE",
"84 558 CURVE SMOOTH",
"103 558 OFFCURVE",
"107 564 OFFCURVE",
"128 591 CURVE SMOOTH",
"133 594 OFFCURVE",
"143 594 OFFCURVE",
"157 594 CURVE SMOOTH",
"207 594 LINE SMOOTH",
"233 594 OFFCURVE",
"234 592 OFFCURVE",
"234 567 CURVE SMOOTH",
"234 543 OFFCURVE",
"220 535 OFFCURVE",
"169 503 CURVE SMOOTH",
"119 472 OFFCURVE",
"57 436 OFFCURVE",
"57 337 CURVE SMOOTH",
"57 311 OFFCURVE",
"73 298 OFFCURVE",
"97 298 CURVE SMOOTH",
"280 298 LINE SMOOTH"
);
}
);
width = 374;
}
);
leftKerningGroup = twosuperior;
leftMetricsKey = two;
rightKerningGroup = twosuperor;
rightMetricsKey = two;
unicode = 00B2;
},
{
color = 4;
glyphname = threesuperior;
lastChange = "2016-07-31 01:33:48 +0000";
layers = (
{
layerId = "9D2B49D7-8C02-48EB-8D57-D561CCF616AE";
paths = (
{
closed = 1;
nodes = (
"232 301 LINE SMOOTH",
"308 301 OFFCURVE",
"348 340 OFFCURVE",
"348 416 CURVE SMOOTH",
"348 493 OFFCURVE",
"309 532 OFFCURVE",
"232 532 CURVE SMOOTH",
"211 532 LINE SMOOTH",
"186 532 OFFCURVE",
"172 518 OFFCURVE",
"172 493 CURVE SMOOTH",
"172 467 OFFCURVE",
"186 453 OFFCURVE",
"211 453 CURVE SMOOTH",
"232 453 LINE SMOOTH",
"266 453 OFFCURVE",
"270 449 OFFCURVE",
"270 416 CURVE SMOOTH",
"270 385 OFFCURVE",
"266 379 OFFCURVE",
"232 379 CURVE SMOOTH",
"176 379 LINE SMOOTH",
"160 379 OFFCURVE",
"151 379 OFFCURVE",
"145 382 CURVE SMOOTH",
"125 410 OFFCURVE",
"125 416 OFFCURVE",
"102 416 CURVE SMOOTH",
"76 416 OFFCURVE",
"59 401 OFFCURVE",
"65 374 CURVE SMOOTH",
"77 326 OFFCURVE",
"115 301 OFFCURVE",
"176 301 CURVE SMOOTH"
);
},
{
closed = 1;
nodes = (
"304 492 OFFCURVE",
"341 526 OFFCURVE",
"341 577 CURVE SMOOTH",
"341 636 OFFCURVE",
"304 675 OFFCURVE",
"230 675 CURVE SMOOTH",
"178 675 LINE SMOOTH",
"121 675 OFFCURVE",
"83 651 OFFCURVE",
"71 604 CURVE SMOOTH",
"65 579 OFFCURVE",
"79 563 OFFCURVE",
"111 563 CURVE SMOOTH",
"133 563 OFFCURVE",
"136 577 OFFCURVE",
"153 595 CURVE",
"158 596 OFFCURVE",
"166 597 OFFCURVE",
"178 597 CURVE SMOOTH",
"230 597 LINE SMOOTH",
"258 597 OFFCURVE",
"263 594 OFFCURVE",
"263 563 CURVE SMOOTH",
"263 546 OFFCURVE",
"254 532 OFFCURVE",
"229 532 CURVE",
"229 494 LINE"
);
}
);
width = 396;
}
);
leftKerningGroup = threesuperior;
leftMetricsKey = three;
rightKerningGroup = threesuperor;
rightMetricsKey = "=three-40";
unicode = 00B3;
},
{
color = 4;
glyphname = foursuperior;
lastChange = "2016-07-31 01:33:48 +0000";
layers = (
{
layerId = "9D2B49D7-8C02-48EB-8D57-D561CCF616AE";
paths = (
{
closed = 1;
nodes = (
"297 298 OFFCURVE",
"311 312 OFFCURVE",
"311 337 CURVE SMOOTH",
"313 639 LINE SMOOTH",
"313 664 OFFCURVE",
"302 678 OFFCURVE",
"279 678 CURVE SMOOTH",
"259 678 OFFCURVE",
"245 669 OFFCURVE",
"232 654 CURVE SMOOTH",
"60 445 LINE SMOOTH",
"49 430 OFFCURVE",
"44 419 OFFCURVE",
"44 406 CURVE SMOOTH",
"44 381 OFFCURVE",
"58 367 OFFCURVE",
"83 367 CURVE SMOOTH",
"346 367 LINE SMOOTH",
"371 367 OFFCURVE",
"385 381 OFFCURVE",
"385 406 CURVE SMOOTH",
"385 434 OFFCURVE",
"371 446 OFFCURVE",
"346 446 CURVE",
"105 446 LINE",
"111 404 LINE",
"263 582 LINE",
"235 598 LINE",
"233 337 LINE SMOOTH",
"233 312 OFFCURVE",
"247 298 OFFCURVE",
"272 298 CURVE SMOOTH"
);
}
);
width = 429;
}
);
leftKerningGroup = foursuperior;
leftMetricsKey = four;
rightKerningGroup = foursuperor;
rightMetricsKey = four;
unicode = 2074;
},
{
color = 4;
glyphname = fraction;
lastChange = "2016-07-31 01:33:48 +0000";
layers = (
{
layerId = "9D2B49D7-8C02-48EB-8D57-D561CCF616AE";
paths = (
{
closed = 1;
nodes = (
"-118 -20 OFFCURVE",
"-106 -13 OFFCURVE",
"-98 -3 CURVE SMOOTH",
"363 607 LINE SMOOTH",
"368 614 OFFCURVE",
"371 624 OFFCURVE",
"371 633 CURVE SMOOTH",
"371 656 OFFCURVE",
"352 675 OFFCURVE",
"329 675 CURVE SMOOTH",
"315 675 OFFCURVE",
"303 668 OFFCURVE",
"295 658 CURVE SMOOTH",
"-166 48 LINE SMOOTH",
"-171 41 OFFCURVE",
"-174 31 OFFCURVE",
"-174 22 CURVE SMOOTH",
"-174 -1 OFFCURVE",
"-155 -20 OFFCURVE",
"-132 -20 CURVE SMOOTH"
);
}
);
width = 271;
}
);
leftKerningGroup = fraction;
rightKerningGroup = fracton;
unicode = 2044;
},
{
export = 0;
glyphname = "zero-kayahli";
lastChange = "2016-07-31 01:33:48 +0000";
layers = (
{
layerId = "9D2B49D7-8C02-48EB-8D57-D561CCF616AE";
paths = (
{
closed = 1;
nodes = (
"428 -21 LINE SMOOTH",
"517 -21 OFFCURVE",
"544 23 OFFCURVE",
"544 124 CURVE SMOOTH",
"544 337 LINE SMOOTH",
"544 438 OFFCURVE",
"517 482 OFFCURVE",
"428 482 CURVE SMOOTH",
"174 482 LINE SMOOTH",
"86 482 OFFCURVE",
"58 438 OFFCURVE",
"58 337 CURVE SMOOTH",
"58 124 LINE SMOOTH",
"58 23 OFFCURVE",
"86 -21 OFFCURVE",
"174 -21 CURVE SMOOTH"
);
},
{
closed = 1;
nodes = (
"149 63 OFFCURVE",
"142 71 OFFCURVE",
"142 108 CURVE SMOOTH",
"142 352 LINE SMOOTH",
"142 389 OFFCURVE",
"149 397 OFFCURVE",
"181 397 CURVE SMOOTH",
"421 397 LINE SMOOTH",
"454 397 OFFCURVE",
"460 389 OFFCURVE",
"460 352 CURVE SMOOTH",
"460 108 LINE SMOOTH",
"460 71 OFFCURVE",
"454 63 OFFCURVE",
"421 63 CURVE SMOOTH",
"181 63 LINE SMOOTH"
);
}
);
width = 603;
}
);
leftKerningGroup = "zero-kayahli";
rightKerningGroup = "zero-kayahl";
unicode = A900;
},
{
color = 4;
glyphname = asterisk;
lastChange = "2016-07-31 01:33:48 +0000";
layers = (
{
layerId = "9D2B49D7-8C02-48EB-8D57-D561CCF616AE";
paths = (
{
closed = 1;
nodes = (
"225 351 OFFCURVE",
"235 363 OFFCURVE",
"235 386 CURVE SMOOTH",
"235 600 LINE SMOOTH",
"235 622 OFFCURVE",
"225 635 OFFCURVE",
"200 635 CURVE SMOOTH",
"178 635 OFFCURVE",
"165 622 OFFCURVE",
"165 600 CURVE SMOOTH",
"165 386 LINE SMOOTH",
"165 363 OFFCURVE",
"178 351 OFFCURVE",
"200 351 CURVE SMOOTH"
);
},
{
closed = 1;
nodes = (
"311 516 LINE SMOOTH",
"332 528 OFFCURVE",
"335 545 OFFCURVE",
"323 564 CURVE SMOOTH",
"312 583 OFFCURVE",
"297 587 OFFCURVE",
"276 576 CURVE SMOOTH",
"91 469 LINE SMOOTH",
"71 458 OFFCURVE",
"66 441 OFFCURVE",
"77 422 CURVE SMOOTH",
"89 403 OFFCURVE",
"106 398 OFFCURVE",
"126 409 CURVE SMOOTH"
);
},
{
closed = 1;
nodes = (
"297 398 OFFCURVE",
"312 403 OFFCURVE",
"323 422 CURVE SMOOTH",
"335 441 OFFCURVE",
"332 458 OFFCURVE",
"311 469 CURVE SMOOTH",
"126 576 LINE SMOOTH",
"106 587 OFFCURVE",
"89 583 OFFCURVE",
"77 564 CURVE SMOOTH",
"66 545 OFFCURVE",
"71 528 OFFCURVE",
"91 516 CURVE SMOOTH",
"276 409 LINE SMOOTH"
);
}
);
width = 402;
}
);
leftKerningGroup = asterisk;
rightKerningGroup = astersk;
unicode = 002A;
},
{
color = 5;
glyphname = comma;
lastChange = "2016-07-31 01:33:48 +0000";
layers = (
{
components = (
{
name = period;
transform = "{1, 0, 0, 1, -12, 0}";
}
);
layerId = "9D2B49D7-8C02-48EB-8D57-D561CCF616AE";
paths = (
{
closed = 1;
nodes = (
"94 -127 OFFCURVE",
"105 -118 OFFCURVE",
"112 -105 CURVE SMOOTH",
"171 21 LINE",
"73 73 LINE",
"44 -92 LINE SMOOTH",
"40 -118 OFFCURVE",
"60 -127 OFFCURVE",
"79 -127 CURVE SMOOTH"
);
}
);
width = 258;
}
);
leftKerningGroup = period;
rightKerningGroup = perod;
rightMetricsKey = period;
unicode = 002C;
},
{
color = 5;
glyphname = exclam;
lastChange = "2016-07-31 01:33:48 +0000";
layers = (
{
components = (
{
name = period;
}
);
layerId = "9D2B49D7-8C02-48EB-8D57-D561CCF616AE";
paths = (
{
closed = 1;
nodes = (
"164 126 OFFCURVE",
"178 140 OFFCURVE",
"178 168 CURVE SMOOTH",
"178 663 LINE SMOOTH",
"178 691 OFFCURVE",
"164 705 OFFCURVE",
"136 705 CURVE SMOOTH",
"108 705 OFFCURVE",
"94 691 OFFCURVE",
"94 663 CURVE SMOOTH",
"94 168 LINE SMOOTH",
"94 140 OFFCURVE",
"108 126 OFFCURVE",
"136 126 CURVE SMOOTH"
);
}
);
width = 270;
}
);
leftKerningGroup = exclam;
leftMetricsKey = period;
rightKerningGroup = exclam;
rightMetricsKey = period;
unicode = 0021;
},
{
color = 5;
glyphname = numbersign;
lastChange = "2016-07-31 01:33:48 +0000";
layers = (
{
layerId = "9D2B49D7-8C02-48EB-8D57-D561CCF616AE";
paths = (
{
closed = 1;
nodes = (
"146 -13 OFFCURVE",
"161 -2 OFFCURVE",
"164 13 CURVE SMOOTH",
"215 198 LINE",
"323 198 LINE",
"276 32 LINE SMOOTH",
"275 29 OFFCURVE",
"275 25 OFFCURVE",
"275 22 CURVE SMOOTH",
"275 3 OFFCURVE",
"291 -13 OFFCURVE",
"310 -13 CURVE SMOOTH",
"326 -13 OFFCURVE",
"341 -2 OFFCURVE",
"344 13 CURVE SMOOTH",
"395 198 LINE",
"506 198 LINE SMOOTH",
"525 198 OFFCURVE",
"541 214 OFFCURVE",
"541 233 CURVE SMOOTH",
"541 252 OFFCURVE",
"525 268 OFFCURVE",
"506 268 CURVE SMOOTH",
"416 268 LINE",
"451 398 LINE",
"562 398 LINE SMOOTH",
"581 398 OFFCURVE",
"597 414 OFFCURVE",
"597 433 CURVE SMOOTH",
"597 452 OFFCURVE",
"581 468 OFFCURVE",
"562 468 CURVE SMOOTH",
"470 468 LINE",
"514 623 LINE SMOOTH",
"515 626 OFFCURVE",
"515 630 OFFCURVE",
"515 633 CURVE SMOOTH",
"515 652 OFFCURVE",
"499 668 OFFCURVE",
"480 668 CURVE SMOOTH",
"464 668 OFFCURVE",
"449 657 OFFCURVE",
"446 642 CURVE SMOOTH",
"398 468 LINE",
"290 468 LINE",
"334 623 LINE SMOOTH",
"335 626 OFFCURVE",
"335 630 OFFCURVE",
"335 633 CURVE SMOOTH",
"335 652 OFFCURVE",
"319 668 OFFCURVE",
"300 668 CURVE SMOOTH",
"284 668 OFFCURVE",
"269 657 OFFCURVE",
"266 642 CURVE SMOOTH",
"218 468 LINE",
"135 468 LINE SMOOTH",
"116 468 OFFCURVE",
"100 452 OFFCURVE",
"100 433 CURVE SMOOTH",
"100 414 OFFCURVE",
"116 398 OFFCURVE",
"135 398 CURVE SMOOTH",
"199 398 LINE",
"162 268 LINE",
"79 268 LINE SMOOTH",
"60 268 OFFCURVE",
"44 252 OFFCURVE",
"44 233 CURVE SMOOTH",
"44 214 OFFCURVE",
"60 198 OFFCURVE",
"79 198 CURVE SMOOTH",
"143 198 LINE",
"96 32 LINE SMOOTH",
"95 29 OFFCURVE",
"95 25 OFFCURVE",
"95 22 CURVE SMOOTH",
"95 3 OFFCURVE",
"111 -13 OFFCURVE",
"130 -13 CURVE SMOOTH"
);
},
{
closed = 1;
nodes = (
"271 398 LINE",
"379 398 LINE",
"342 268 LINE",
"236 268 LINE"
);
}
);
width = 621;
}
);
leftKerningGroup = numbersign;
rightKerningGroup = numbersgn;
unicode = 0023;
},
{
color = 5;
glyphname = period;
lastChange = "2016-07-31 01:33:48 +0000";
layers = (
{
layerId = "9D2B49D7-8C02-48EB-8D57-D561CCF616AE";
paths = (
{
closed = 1;
nodes = (
"148 0 LINE SMOOTH",
"173 0 OFFCURVE",
"186 15 OFFCURVE",
"186 40 CURVE SMOOTH",
"186 65 LINE SMOOTH",
"186 91 OFFCURVE",
"173 104 OFFCURVE",
"148 104 CURVE SMOOTH",
"124 104 LINE SMOOTH",
"99 104 OFFCURVE",
"84 91 OFFCURVE",
"84 65 CURVE SMOOTH",
"84 40 LINE SMOOTH",
"84 15 OFFCURVE",
"99 0 OFFCURVE",
"124 0 CURVE SMOOTH"
);
}
);
width = 270;
}
);
leftKerningGroup = period;
rightKerningGroup = perod;
unicode = 002E;
},
{
color = 5;
glyphname = question;
lastChange = "2016-07-31 01:34:07 +0000";
layers = (
{
components = (
{
name = period;
transform = "{1, 0, 0, 1, 102, 0}";
}
);
layerId = "9D2B49D7-8C02-48EB-8D57-D561CCF616AE";
paths = (
{
closed = 1;
nodes = (
"266 166 OFFCURVE",
"280 180 OFFCURVE",
"280 208 CURVE SMOOTH",
"280 264 OFFCURVE",
"304 277 OFFCURVE",
"348 303 CURVE SMOOTH",
"391 327 OFFCURVE",
"457 363 OFFCURVE",
"457 469 CURVE SMOOTH",
"457 594 OFFCURVE",
"397 654 OFFCURVE",
"272 654 CURVE SMOOTH",
"205 654 LINE SMOOTH",
"81 654 OFFCURVE",
"20 593 OFFCURVE",
"20 469 CURVE SMOOTH",
"20 441 OFFCURVE",
"34 427 OFFCURVE",
"62 427 CURVE SMOOTH",
"90 427 OFFCURVE",
"104 441 OFFCURVE",
"104 469 CURVE SMOOTH",
"104 546 OFFCURVE",
"126 570 OFFCURVE",
"205 570 CURVE SMOOTH",
"272 570 LINE SMOOTH",
"351 570 OFFCURVE",
"373 548 OFFCURVE",
"373 469 CURVE SMOOTH",
"373 413 OFFCURVE",
"349 400 OFFCURVE",
"305 374 CURVE SMOOTH",
"262 350 OFFCURVE",
"196 314 OFFCURVE",
"196 208 CURVE SMOOTH",
"196 180 OFFCURVE",
"210 166 OFFCURVE",
"238 166 CURVE SMOOTH"
);
}
);
width = 511;
}
);
leftKerningGroup = quesion;
rightKerningGroup = queston;
rightMetricsKey = two;
unicode = 003F;
},
{
color = 5;
glyphname = quotesingle;
layers = (
{
layerId = "9D2B49D7-8C02-48EB-8D57-D561CCF616AE";
paths = (
{
closed = 1;
nodes = (
"138 449 OFFCURVE",
"154 465 OFFCURVE",
"154 484 CURVE SMOOTH",
"154 688 LINE SMOOTH",
"154 707 OFFCURVE",
"138 723 OFFCURVE",
"119 723 CURVE SMOOTH",
"100 723 OFFCURVE",
"84 707 OFFCURVE",
"84 688 CURVE SMOOTH",
"84 484 LINE SMOOTH",
"84 465 OFFCURVE",
"100 449 OFFCURVE",
"119 449 CURVE SMOOTH"
);
}
);
width = 238;
}
);
leftKerningGroup = quotesingle;
leftMetricsKey = period;
rightKerningGroup = quotesngle;
rightMetricsKey = period;
unicode = 0027;
},
{
color = 5;
glyphname = slash;
lastChange = "2016-07-31 01:33:48 +0000";
layers = (
{
layerId = "9D2B49D7-8C02-48EB-8D57-D561CCF616AE";
paths = (
{
closed = 1;
nodes = (
"100 -153 OFFCURVE",
"114 -142 OFFCURVE",
"120 -120 CURVE SMOOTH",
"324 676 LINE SMOOTH",
"334 707 OFFCURVE",
"316 730 OFFCURVE",
"284 730 CURVE SMOOTH",
"262 730 OFFCURVE",
"250 719 OFFCURVE",
"243 697 CURVE SMOOTH",
"38 -99 LINE SMOOTH",
"30 -131 OFFCURVE",
"47 -153 OFFCURVE",
"79 -153 CURVE SMOOTH"
);
}
);
width = 322;
}
);
leftKerningGroup = slash;
rightKerningGroup = slash;
unicode = 002F;
},
{
color = 5;
glyphname = braceleft;
lastChange = "2016-07-31 01:33:48 +0000";
layers = (
{
layerId = "9D2B49D7-8C02-48EB-8D57-D561CCF616AE";
paths = (
{
closed = 1;
nodes = (
"332 -175 OFFCURVE",
"348 -159 OFFCURVE",
"348 -140 CURVE SMOOTH",
"348 -121 OFFCURVE",
"332 -105 OFFCURVE",
"313 -105 CURVE SMOOTH",
"230 -105 OFFCURVE",
"214 -87 OFFCURVE",
"214 4 CURVE SMOOTH",
"214 189 LINE SMOOTH",
"214 210 OFFCURVE",
"205 225 OFFCURVE",
"187 230 CURVE SMOOTH",
"138 246 LINE",
"138 246 LINE",
"187 263 LINE SMOOTH",
"205 269 OFFCURVE",
"214 283 OFFCURVE",
"214 304 CURVE SMOOTH",
"214 489 LINE SMOOTH",
"214 588 OFFCURVE",
"232 608 OFFCURVE",
"313 608 CURVE SMOOTH",
"332 608 OFFCURVE",
"348 624 OFFCURVE",
"348 643 CURVE SMOOTH",
"348 662 OFFCURVE",
"332 678 OFFCURVE",
"313 678 CURVE SMOOTH",
"189 678 OFFCURVE",
"144 626 OFFCURVE",
"144 489 CURVE SMOOTH",
"144 322 LINE",
"91 301 LINE SMOOTH",
"73 293 OFFCURVE",
"64 281 OFFCURVE",
"64 260 CURVE SMOOTH",
"64 232 LINE SMOOTH",
"64 211 OFFCURVE",
"73 199 OFFCURVE",
"91 191 CURVE SMOOTH",
"144 171 LINE",
"144 4 LINE SMOOTH",
"144 -125 OFFCURVE",
"190 -175 OFFCURVE",
"313 -175 CURVE SMOOTH"
);
}
);
width = 358;
}
);
leftKerningGroup = parenleft;
rightKerningGroup = parenleft;
unicode = 007B;
},
{
color = 5;
glyphname = bracketleft;
lastChange = "2016-07-31 01:33:48 +0000";
layers = (
{
layerId = "9D2B49D7-8C02-48EB-8D57-D561CCF616AE";
paths = (
{
closed = 1;
nodes = (
"183 -175 LINE SMOOTH",
"202 -175 OFFCURVE",
"218 -159 OFFCURVE",
"218 -140 CURVE SMOOTH",
"218 -121 OFFCURVE",
"202 -105 OFFCURVE",
"183 -105 CURVE SMOOTH",
"134 -105 LINE",
"134 608 LINE",
"183 608 LINE SMOOTH",
"202 608 OFFCURVE",
"218 624 OFFCURVE",
"218 643 CURVE SMOOTH",
"218 662 OFFCURVE",
"202 678 OFFCURVE",
"183 678 CURVE SMOOTH",
"99 678 LINE SMOOTH",
"77 678 OFFCURVE",
"64 665 OFFCURVE",
"64 643 CURVE SMOOTH",
"64 -140 LINE SMOOTH",
"64 -162 OFFCURVE",
"77 -175 OFFCURVE",
"99 -175 CURVE SMOOTH"
);
}
);
width = 228;
}
);
leftKerningGroup = parenleft;
rightKerningGroup = parenleft;
unicode = 005B;
},
{
color = 5;
glyphname = parenleft;
lastChange = "2016-07-31 01:33:48 +0000";
layers = (
{
layerId = "9D2B49D7-8C02-48EB-8D57-D561CCF616AE";
paths = (
{
closed = 1;
nodes = (
"272 -175 OFFCURVE",
"288 -159 OFFCURVE",
"288 -140 CURVE SMOOTH",
"288 -121 OFFCURVE",
"272 -105 OFFCURVE",
"253 -105 CURVE SMOOTH",
"164 -105 OFFCURVE",
"134 -67 OFFCURVE",
"134 54 CURVE SMOOTH",
"134 439 LINE SMOOTH",
"134 567 OFFCURVE",
"164 608 OFFCURVE",
"253 608 CURVE SMOOTH",
"272 608 OFFCURVE",
"288 624 OFFCURVE",
"288 643 CURVE SMOOTH",
"288 662 OFFCURVE",
"272 678 OFFCURVE",
"253 678 CURVE SMOOTH",
"122 678 OFFCURVE",
"64 603 OFFCURVE",
"64 439 CURVE SMOOTH",
"64 54 LINE SMOOTH",
"64 -103 OFFCURVE",
"122 -175 OFFCURVE",
"253 -175 CURVE SMOOTH"
);
}
);
width = 298;
}
);
leftKerningGroup = parenleft;
rightKerningGroup = parenleft;
unicode = 0028;
},
{
color = 5;
glyphname = braceleft.case;
lastChange = "2016-07-31 01:33:48 +0000";
layers = (
{
layerId = "9D2B49D7-8C02-48EB-8D57-D561CCF616AE";
paths = (
{
closed = 1;
nodes = (
"338 -75 OFFCURVE",
"348 -65 OFFCURVE",
"348 -40 CURVE SMOOTH",
"348 -15 OFFCURVE",
"338 -5 OFFCURVE",
"313 -5 CURVE SMOOTH",
"230 -5 OFFCURVE",
"214 13 OFFCURVE",
"214 104 CURVE SMOOTH",
"214 259 LINE SMOOTH",
"214 280 OFFCURVE",
"205 295 OFFCURVE",
"187 300 CURVE SMOOTH",
"138 316 LINE",
"138 318 LINE",
"187 333 LINE SMOOTH",
"205 338 OFFCURVE",
"214 353 OFFCURVE",
"214 374 CURVE SMOOTH",
"214 529 LINE SMOOTH",
"214 628 OFFCURVE",
"232 648 OFFCURVE",
"313 648 CURVE SMOOTH",
"338 648 OFFCURVE",
"348 658 OFFCURVE",
"348 683 CURVE SMOOTH",
"348 708 OFFCURVE",
"338 718 OFFCURVE",
"313 718 CURVE SMOOTH",
"189 718 OFFCURVE",
"144 666 OFFCURVE",
"144 529 CURVE SMOOTH",
"144 392 LINE",
"91 371 LINE SMOOTH",
"73 363 OFFCURVE",
"64 351 OFFCURVE",
"64 330 CURVE SMOOTH",
"64 302 LINE SMOOTH",
"64 281 OFFCURVE",
"73 269 OFFCURVE",
"91 261 CURVE SMOOTH",
"144 241 LINE",
"144 104 LINE SMOOTH",
"144 -25 OFFCURVE",
"190 -75 OFFCURVE",
"313 -75 CURVE SMOOTH"
);
}
);
width = 358;
}
);
leftKerningGroup = parenleft;
rightKerningGroup = parenleft;
},
{
color = 5;
glyphname = bracketleft.case;
lastChange = "2016-07-31 01:33:48 +0000";
layers = (
{
layerId = "9D2B49D7-8C02-48EB-8D57-D561CCF616AE";
paths = (
{
closed = 1;
nodes = (
"183 -75 LINE SMOOTH",
"202 -75 OFFCURVE",
"218 -59 OFFCURVE",
"218 -40 CURVE SMOOTH",
"218 -21 OFFCURVE",
"202 -5 OFFCURVE",
"183 -5 CURVE SMOOTH",
"134 -5 LINE",
"134 648 LINE",
"183 648 LINE SMOOTH",
"202 648 OFFCURVE",
"218 664 OFFCURVE",
"218 683 CURVE SMOOTH",
"218 702 OFFCURVE",
"202 718 OFFCURVE",
"183 718 CURVE SMOOTH",
"99 718 LINE SMOOTH",
"77 718 OFFCURVE",
"64 705 OFFCURVE",
"64 683 CURVE SMOOTH",
"64 -40 LINE SMOOTH",
"64 -62 OFFCURVE",
"77 -75 OFFCURVE",
"99 -75 CURVE SMOOTH"
);
}
);
width = 228;
}
);
leftKerningGroup = parenleft;
rightKerningGroup = parenleft;
},
{
color = 5;
glyphname = parenleft.case;
lastChange = "2016-07-31 01:33:48 +0000";
layers = (
{
layerId = "9D2B49D7-8C02-48EB-8D57-D561CCF616AE";
paths = (
{
closed = 1;
nodes = (
"272 -75 OFFCURVE",
"288 -59 OFFCURVE",
"288 -40 CURVE SMOOTH",
"288 -21 OFFCURVE",
"272 -5 OFFCURVE",
"253 -5 CURVE SMOOTH",
"164 -5 OFFCURVE",
"134 33 OFFCURVE",
"134 154 CURVE SMOOTH",
"134 479 LINE SMOOTH",
"134 607 OFFCURVE",
"164 648 OFFCURVE",
"253 648 CURVE SMOOTH",
"272 648 OFFCURVE",
"288 664 OFFCURVE",
"288 683 CURVE SMOOTH",
"288 702 OFFCURVE",
"272 718 OFFCURVE",
"253 718 CURVE SMOOTH",
"122 718 OFFCURVE",
"64 643 OFFCURVE",
"64 479 CURVE SMOOTH",
"64 154 LINE SMOOTH",
"64 -3 OFFCURVE",
"122 -75 OFFCURVE",
"253 -75 CURVE SMOOTH"
);
}
);
width = 298;
}
);
leftKerningGroup = parenleft;
rightKerningGroup = parenleft;
},
{
color = 5;
glyphname = emdash;
lastChange = "2016-07-31 01:33:48 +0000";
layers = (
{
layerId = "9D2B49D7-8C02-48EB-8D57-D561CCF616AE";
paths = (
{
closed = 1;
nodes = (
"734 234 LINE SMOOTH",
"753 234 OFFCURVE",
"769 250 OFFCURVE",
"769 269 CURVE SMOOTH",
"769 288 OFFCURVE",
"753 304 OFFCURVE",
"734 304 CURVE SMOOTH",
"119 304 LINE SMOOTH",
"100 304 OFFCURVE",
"84 288 OFFCURVE",
"84 269 CURVE SMOOTH",
"84 250 OFFCURVE",
"100 234 OFFCURVE",
"119 234 CURVE SMOOTH"
);
}
);
width = 853;
}
);
leftKerningGroup = hyphen;
leftMetricsKey = period;
rightKerningGroup = hyphen;
rightMetricsKey = period;
unicode = 2014;
},
{
color = 5;
glyphname = endash;
lastChange = "2016-07-31 01:33:48 +0000";
layers = (
{
layerId = "9D2B49D7-8C02-48EB-8D57-D561CCF616AE";
paths = (
{
closed = 1;
nodes = (
"490 236 LINE SMOOTH",
"513 236 OFFCURVE",
"525 249 OFFCURVE",
"525 271 CURVE SMOOTH",
"525 293 OFFCURVE",
"513 306 OFFCURVE",
"490 306 CURVE SMOOTH",
"119 306 LINE SMOOTH",
"97 306 OFFCURVE",
"84 293 OFFCURVE",
"84 271 CURVE SMOOTH",
"84 249 OFFCURVE",
"97 236 OFFCURVE",
"119 236 CURVE SMOOTH"
);
}
);
width = 609;
}
);
leftKerningGroup = hyphen;
leftMetricsKey = period;
rightKerningGroup = hyphen;
rightMetricsKey = period;
unicode = 2013;
},
{
color = 5;
glyphname = hyphen;
layers = (
{
layerId = "9D2B49D7-8C02-48EB-8D57-D561CCF616AE";
paths = (
{
closed = 1;
nodes = (
"395 235 LINE SMOOTH",
"414 235 OFFCURVE",
"430 251 OFFCURVE",
"430 270 CURVE SMOOTH",
"430 289 OFFCURVE",
"414 305 OFFCURVE",
"395 305 CURVE SMOOTH",
"119 305 LINE SMOOTH",
"100 305 OFFCURVE",
"84 289 OFFCURVE",
"84 270 CURVE SMOOTH",
"84 251 OFFCURVE",
"100 235 OFFCURVE",
"119 235 CURVE SMOOTH"
);
}
);
width = 514;
}
);
leftKerningGroup = hyphen;
leftMetricsKey = period;
rightKerningGroup = hyphen;
rightMetricsKey = period;
unicode = 002D;
},
{
color = 5;
glyphname = guilsinglleft;
lastChange = "2016-07-31 01:33:48 +0000";
layers = (
{
layerId = "9D2B49D7-8C02-48EB-8D57-D561CCF616AE";
paths = (
{
closed = 1;
nodes = (
"336 107 OFFCURVE",
"352 123 OFFCURVE",
"352 142 CURVE SMOOTH",
"352 153 OFFCURVE",
"346 162 OFFCURVE",
"338 169 CURVE SMOOTH",
"187 294 LINE",
"338 419 LINE SMOOTH",
"346 426 OFFCURVE",
"352 435 OFFCURVE",
"352 446 CURVE SMOOTH",
"352 465 OFFCURVE",
"336 481 OFFCURVE",
"317 481 CURVE SMOOTH",
"308 481 OFFCURVE",
"300 478 OFFCURVE",
"295 473 CURVE SMOOTH",
"109 319 LINE SMOOTH",
"89 303 OFFCURVE",
"89 285 OFFCURVE",
"109 269 CURVE SMOOTH",
"295 115 LINE SMOOTH",
"300 110 OFFCURVE",
"308 107 OFFCURVE",
"317 107 CURVE SMOOTH"
);
}
);
width = 446;
}
);
leftKerningGroup = guilsinglleft;
rightKerningGroup = gulsnglleft;
unicode = 2039;
},
{
color = 5;
glyphname = quotesinglbase;
lastChange = "2016-07-31 01:33:48 +0000";
layers = (
{
components = (
{
name = period;
transform = "{1, 0, 0, 1, -19, 0}";
}
);
layerId = "9D2B49D7-8C02-48EB-8D57-D561CCF616AE";
paths = (
{
closed = 1;
nodes = (
"95 -132 OFFCURVE",
"109 -124 OFFCURVE",
"113 -112 CURVE SMOOTH",
"165 24 LINE",
"99 51 LINE",
"47 -86 LINE SMOOTH",
"35 -116 OFFCURVE",
"60 -132 OFFCURVE",
"81 -132 CURVE SMOOTH"
);
}
);
width = 251;
}
);
leftKerningGroup = period;
leftMetricsKey = comma;
rightKerningGroup = perod;
rightMetricsKey = comma;
unicode = 201A;
},
{
color = 4;
glyphname = cedi;
lastChange = "2016-07-31 01:34:07 +0000";
layers = (
{
layerId = "9D2B49D7-8C02-48EB-8D57-D561CCF616AE";
paths = (
{
closed = 1;
nodes = (
"387 0 LINE SMOOTH",
"509 0 OFFCURVE",
"576 47 OFFCURVE",
"588 152 CURVE SMOOTH",
"591 180 OFFCURVE",
"576 196 OFFCURVE",
"548 196 CURVE SMOOTH",
"521 196 OFFCURVE",
"509 182 OFFCURVE",
"504 154 CURVE SMOOTH",
"492 99 OFFCURVE",
"462 84 OFFCURVE",
"387 84 CURVE SMOOTH",
"304 84 LINE SMOOTH",
"197 84 OFFCURVE",
"164 117 OFFCURVE",
"164 224 CURVE SMOOTH",
"164 418 LINE SMOOTH",
"164 526 OFFCURVE",
"198 558 OFFCURVE",
"303 558 CURVE SMOOTH",
"387 558 LINE SMOOTH",
"462 558 OFFCURVE",
"496 543 OFFCURVE",
"504 489 CURVE SMOOTH",
"507 461 OFFCURVE",
"521 447 OFFCURVE",
"548 447 CURVE SMOOTH",
"576 447 OFFCURVE",
"593 462 OFFCURVE",
"588 490 CURVE SMOOTH",
"569 595 OFFCURVE",
"509 642 OFFCURVE",
"387 642 CURVE SMOOTH",
"303 642 LINE SMOOTH",
"152 642 OFFCURVE",
"80 573 OFFCURVE",
"80 418 CURVE SMOOTH",
"80 224 LINE SMOOTH",
"80 71 OFFCURVE",
"152 0 OFFCURVE",
"304 0 CURVE SMOOTH"
);
},
{
closed = 1;
nodes = (
"383 -55 CURVE SMOOTH",
"383 710 LINE SMOOTH",
"383 732 OFFCURVE",
"370 745 OFFCURVE",
"348 745 CURVE SMOOTH",
"325 745 OFFCURVE",
"313 732 OFFCURVE",
"313 710 CURVE SMOOTH",
"313 -55 LINE SMOOTH",
"313 -78 OFFCURVE",
"325 -90 OFFCURVE",
"348 -90 CURVE SMOOTH",
"370 -90 OFFCURVE",
"383 -78 OFFCURVE"
);
}
);
width = 669;
}
);
leftKerningGroup = O;
leftMetricsKey = O;
rightKerningGroup = C;
rightMetricsKey = O;
unicode = 20B5;
},
{
color = 5;
glyphname = cent;
lastChange = "2016-07-31 01:33:48 +0000";
layers = (
{
layerId = "9D2B49D7-8C02-48EB-8D57-D561CCF616AE";
paths = (
{
closed = 1;
nodes = (
"298 49 LINE SMOOTH",
"407 49 OFFCURVE",
"462 92 OFFCURVE",
"462 185 CURVE SMOOTH",
"462 208 OFFCURVE",
"443 227 OFFCURVE",
"420 227 CURVE SMOOTH",
"397 227 OFFCURVE",
"378 208 OFFCURVE",
"378 185 CURVE SMOOTH",
"378 145 OFFCURVE",
"364 133 OFFCURVE",
"298 133 CURVE SMOOTH",
"242 133 LINE SMOOTH",
"164 133 OFFCURVE",
"144 155 OFFCURVE",
"144 229 CURVE SMOOTH",
"144 312 LINE SMOOTH",
"144 388 OFFCURVE",
"165 410 OFFCURVE",
"242 409 CURVE SMOOTH",
"298 409 LINE SMOOTH",
"364 409 OFFCURVE",
"378 397 OFFCURVE",
"378 357 CURVE SMOOTH",
"378 334 OFFCURVE",
"397 315 OFFCURVE",
"420 315 CURVE SMOOTH",
"443 315 OFFCURVE",
"462 334 OFFCURVE",
"462 357 CURVE SMOOTH",
"462 450 OFFCURVE",
"407 493 OFFCURVE",
"298 493 CURVE SMOOTH",
"242 493 LINE SMOOTH",
"118 494 OFFCURVE",
"60 435 OFFCURVE",
"60 312 CURVE SMOOTH",
"60 229 LINE SMOOTH",
"60 107 OFFCURVE",
"119 49 OFFCURVE",
"242 49 CURVE SMOOTH"
);
},
{
closed = 1;
nodes = (
"305 0 CURVE SMOOTH",
"305 541 LINE SMOOTH",
"305 565 OFFCURVE",
"294 576 OFFCURVE",
"270 576 CURVE SMOOTH",
"246 576 OFFCURVE",
"235 565 OFFCURVE",
"235 541 CURVE SMOOTH",
"235 0 LINE SMOOTH",
"235 -24 OFFCURVE",
"246 -35 OFFCURVE",
"270 -35 CURVE SMOOTH",
"294 -35 OFFCURVE",
"305 -24 OFFCURVE"
);
}
);
width = 502;
}
);
leftKerningGroup = o;
leftMetricsKey = "=c-20";
rightKerningGroup = c;
rightMetricsKey = "=c-20";
unicode = 00A2;
},
{
color = 4;
glyphname = colonsign;
lastChange = "2016-07-31 01:33:48 +0000";
layers = (
{
components = (
{
name = C;
}
);
layerId = "9D2B49D7-8C02-48EB-8D57-D561CCF616AE";
paths = (
{
closed = 1;
nodes = (
"231 -37 CURVE SMOOTH",
"421 701 LINE SMOOTH",
"425 718 OFFCURVE",
"418 729 OFFCURVE",
"403 735 CURVE SMOOTH",
"385 740 OFFCURVE",
"370 734 OFFCURVE",
"366 715 CURVE SMOOTH",
"175 -23 LINE SMOOTH",
"171 -41 OFFCURVE",
"178 -51 OFFCURVE",
"194 -57 CURVE SMOOTH",
"212 -62 OFFCURVE",
"226 -56 OFFCURVE"
);
},
{
closed = 1;
nodes = (
"365 -37 CURVE SMOOTH",
"555 701 LINE SMOOTH",
"559 718 OFFCURVE",
"552 729 OFFCURVE",
"537 735 CURVE SMOOTH",
"519 740 OFFCURVE",
"504 734 OFFCURVE",
"500 715 CURVE SMOOTH",
"309 -23 LINE SMOOTH",
"305 -41 OFFCURVE",
"312 -51 OFFCURVE",
"328 -57 CURVE SMOOTH",
"346 -62 OFFCURVE",
"360 -56 OFFCURVE"
);
}
);
width = 705;
}
);
leftKerningGroup = O;
rightKerningGroup = C;
unicode = 20A1;
},
{
color = 5;
glyphname = currency;
lastChange = "2016-07-31 01:33:48 +0000";
layers = (
{
layerId = "9D2B49D7-8C02-48EB-8D57-D561CCF616AE";
paths = (
{
closed = 1;
nodes = (
"178 133 CURVE SMOOTH",
"222 177 LINE",
"254 157 OFFCURVE",
"291 145 OFFCURVE",
"331 145 CURVE SMOOTH",
"372 145 OFFCURVE",
"410 157 OFFCURVE",
"442 178 CURVE",
"485 134 LINE SMOOTH",
"493 126 OFFCURVE",
"503 121 OFFCURVE",
"515 121 CURVE SMOOTH",
"538 121 OFFCURVE",
"557 140 OFFCURVE",
"557 163 CURVE SMOOTH",
"557 174 OFFCURVE",
"552 185 OFFCURVE",
"545 192 CURVE SMOOTH",
"501 237 LINE",
"522 269 OFFCURVE",
"533 307 OFFCURVE",
"533 347 CURVE SMOOTH",
"533 387 OFFCURVE",
"521 425 OFFCURVE",
"500 457 CURVE",
"545 502 LINE SMOOTH",
"553 510 OFFCURVE",
"557 520 OFFCURVE",
"557 531 CURVE SMOOTH",
"557 554 OFFCURVE",
"538 573 OFFCURVE",
"515 573 CURVE SMOOTH",
"504 573 OFFCURVE",
"493 568 OFFCURVE",
"486 561 CURVE SMOOTH",
"441 516 LINE",
"409 536 OFFCURVE",
"372 548 OFFCURVE",
"331 548 CURVE SMOOTH",
"291.009 548 OFFCURVE",
"254 536 OFFCURVE",
"222 516 CURVE",
"179 559 LINE SMOOTH",
"172 567 OFFCURVE",
"161 572 OFFCURVE",
"149 572 CURVE SMOOTH",
"126 572 OFFCURVE",
"107 553 OFFCURVE",
"107 530 CURVE SMOOTH",
"107 518 OFFCURVE",
"112 508 OFFCURVE",
"120 500 CURVE SMOOTH",
"163 456 LINE",
"142 424 OFFCURVE",
"130 387 OFFCURVE",
"130 347 CURVE SMOOTH",
"130 307 OFFCURVE",
"142 269 OFFCURVE",
"163 237 CURVE",
"118 193 LINE SMOOTH",
"111 185 OFFCURVE",
"106 175 OFFCURVE",
"106 163 CURVE SMOOTH",
"106 140 OFFCURVE",
"125 121 OFFCURVE",
"148 121 CURVE SMOOTH",
"160 121 OFFCURVE",
"170 126 OFFCURVE"
);
},
{
closed = 1;
nodes = (
"214 347 CURVE SMOOTH",
"214 411 OFFCURVE",
"268 464 OFFCURVE",
"331 464 CURVE SMOOTH",
"396.01 464 OFFCURVE",
"449 411 OFFCURVE",
"449 347 CURVE SMOOTH",
"449 282 OFFCURVE",
"396 229 OFFCURVE",
"331 229 CURVE SMOOTH",
"268 229 OFFCURVE",
"214 282 OFFCURVE"
);
}
);
width = 636;
}
);
leftKerningGroup = currency;
rightKerningGroup = currency;
unicode = 00A4;
},
{
color = 5;
glyphname = dollar;
lastChange = "2016-07-31 01:33:48 +0000";
layers = (
{
layerId = "9D2B49D7-8C02-48EB-8D57-D561CCF616AE";
paths = (
{
closed = 1;
nodes = (
"405 0 LINE SMOOTH",
"531 0 OFFCURVE",
"592 61 OFFCURVE",
"592 187 CURVE SMOOTH",
"592 313 OFFCURVE",
"531 374 OFFCURVE",
"405 374 CURVE SMOOTH",
"282 374 LINE SMOOTH",
"207 374 OFFCURVE",
"187 391 OFFCURVE",
"187 464 CURVE SMOOTH",
"187 538 OFFCURVE",
"207 558 OFFCURVE",
"281 558 CURVE SMOOTH",
"402 558 LINE SMOOTH",
"476 558 OFFCURVE",
"496 538 OFFCURVE",
"496 465 CURVE SMOOTH",
"496 443 OFFCURVE",
"516 423 OFFCURVE",
"538 423 CURVE SMOOTH",
"560 423 OFFCURVE",
"580 443 OFFCURVE",
"580 465 CURVE SMOOTH",
"580 585 OFFCURVE",
"522 642 OFFCURVE",
"402 642 CURVE SMOOTH",
"281 642 LINE SMOOTH",
"161 642 OFFCURVE",
"103 585 OFFCURVE",
"103 464 CURVE SMOOTH",
"103 344 OFFCURVE",
"161 290 OFFCURVE",
"282 290 CURVE SMOOTH",
"405 290 LINE SMOOTH",
"484 290 OFFCURVE",
"508 268 OFFCURVE",
"508 187 CURVE SMOOTH",
"508 106 OFFCURVE",
"484 84 OFFCURVE",
"405 84 CURVE SMOOTH",
"267 84 LINE SMOOTH",
"188 84 OFFCURVE",
"164 106 OFFCURVE",
"164 187 CURVE SMOOTH",
"164 209 OFFCURVE",
"144 229 OFFCURVE",
"122 229 CURVE SMOOTH",
"100 229 OFFCURVE",
"80 209 OFFCURVE",
"80 187 CURVE SMOOTH",
"80 61 OFFCURVE",
"139 0 OFFCURVE",
"267 0 CURVE SMOOTH"
);
},
{
closed = 1;
nodes = (
"371 -55 CURVE SMOOTH",
"371 313 LINE",
"377 351 LINE",
"377 710 LINE SMOOTH",
"377 732 OFFCURVE",
"364 745 OFFCURVE",
"342 745 CURVE SMOOTH",
"319 745 OFFCURVE",
"307 732 OFFCURVE",
"307 710 CURVE SMOOTH",
"307 355 LINE",
"301 311 LINE",
"301 -55 LINE SMOOTH",
"301 -78 OFFCURVE",
"314 -90 OFFCURVE",
"336 -90 CURVE SMOOTH",
"359 -90 OFFCURVE",
"371 -78 OFFCURVE"
);
}
);
width = 672;
}
);
leftKerningGroup = S;
leftMetricsKey = S;
rightKerningGroup = S;
rightMetricsKey = S;
unicode = 0024;
},
{
color = 4;
glyphname = dong;
lastChange = "2016-07-31 01:34:07 +0000";
layers = (
{
layerId = "9D2B49D7-8C02-48EB-8D57-D561CCF616AE";
paths = (
{
closed = 1;
nodes = (
"252 121 LINE SMOOTH",
"328 121 OFFCURVE",
"376 157 OFFCURVE",
"388 225 CURVE",
"356 229 LINE",
"356 203 OFFCURVE",
"307 191 OFFCURVE",
"252 191 CURVE SMOOTH",
"223 191 LINE SMOOTH",
"165 191 OFFCURVE",
"150 206 OFFCURVE",
"150 263 CURVE SMOOTH",
"150 316 LINE SMOOTH",
"150 374 OFFCURVE",
"165 389 OFFCURVE",
"223 389 CURVE SMOOTH",
"356 389 LINE SMOOTH",
"378 389 OFFCURVE",
"391 401 OFFCURVE",
"391 424 CURVE SMOOTH",
"391 446 OFFCURVE",
"378 459 OFFCURVE",
"356 459 CURVE SMOOTH",
"223 459 LINE SMOOTH",
"127 459 OFFCURVE",
"80 412 OFFCURVE",
"80 316 CURVE SMOOTH",
"80 263 LINE SMOOTH",
"80 166 OFFCURVE",
"126 121 OFFCURVE",
"223 121 CURVE SMOOTH"
);
},
{
closed = 1;
nodes = (
"391 17 LINE SMOOTH",
"414 17 OFFCURVE",
"426 30 OFFCURVE",
"426 52 CURVE SMOOTH",
"426 74 OFFCURVE",
"414 87 OFFCURVE",
"391 87 CURVE SMOOTH",
"140 87 LINE SMOOTH",
"117 87 OFFCURVE",
"105 74 OFFCURVE",
"105 52 CURVE SMOOTH",
"105 30 OFFCURVE",
"117 17 OFFCURVE",
"140 17 CURVE SMOOTH"
);
},
{
closed = 1;
nodes = (
"426 156 CURVE SMOOTH",
"426 598 LINE SMOOTH",
"426 620 OFFCURVE",
"413 633 OFFCURVE",
"391 633 CURVE SMOOTH",
"368 633 OFFCURVE",
"356 620 OFFCURVE",
"356 598 CURVE SMOOTH",
"356 156 LINE SMOOTH",
"356 133 OFFCURVE",
"368 121 OFFCURVE",
"391 121 CURVE SMOOTH",
"413 121 OFFCURVE",
"426 133 OFFCURVE"
);
},
{
closed = 1;
nodes = (
"449 492 LINE SMOOTH",
"471 492 OFFCURVE",
"484 505 OFFCURVE",
"484 527 CURVE SMOOTH",
"484 549 OFFCURVE",
"471 562 OFFCURVE",
"449 562 CURVE SMOOTH",
"242 562 LINE SMOOTH",
"219 562 OFFCURVE",
"207 549 OFFCURVE",
"207 527 CURVE SMOOTH",
"207 505 OFFCURVE",
"219 492 OFFCURVE",
"242 492 CURVE SMOOTH"
);
}
);
width = 548;
}
);
leftKerningGroup = o;
leftMetricsKey = o;
rightKerningGroup = d;
rightMetricsKey = "=d-30";
unicode = 20AB;
},
{
color = 5;
glyphname = euro;
lastChange = "2016-07-31 01:34:07 +0000";
layers = (
{
layerId = "9D2B49D7-8C02-48EB-8D57-D561CCF616AE";
paths = (
{
closed = 1;
nodes = (
"463 345 LINE SMOOTH",
"488 345 OFFCURVE",
"498 355 OFFCURVE",
"498 380 CURVE SMOOTH",
"498 405 OFFCURVE",
"488 415 OFFCURVE",
"463 415 CURVE SMOOTH",
"70 415 LINE SMOOTH",
"46 415 OFFCURVE",
"35 405 OFFCURVE",
"35 380 CURVE SMOOTH",
"35 355 OFFCURVE",
"46 345 OFFCURVE",
"70 345 CURVE SMOOTH"
);
},
{
closed = 1;
nodes = (
"408 236 LINE SMOOTH",
"433 236 OFFCURVE",
"443 247 OFFCURVE",
"443 271 CURVE SMOOTH",
"443 296 OFFCURVE",
"433 306 OFFCURVE",
"408 306 CURVE SMOOTH",
"70 306 LINE SMOOTH",
"46 306 OFFCURVE",
"35 296 OFFCURVE",
"35 271 CURVE SMOOTH",
"35 247 OFFCURVE",
"46 236 OFFCURVE",
"70 236 CURVE SMOOTH"
);
},
{
closed = 1;
nodes = (
"466 1 LINE SMOOTH",
"529 1 OFFCURVE",
"560 17 OFFCURVE",
"616 61 CURVE SMOOTH",
"624 68 OFFCURVE",
"630 80 OFFCURVE",
"630 91 CURVE SMOOTH",
"630 115 OFFCURVE",
"611 133 OFFCURVE",
"588 133 CURVE SMOOTH",
"578 133 OFFCURVE",
"567 130 OFFCURVE",
"560 122 CURVE SMOOTH",
"527 85 OFFCURVE",
"509 85 OFFCURVE",
"466 85 CURVE SMOOTH",
"346 85 LINE SMOOTH",
"239 85 OFFCURVE",
"206 119 OFFCURVE",
"206 225 CURVE SMOOTH",
"206 452 LINE SMOOTH",
"206 560 OFFCURVE",
"240 592 OFFCURVE",
"345 592 CURVE SMOOTH",
"466 592 LINE SMOOTH",
"495 592 OFFCURVE",
"500 587 OFFCURVE",
"523 561 CURVE SMOOTH",
"531 552 OFFCURVE",
"542 544 OFFCURVE",
"556 544 CURVE SMOOTH",
"579 544 OFFCURVE",
"598 563 OFFCURVE",
"598 586 CURVE SMOOTH",
"598 596 OFFCURVE",
"595 605 OFFCURVE",
"589 612 CURVE SMOOTH",
"550 658 OFFCURVE",
"521 676 OFFCURVE",
"466 676 CURVE SMOOTH",
"345 676 LINE SMOOTH",
"193 676 OFFCURVE",
"122 607 OFFCURVE",
"122 452 CURVE SMOOTH",
"122 225 LINE SMOOTH",
"122 72 OFFCURVE",
"193 1 OFFCURVE",
"346 1 CURVE SMOOTH"
);
}
);
width = 660;
}
);
leftKerningGroup = O;
leftMetricsKey = Hbar;
rightKerningGroup = C;
rightMetricsKey = "=C-40";
unicode = 20AC;
},
{
color = 4;
glyphname = florin;
lastChange = "2016-07-31 01:33:48 +0000";
layers = (
{
layerId = "9D2B49D7-8C02-48EB-8D57-D561CCF616AE";
paths = (
{
closed = 1;
nodes = (
"161 100 CURVE SMOOTH",
"234 508 LINE SMOOTH",
"247 581 OFFCURVE",
"273 613 OFFCURVE",
"330 622 CURVE SMOOTH",
"356 626 OFFCURVE",
"370 638 OFFCURVE",
"370 665 CURVE SMOOTH",
"370 693 OFFCURVE",
"355 710 OFFCURVE",
"327 706 CURVE SMOOTH",
"227 690 OFFCURVE",
"172 636 OFFCURVE",
"152 522 CURVE SMOOTH",
"79 115 LINE SMOOTH",
"78 101 OFFCURVE",
"73 93 OFFCURVE",
"67 86 CURVE SMOOTH",
"41 73 OFFCURVE",
"30 64 OFFCURVE",
"30 39 CURVE SMOOTH",
"30 11 OFFCURVE",
"46 -7 OFFCURVE",
"74 0 CURVE SMOOTH",
"122 11 OFFCURVE",
"151 47 OFFCURVE"
);
},
{
closed = 1;
nodes = (
"311 423 LINE SMOOTH",
"338 423 OFFCURVE",
"353 439 OFFCURVE",
"353 465 CURVE SMOOTH",
"353 492 OFFCURVE",
"338 507 OFFCURVE",
"311 507 CURVE SMOOTH",
"96 507 LINE SMOOTH",
"69 507 OFFCURVE",
"54 492 OFFCURVE",
"54 465 CURVE SMOOTH",
"54 439 OFFCURVE",
"69 423 OFFCURVE",
"96 423 CURVE SMOOTH"
);
}
);
width = 328;
}
);
leftKerningGroup = florin;
rightKerningGroup = florn;
unicode = 0192;
},
{
color = 4;
glyphname = franc;
lastChange = "2016-07-31 01:33:48 +0000";
layers = (
{
layerId = "9D2B49D7-8C02-48EB-8D57-D561CCF616AE";
paths = (
{
closed = 1;
nodes = (
"173 0 OFFCURVE",
"188 15 OFFCURVE",
"188 42 CURVE SMOOTH",
"188 300 LINE",
"359 300 LINE",
"359 42 LINE SMOOTH",
"359 15 OFFCURVE",
"374 0 OFFCURVE",
"401 0 CURVE SMOOTH",
"427 0 OFFCURVE",
"443 15 OFFCURVE",
"443 42 CURVE SMOOTH",
"443 180 LINE SMOOTH",
"443 253 OFFCURVE",
"486 300 OFFCURVE",
"589 300 CURVE SMOOTH",
"615 300 OFFCURVE",
"631 315 OFFCURVE",
"631 342 CURVE SMOOTH",
"631 369 OFFCURVE",
"615 384 OFFCURVE",
"589 384 CURVE SMOOTH",
"524 384 OFFCURVE",
"476 361 OFFCURVE",
"443 316 CURVE",
"443 342 LINE SMOOTH",
"443 369 OFFCURVE",
"427 384 OFFCURVE",
"401 384 CURVE SMOOTH",
"188 384 LINE",
"188 594 LINE",
"420 594 LINE SMOOTH",
"446 594 OFFCURVE",
"462 609 OFFCURVE",
"462 636 CURVE SMOOTH",
"462 662 OFFCURVE",
"446 678 OFFCURVE",
"420 678 CURVE SMOOTH",
"146 678 LINE SMOOTH",
"119 678 OFFCURVE",
"104 662 OFFCURVE",
"104 636 CURVE SMOOTH",
"104 42 LINE SMOOTH",
"104 15 OFFCURVE",
"119 0 OFFCURVE",
"146 0 CURVE SMOOTH"
);
}
);
width = 648;
}
);
leftKerningGroup = H;
leftMetricsKey = H;
rightKerningGroup = F;
rightMetricsKey = r;
unicode = 20A3;
},
{
color = 4;
glyphname = guarani;
lastChange = "2016-07-31 01:33:48 +0000";
layers = (
{
layerId = "9D2B49D7-8C02-48EB-8D57-D561CCF616AE";
paths = (
{
closed = 1;
nodes = (
"387 0 LINE SMOOTH",
"527 0 OFFCURVE",
"591 62 OFFCURVE",
"591 204 CURVE SMOOTH",
"591 293 LINE SMOOTH",
"591 320 OFFCURVE",
"576 335 OFFCURVE",
"549 335 CURVE SMOOTH",
"484 336 LINE SMOOTH",
"457 336 OFFCURVE",
"442 321 OFFCURVE",
"442 294 CURVE SMOOTH",
"442 267 OFFCURVE",
"456 253 OFFCURVE",
"484 252 CURVE SMOOTH",
"507 251 LINE",
"507 204 LINE SMOOTH",
"507 109 OFFCURVE",
"481 84 OFFCURVE",
"387 84 CURVE SMOOTH",
"304 84 LINE SMOOTH",
"197 84 OFFCURVE",
"164 117 OFFCURVE",
"164 224 CURVE SMOOTH",
"164 418 LINE SMOOTH",
"164 526 OFFCURVE",
"198 558 OFFCURVE",
"303 558 CURVE SMOOTH",
"387 558 LINE SMOOTH",
"462 558 OFFCURVE",
"496 543 OFFCURVE",
"504 489 CURVE SMOOTH",
"507 461 OFFCURVE",
"521 447 OFFCURVE",
"548 447 CURVE SMOOTH",
"576 447 OFFCURVE",
"593 462 OFFCURVE",
"588 490 CURVE SMOOTH",
"569 595 OFFCURVE",
"509 642 OFFCURVE",
"387 642 CURVE SMOOTH",
"303 642 LINE SMOOTH",
"151 642 OFFCURVE",
"80 573 OFFCURVE",
"80 418 CURVE SMOOTH",
"80 224 LINE SMOOTH",
"80 71 OFFCURVE",
"151 0 OFFCURVE",
"304 0 CURVE SMOOTH"
);
},
{
closed = 1;
nodes = (
"382 -55 CURVE SMOOTH",
"382 710 LINE SMOOTH",
"382 732 OFFCURVE",
"369 745 OFFCURVE",
"347 745 CURVE SMOOTH",
"325 745 OFFCURVE",
"312 732 OFFCURVE",
"312 710 CURVE SMOOTH",
"312 -55 LINE SMOOTH",
"312 -78 OFFCURVE",
"325 -90 OFFCURVE",
"347 -90 CURVE SMOOTH",
"369 -90 OFFCURVE",
"382 -78 OFFCURVE"
);
}
);
width = 671;
}
);
leftKerningGroup = O;
leftMetricsKey = O;
rightKerningGroup = C;
rightMetricsKey = O;
unicode = 20B2;
},
{
color = 4;
glyphname = kip;
lastChange = "2016-07-31 01:33:48 +0000";
layers = (
{
components = (
{
name = K;
transform = "{1, 0, 0, 1, -4, 0}";
}
);
layerId = "9D2B49D7-8C02-48EB-8D57-D561CCF616AE";
paths = (
{
closed = 1;
nodes = (
"470 332 LINE SMOOTH",
"493 332 OFFCURVE",
"505 344 OFFCURVE",
"505 367 CURVE SMOOTH",
"505 390 OFFCURVE",
"493 402 OFFCURVE",
"470 402 CURVE SMOOTH",
"250 402 LINE SMOOTH",
"227 402 OFFCURVE",
"215 390 OFFCURVE",
"215 367 CURVE SMOOTH",
"215 344 OFFCURVE",
"227 332 OFFCURVE",
"250 332 CURVE SMOOTH"
);
},
{
closed = 1;
nodes = (
"141 332 LINE SMOOTH",
"164 332 OFFCURVE",
"176 344 OFFCURVE",
"176 367 CURVE SMOOTH",
"176 390 OFFCURVE",
"164 402 OFFCURVE",
"141 402 CURVE SMOOTH",
"65 402 LINE SMOOTH",
"42 402 OFFCURVE",
"30 390 OFFCURVE",
"30 367 CURVE SMOOTH",
"30 344 OFFCURVE",
"42 332 OFFCURVE",
"65 332 CURVE SMOOTH"
);
}
);
width = 583;
}
);
leftKerningGroup = Hbar;
rightKerningGroup = K;
unicode = 20AD;
},
{
color = 4;
glyphname = lira;
lastChange = "2016-07-31 01:33:48 +0000";
layers = (
{
layerId = "9D2B49D7-8C02-48EB-8D57-D561CCF616AE";
paths = (
{
closed = 1;
nodes = (
"558 0 LINE SMOOTH",
"586 0 OFFCURVE",
"600 14 OFFCURVE",
"600 42 CURVE SMOOTH",
"600 70 OFFCURVE",
"586 84 OFFCURVE",
"558 84 CURVE SMOOTH",
"208 84 LINE",
"214 104 OFFCURVE",
"216 126 OFFCURVE",
"216 150 CURVE SMOOTH",
"216 430 LINE SMOOTH",
"216 538 OFFCURVE",
"250 570 OFFCURVE",
"355 570 CURVE SMOOTH",
"376 570 LINE SMOOTH",
"470 570 OFFCURVE",
"496 545 OFFCURVE",
"496 450 CURVE SMOOTH",
"496 422 OFFCURVE",
"510 408 OFFCURVE",
"538 408 CURVE SMOOTH",
"566 408 OFFCURVE",
"580 422 OFFCURVE",
"580 450 CURVE SMOOTH",
"580 592 OFFCURVE",
"516 654 OFFCURVE",
"376 654 CURVE SMOOTH",
"355 654 LINE SMOOTH",
"203 654 OFFCURVE",
"132 584 OFFCURVE",
"132 430 CURVE SMOOTH",
"132 150 LINE SMOOTH",
"132 94 OFFCURVE",
"124 84 OFFCURVE",
"90 84 CURVE",
"90 43 LINE SMOOTH",
"90 19 OFFCURVE",
"109 0 OFFCURVE",
"134 0 CURVE SMOOTH"
);
},
{
closed = 1;
nodes = (
"415 295 LINE SMOOTH",
"433 295 OFFCURVE",
"443 305 OFFCURVE",
"443 323 CURVE SMOOTH",
"443 341 OFFCURVE",
"433 351 OFFCURVE",
"415 351 CURVE SMOOTH",
"71 351 LINE SMOOTH",
"52 351 OFFCURVE",
"43 341 OFFCURVE",
"43 323 CURVE SMOOTH",
"43 305 OFFCURVE",
"52 295 OFFCURVE",
"71 295 CURVE SMOOTH"
);
},
{
closed = 1;
nodes = (
"415 191 LINE SMOOTH",
"433 191 OFFCURVE",
"443 201 OFFCURVE",
"443 219 CURVE SMOOTH",
"443 237 OFFCURVE",
"433 247 OFFCURVE",
"415 247 CURVE SMOOTH",
"71 247 LINE SMOOTH",
"52 247 OFFCURVE",
"43 237 OFFCURVE",
"43 219 CURVE SMOOTH",
"43 201 OFFCURVE",
"52 191 OFFCURVE",
"71 191 CURVE SMOOTH"
);
}
);
width = 634;
}
);
leftKerningGroup = sterling;
rightKerningGroup = sterlng;
unicode = 20A4;
},
{
color = 4;
glyphname = liraTurkish;
lastChange = "2016-07-31 01:33:48 +0000";
layers = (
{
layerId = "9D2B49D7-8C02-48EB-8D57-D561CCF616AE";
paths = (
{
closed = 1;
nodes = (
"252 0 LINE SMOOTH",
"377 0 OFFCURVE",
"443 49 OFFCURVE",
"453 161 CURVE SMOOTH",
"456 189 OFFCURVE",
"441 204 OFFCURVE",
"413 204 CURVE SMOOTH",
"386 204 OFFCURVE",
"373 190 OFFCURVE",
"369 162 CURVE SMOOTH",
"359 101 OFFCURVE",
"330 84 OFFCURVE",
"252 84 CURVE SMOOTH",
"182 84 LINE",
"182 612 LINE SMOOTH",
"182 639 OFFCURVE",
"167 654 OFFCURVE",
"140 654 CURVE SMOOTH",
"113 654 OFFCURVE",
"98 639 OFFCURVE",
"98 612 CURVE SMOOTH",
"98 42 LINE SMOOTH",
"98 15 OFFCURVE",
"113 0 OFFCURVE",
"140 0 CURVE SMOOTH"
);
},
{
closed = 1;
nodes = (
"301 463 LINE SMOOTH",
"318 470 OFFCURVE",
"323 482 OFFCURVE",
"313 499 CURVE SMOOTH",
"304 516 OFFCURVE",
"294 521 OFFCURVE",
"276 512 CURVE SMOOTH",
"26 387 LINE SMOOTH",
"8 378 OFFCURVE",
"4 366 OFFCURVE",
"14 349 CURVE SMOOTH",
"23 332 OFFCURVE",
"33 328 OFFCURVE",
"50 336 CURVE SMOOTH"
);
},
{
closed = 1;
nodes = (
"301 349 LINE SMOOTH",
"318 356 OFFCURVE",
"323 368 OFFCURVE",
"313 385 CURVE SMOOTH",
"304 402 OFFCURVE",
"294 407 OFFCURVE",
"276 398 CURVE SMOOTH",
"26 273 LINE SMOOTH",
"8 264 OFFCURVE",
"4 252 OFFCURVE",
"14 235 CURVE SMOOTH",
"23 218 OFFCURVE",
"33 214 OFFCURVE",
"50 222 CURVE SMOOTH"
);
}
);
width = 494;
}
);
leftKerningGroup = Hbar;
rightKerningGroup = L;
unicode = 20BA;
},
{
color = 4;
glyphname = manat;
lastChange = "2016-07-31 01:33:48 +0000";
layers = (
{
layerId = "9D2B49D7-8C02-48EB-8D57-D561CCF616AE";
paths = (
{
closed = 1;
nodes = (
"144 0 OFFCURVE",
"158 14 OFFCURVE",
"158 42 CURVE SMOOTH",
"158 309 LINE SMOOTH",
"158 489 OFFCURVE",
"201 549 OFFCURVE",
"318 549 CURVE SMOOTH",
"338 549 LINE SMOOTH",
"455 549 OFFCURVE",
"498 489 OFFCURVE",
"498 309 CURVE SMOOTH",
"498 42 LINE SMOOTH",
"498 14 OFFCURVE",
"512 0 OFFCURVE",
"540 0 CURVE SMOOTH",
"568 0 OFFCURVE",
"582 14 OFFCURVE",
"582 42 CURVE SMOOTH",
"582 309 LINE SMOOTH",
"582 531 OFFCURVE",
"509 633 OFFCURVE",
"338 633 CURVE SMOOTH",
"318 633 LINE SMOOTH",
"147 633 OFFCURVE",
"74 531 OFFCURVE",
"74 309 CURVE SMOOTH",
"74 42 LINE SMOOTH",
"74 14 OFFCURVE",
"88 0 OFFCURVE",
"116 0 CURVE SMOOTH"
);
},
{
closed = 1;
nodes = (
"363 127 CURVE SMOOTH",
"363 669 LINE SMOOTH",
"363 691 OFFCURVE",
"350 704 OFFCURVE",
"328 704 CURVE SMOOTH",
"306 704 OFFCURVE",
"293 691 OFFCURVE",
"293 669 CURVE SMOOTH",
"293 127 LINE SMOOTH",
"293 105 OFFCURVE",
"306 92 OFFCURVE",
"328 92 CURVE SMOOTH",
"350 92 OFFCURVE",
"363 105 OFFCURVE"
);
}
);
width = 656;
}
);
leftKerningGroup = U;
leftMetricsKey = "=U-20";
rightKerningGroup = U;
rightMetricsKey = "=U-20";
unicode = 20BC;
},
{
color = 4;
glyphname = naira;
lastChange = "2016-07-31 01:34:07 +0000";
layers = (
{
components = (
{
name = strokelongcomb;
transform = "{1, 0, 0, 1, -15, 67}";
}
);
layerId = "9D2B49D7-8C02-48EB-8D57-D561CCF616AE";
paths = (
{
closed = 1;
nodes = (
"198 42 CURVE SMOOTH",
"198 548 LINE",
"174 551 LINE",
"579 26 LINE",
"592 7 OFFCURVE",
"605 0 OFFCURVE",
"621 0 CURVE SMOOTH",
"648 0 OFFCURVE",
"663 15 OFFCURVE",
"663 42 CURVE SMOOTH",
"663 636 LINE SMOOTH",
"663 663 OFFCURVE",
"648 678 OFFCURVE",
"621 678 CURVE SMOOTH",
"594 678 OFFCURVE",
"579 663 OFFCURVE",
"579 636 CURVE SMOOTH",
"579 145 LINE",
"594 142 LINE",
"198 652 LINE SMOOTH",
"185 671 OFFCURVE",
"172 678 OFFCURVE",
"155 678 CURVE SMOOTH",
"129 678 OFFCURVE",
"114 663 OFFCURVE",
"114 636 CURVE SMOOTH",
"114 42 LINE SMOOTH",
"114 15 OFFCURVE",
"129 0 OFFCURVE",
"156 0 CURVE SMOOTH",
"183 0 OFFCURVE",
"198 15 OFFCURVE"
);
}
);
width = 784;
}
);
leftKerningGroup = Hbar;
leftMetricsKey = Hbar;
rightKerningGroup = Hbar;
rightMetricsKey = Hbar;
unicode = 20A6;
},
{
color = 4;
glyphname = peseta;
lastChange = "2016-07-31 01:33:48 +0000";
layers = (
{
layerId = "9D2B49D7-8C02-48EB-8D57-D561CCF616AE";
paths = (
{
closed = 1;
nodes = (
"174 22 CURVE SMOOTH",
"174 268 LINE",
"235 268 LINE SMOOTH",
"353 268 OFFCURVE",
"417 332 OFFCURVE",
"417 450 CURVE SMOOTH",
"417 480 LINE SMOOTH",
"417 598 OFFCURVE",
"353 662 OFFCURVE",
"235 662 CURVE SMOOTH",
"139 662 LINE SMOOTH",
"117 662 OFFCURVE",
"104 650 OFFCURVE",
"104 627 CURVE SMOOTH",
"104 22 LINE SMOOTH",
"104 3 OFFCURVE",
"120 -13 OFFCURVE",
"139 -13 CURVE SMOOTH",
"158 -13 OFFCURVE",
"174 3 OFFCURVE"
);
},
{
closed = 1;
nodes = (
"595 20 CURVE SMOOTH",
"595 39 OFFCURVE",
"579 55 OFFCURVE",
"560 55 CURVE SMOOTH",
"510 55 OFFCURVE",
"498 66 OFFCURVE",
"498 117 CURVE SMOOTH",
"498 257 LINE",
"560 257 LINE SMOOTH",
"579 257 OFFCURVE",
"595 273 OFFCURVE",
"595 292 CURVE SMOOTH",
"595 311 OFFCURVE",
"579 327 OFFCURVE",
"560 327 CURVE SMOOTH",
"498 327 LINE",
"498 385 LINE SMOOTH",
"498 404 OFFCURVE",
"482 420 OFFCURVE",
"463 420 CURVE SMOOTH",
"444 420 OFFCURVE",
"428 404 OFFCURVE",
"428 385 CURVE SMOOTH",
"428 327 LINE",
"420 327 LINE SMOOTH",
"401 327 OFFCURVE",
"385 311 OFFCURVE",
"385 292 CURVE SMOOTH",
"385 273 OFFCURVE",
"401 257 OFFCURVE",
"420 257 CURVE SMOOTH",
"428 257 LINE",
"428 117 LINE SMOOTH",
"428 28 OFFCURVE",
"471 -15 OFFCURVE",
"560 -15 CURVE SMOOTH",
"579 -15 OFFCURVE",
"595 1 OFFCURVE"
);
},
{
closed = 1;
nodes = (
"174 592 LINE",
"235 592 LINE SMOOTH",
"315 592 OFFCURVE",
"347 560 OFFCURVE",
"347 480 CURVE SMOOTH",
"347 450 LINE SMOOTH",
"347 370 OFFCURVE",
"315 338 OFFCURVE",
"235 338 CURVE SMOOTH",
"174 338 LINE"
);
},
{
closed = 1;
nodes = (
"763 -14 LINE SMOOTH",
"832 -14 OFFCURVE",
"868 22 OFFCURVE",
"868 91 CURVE SMOOTH",
"868 160 OFFCURVE",
"832 196 OFFCURVE",
"763 196 CURVE SMOOTH",
"703 196 LINE SMOOTH",
"677 196 OFFCURVE",
"673 200 OFFCURVE",
"673 226 CURVE SMOOTH",
"673 253 OFFCURVE",
"676 256 OFFCURVE",
"703 256 CURVE SMOOTH",
"761 256 LINE SMOOTH",
"787 256 OFFCURVE",
"791 254 OFFCURVE",
"791 226 CURVE SMOOTH",
"791 207 OFFCURVE",
"807 191 OFFCURVE",
"826 191 CURVE SMOOTH",
"845 191 OFFCURVE",
"861 207 OFFCURVE",
"861 226 CURVE SMOOTH",
"861 292 OFFCURVE",
"827 326 OFFCURVE",
"761 326 CURVE SMOOTH",
"703 326 LINE SMOOTH",
"637 326 OFFCURVE",
"603 292 OFFCURVE",
"603 226 CURVE SMOOTH",
"603 161 OFFCURVE",
"638 126 OFFCURVE",
"703 126 CURVE SMOOTH",
"763 126 LINE SMOOTH",
"792 126 OFFCURVE",
"798 121 OFFCURVE",
"798 91 CURVE SMOOTH",
"798 61 OFFCURVE",
"792 56 OFFCURVE",
"763 56 CURVE SMOOTH",
"697 56 LINE SMOOTH",
"668 56 OFFCURVE",
"663 61 OFFCURVE",
"663 91 CURVE SMOOTH",
"663 110 OFFCURVE",
"647 126 OFFCURVE",
"628 126 CURVE SMOOTH",
"609 126 OFFCURVE",
"593 110 OFFCURVE",
"593 91 CURVE SMOOTH",
"593 22 OFFCURVE",
"629 -14 OFFCURVE",
"697 -14 CURVE SMOOTH"
);
}
);
width = 912;
}
);
leftKerningGroup = P;
leftMetricsKey = P;
rightKerningGroup = s;
rightMetricsKey = "=s-30";
unicode = 20A7;
},
{
color = 4;
glyphname = peso;
lastChange = "2016-07-31 01:33:48 +0000";
layers = (
{
components = (
{
name = P;
}
);
layerId = "9D2B49D7-8C02-48EB-8D57-D561CCF616AE";
paths = (
{
closed = 1;
nodes = (
"124 483 LINE",
"146 490 LINE",
"513 490 LINE",
"530 490 LINE",
"602 490 LINE SMOOTH",
"621 490 OFFCURVE",
"630 500 OFFCURVE",
"630 519 CURVE SMOOTH",
"630 538 OFFCURVE",
"621 549 OFFCURVE",
"602 549 CURVE SMOOTH",
"529 549 LINE",
"515 542 LINE",
"146 542 LINE",
"127 542 LINE",
"57 542 LINE SMOOTH",
"38 542 OFFCURVE",
"29 531 OFFCURVE",
"29 512 CURVE SMOOTH",
"29 493 OFFCURVE",
"38 483 OFFCURVE",
"57 483 CURVE SMOOTH"
);
},
{
closed = 1;
nodes = (
"124 395 LINE",
"137 402 LINE",
"514 402 LINE",
"537 402 LINE",
"602 402 LINE SMOOTH",
"621 402 OFFCURVE",
"630 412 OFFCURVE",
"630 431 CURVE SMOOTH",
"630 450 OFFCURVE",
"621 460 OFFCURVE",
"602 460 CURVE SMOOTH",
"527 460 LINE",
"515 453 LINE",
"142 453 LINE",
"124 453 LINE",
"57 453 LINE SMOOTH",
"38 453 OFFCURVE",
"29 443 OFFCURVE",
"29 424 CURVE SMOOTH",
"29 405 OFFCURVE",
"38 395 OFFCURVE",
"57 395 CURVE SMOOTH"
);
}
);
width = 660;
}
);
leftKerningGroup = Hbar;
rightKerningGroup = P;
unicode = 20B1;
},
{
color = 4;
glyphname = rupeeIndian;
lastChange = "2016-07-31 01:33:48 +0000";
layers = (
{
layerId = "9D2B49D7-8C02-48EB-8D57-D561CCF616AE";
paths = (
{
closed = 1;
nodes = (
"359 43 CURVE SMOOTH",
"359 53 OFFCURVE",
"356 62 OFFCURVE",
"347 71 CURVE SMOOTH",
"175 280 LINE",
"136 246 LINE",
"168 246 LINE SMOOTH",
"295 246 OFFCURVE",
"365 315 OFFCURVE",
"365 445 CURVE SMOOTH",
"365 480 LINE SMOOTH",
"365 616 OFFCURVE",
"295 630 OFFCURVE",
"168 630 CURVE",
"126 678 LINE",
"120 678 LINE SMOOTH",
"94 678 OFFCURVE",
"78 662 OFFCURVE",
"78 636 CURVE SMOOTH",
"78 609 OFFCURVE",
"94 594 OFFCURVE",
"120 594 CURVE SMOOTH",
"168 594 LINE SMOOTH",
"249 594 OFFCURVE",
"281 562 OFFCURVE",
"281 480 CURVE SMOOTH",
"281 445 LINE SMOOTH",
"281 362 OFFCURVE",
"249 330 OFFCURVE",
"168 330 CURVE SMOOTH",
"78 330 LINE",
"78 283 LINE SMOOTH",
"78 260 OFFCURVE",
"85 244 OFFCURVE",
"100 226 CURVE SMOOTH",
"283 17 LINE SMOOTH",
"294 4 OFFCURVE",
"304 0 OFFCURVE",
"314 0 CURVE SMOOTH",
"336 0 OFFCURVE",
"359 23 OFFCURVE"
);
},
{
closed = 1;
nodes = (
"413 476 LINE SMOOTH",
"435 476 OFFCURVE",
"448 488 OFFCURVE",
"448 511 CURVE SMOOTH",
"448 533 OFFCURVE",
"435 546 OFFCURVE",
"413 546 CURVE SMOOTH",
"112 546 LINE SMOOTH",
"90 546 OFFCURVE",
"77 533 OFFCURVE",
"77 511 CURVE SMOOTH",
"77 488 OFFCURVE",
"90 476 OFFCURVE",
"112 476 CURVE SMOOTH"
);
},
{
closed = 1;
nodes = (
"433 608 LINE SMOOTH",
"455 608 OFFCURVE",
"468 620 OFFCURVE",
"468 643 CURVE SMOOTH",
"468 665 OFFCURVE",
"455 678 OFFCURVE",
"433 678 CURVE SMOOTH",
"85 678 LINE",
"85 608 LINE"
);
}
);
width = 482;
}
);
leftKerningGroup = H;
rightKerningGroup = rupeeIndan;
unicode = 20B9;
},
{
color = 5;
glyphname = sterling;
lastChange = "2016-07-31 01:33:48 +0000";
layers = (
{
layerId = "9D2B49D7-8C02-48EB-8D57-D561CCF616AE";
paths = (
{
closed = 1;
nodes = (
"512 0 LINE SMOOTH",
"540 0 OFFCURVE",
"554 14 OFFCURVE",
"554 42 CURVE SMOOTH",
"554 70 OFFCURVE",
"540 84 OFFCURVE",
"512 84 CURVE SMOOTH",
"162 84 LINE",
"168 104 OFFCURVE",
"170 126 OFFCURVE",
"170 150 CURVE SMOOTH",
"170 430 LINE SMOOTH",
"170 538 OFFCURVE",
"204 570 OFFCURVE",
"309 570 CURVE SMOOTH",
"330 570 LINE SMOOTH",
"424 570 OFFCURVE",
"450 545 OFFCURVE",
"450 450 CURVE SMOOTH",
"450 422 OFFCURVE",
"464 408 OFFCURVE",
"492 408 CURVE SMOOTH",
"520 408 OFFCURVE",
"534 422 OFFCURVE",
"534 450 CURVE SMOOTH",
"534 592 OFFCURVE",
"470 654 OFFCURVE",
"330 654 CURVE SMOOTH",
"309 654 LINE SMOOTH",
"157 654 OFFCURVE",
"86 584 OFFCURVE",
"86 430 CURVE SMOOTH",
"86 150 LINE SMOOTH",
"86 94 OFFCURVE",
"78 84 OFFCURVE",
"44 84 CURVE",
"44 0 LINE"
);
},
{
closed = 1;
nodes = (
"358 208 LINE SMOOTH",
"380 208 OFFCURVE",
"393 220 OFFCURVE",
"393 243 CURVE SMOOTH",
"393 265 OFFCURVE",
"380 278 OFFCURVE",
"358 278 CURVE SMOOTH",
"33 278 LINE SMOOTH",
"11 278 OFFCURVE",
"-2 265 OFFCURVE",
"-2 243 CURVE SMOOTH",
"-2 220 OFFCURVE",
"11 208 OFFCURVE",
"33 208 CURVE SMOOTH"
);
}
);
width = 592;
}
);
leftKerningGroup = sterling;
rightKerningGroup = sterlng;
unicode = 00A3;
},
{
color = 4;
glyphname = won;
lastChange = "2016-07-31 01:34:07 +0000";
layers = (
{
layerId = "9D2B49D7-8C02-48EB-8D57-D561CCF616AE";
paths = (
{
closed = 1;
nodes = (
"242 0 LINE",
"266 0 OFFCURVE",
"283 12 OFFCURVE",
"287 36 CURVE SMOOTH",
"399 569 LINE",
"383 569 LINE",
"494 36 LINE SMOOTH",
"500 12 OFFCURVE",
"516 0 OFFCURVE",
"538 0 CURVE",
"540 0 LINE",
"562 0 OFFCURVE",
"578 13 OFFCURVE",
"583 36 CURVE SMOOTH",
"756 622 LINE SMOOTH",
"764 647 OFFCURVE",
"756 664 OFFCURVE",
"732 674 CURVE SMOOTH",
"705 683 OFFCURVE",
"685 676 OFFCURVE",
"677 647 CURVE SMOOTH",
"531 143 LINE",
"548 143 LINE",
"437 642 LINE SMOOTH",
"433 664 OFFCURVE",
"414 678 OFFCURVE",
"391 678 CURVE SMOOTH",
"393 678 LINE",
"367 678 OFFCURVE",
"350 666 OFFCURVE",
"344 642 CURVE SMOOTH",
"233 143 LINE",
"250 143 LINE",
"106 647 LINE SMOOTH",
"97 676 OFFCURVE",
"78 685 OFFCURVE",
"51 674 CURVE SMOOTH",
"26 662 OFFCURVE",
"20 648 OFFCURVE",
"27 622 CURVE SMOOTH",
"198 36 LINE SMOOTH",
"205 11 OFFCURVE",
"219 0 OFFCURVE",
"242 0 CURVE"
);
},
{
closed = 1;
nodes = (
"714 273 LINE SMOOTH",
"738 273 OFFCURVE",
"749 284 OFFCURVE",
"749 306 CURVE SMOOTH",
"749 328 OFFCURVE",
"738 339 OFFCURVE",
"714 339 CURVE SMOOTH",
"62 339 LINE SMOOTH",
"39 339 OFFCURVE",
"27 328 OFFCURVE",
"27 306 CURVE SMOOTH",
"27 284 OFFCURVE",
"39 273 OFFCURVE",
"62 273 CURVE SMOOTH"
);
}
);
width = 783;
}
);
leftKerningGroup = V;
leftMetricsKey = W;
rightKerningGroup = V;
rightMetricsKey = W;
unicode = 20A9;
},
{
color = 4;
glyphname = yen;
lastChange = "2016-07-31 01:33:48 +0000";
layers = (
{
layerId = "9D2B49D7-8C02-48EB-8D57-D561CCF616AE";
paths = (
{
closed = 1;
nodes = (
"351 42 CURVE SMOOTH",
"351 243 LINE",
"585 611 LINE SMOOTH",
"598 635 OFFCURVE",
"594 654 OFFCURVE",
"572 670 CURVE SMOOTH",
"548 685 OFFCURVE",
"527 680 OFFCURVE",
"513 657 CURVE SMOOTH",
"279 277 LINE",
"340 277 LINE",
"103 655 LINE SMOOTH",
"88 679 OFFCURVE",
"68 684 OFFCURVE",
"46 668 CURVE SMOOTH",
"23 653 OFFCURVE",
"18 633 OFFCURVE",
"33 610 CURVE SMOOTH",
"267 243 LINE",
"267 42 LINE SMOOTH",
"267 15 OFFCURVE",
"281 0 OFFCURVE",
"309 0 CURVE SMOOTH",
"336 0 OFFCURVE",
"351 15 OFFCURVE"
);
},
{
closed = 1;
nodes = (
"444 203 LINE SMOOTH",
"463 203 OFFCURVE",
"472 212 OFFCURVE",
"472 231 CURVE SMOOTH",
"472 250 OFFCURVE",
"463 259 OFFCURVE",
"444 259 CURVE SMOOTH",
"172 259 LINE SMOOTH",
"153 259 OFFCURVE",
"144 250 OFFCURVE",
"144 231 CURVE SMOOTH",
"144 212 OFFCURVE",
"153 203 OFFCURVE",
"172 203 CURVE SMOOTH"
);
},
{
closed = 1;
nodes = (
"444 111 LINE SMOOTH",
"463 111 OFFCURVE",
"472 120 OFFCURVE",
"472 139 CURVE SMOOTH",
"472 158 OFFCURVE",
"463 167 OFFCURVE",
"444 167 CURVE SMOOTH",
"172 167 LINE SMOOTH",
"153 167 OFFCURVE",
"144 158 OFFCURVE",
"144 139 CURVE SMOOTH",
"144 120 OFFCURVE",
"153 111 OFFCURVE",
"172 111 CURVE SMOOTH"
);
}
);
width = 616;
}
);
leftKerningGroup = Y;
leftMetricsKey = Y;
rightKerningGroup = Y;
rightMetricsKey = Y;
unicode = 00A5;
},
{
color = 4;
glyphname = franc.salt;
lastChange = "2016-07-31 01:33:48 +0000";
layers = (
{
components = (
{
name = F;
}
);
layerId = "9D2B49D7-8C02-48EB-8D57-D561CCF616AE";
paths = (
{
closed = 1;
nodes = (
"320 172 LINE SMOOTH",
"342 172 OFFCURVE",
"355 185 OFFCURVE",
"355 207 CURVE SMOOTH",
"355 229 OFFCURVE",
"342 242 OFFCURVE",
"320 242 CURVE SMOOTH",
"53 242 LINE SMOOTH",
"31 242 OFFCURVE",
"18 229 OFFCURVE",
"18 207 CURVE SMOOTH",
"18 185 OFFCURVE",
"31 172 OFFCURVE",
"53 172 CURVE SMOOTH"
);
}
);
width = 556;
}
);
leftKerningGroup = H;
rightKerningGroup = F;
rightMetricsKey = F;
},
{
color = 5;
glyphname = divisionslash;
lastChange = "2016-07-31 01:33:48 +0000";
layers = (
{
layerId = "9D2B49D7-8C02-48EB-8D57-D561CCF616AE";
paths = (
{
closed = 1;
nodes = (
"118 -139 CURVE SMOOTH",
"476 665 LINE SMOOTH",
"478 670 OFFCURVE",
"479 674 OFFCURVE",
"479 680 CURVE SMOOTH",
"479 699 OFFCURVE",
"463 715 OFFCURVE",
"444 715 CURVE SMOOTH",
"429 715 OFFCURVE",
"417 706 OFFCURVE",
"411 694 CURVE SMOOTH",
"53 -110 LINE SMOOTH",
"51 -115 OFFCURVE",
"50 -119 OFFCURVE",
"50 -125 CURVE SMOOTH",
"50 -144 OFFCURVE",
"66 -160 OFFCURVE",
"85 -160 CURVE SMOOTH",
"100 -160 OFFCURVE",
"112 -151 OFFCURVE"
);
}
);
width = 529;
}
);
leftKerningGroup = slash;
rightKerningGroup = slash;
unicode = 2215;
},
{
color = 5;
glyphname = notequal;
lastChange = "2016-07-31 01:33:48 +0000";
layers = (
{
components = (
{
name = equal;
}
);
layerId = "9D2B49D7-8C02-48EB-8D57-D561CCF616AE";
paths = (
{
closed = 1;
nodes = (
"263 170 CURVE SMOOTH",
"387 464 LINE SMOOTH",
"393 479 OFFCURVE",
"388 492 OFFCURVE",
"372 498 CURVE SMOOTH",
"357 504 OFFCURVE",
"345 500 OFFCURVE",
"339 484 CURVE SMOOTH",
"215 190 LINE SMOOTH",
"208 175 OFFCURVE",
"214 162 OFFCURVE",
"229 156 CURVE SMOOTH",
"245 150 OFFCURVE",
"257 154 OFFCURVE"
);
}
);
width = 609;
}
);
leftKerningGroup = plus;
leftMetricsKey = hyphen;
rightKerningGroup = plus;
rightMetricsKey = hyphen;
unicode = 2260;
},
{
color = 5;
glyphname = less;
lastChange = "2016-07-31 01:33:48 +0000";
layers = (
{
layerId = "9D2B49D7-8C02-48EB-8D57-D561CCF616AE";
paths = (
{
closed = 1;
nodes = (
"481 143 CURVE SMOOTH",
"492 163 OFFCURVE",
"487 180 OFFCURVE",
"467 192 CURVE SMOOTH",
"200 342 LINE",
"200 314 LINE",
"466 461 LINE SMOOTH",
"487 473 OFFCURVE",
"492 490 OFFCURVE",
"481 511 CURVE SMOOTH",
"469 531 OFFCURVE",
"452 536 OFFCURVE",
"431 525 CURVE SMOOTH",
"149 368 LINE SMOOTH",
"132 358 OFFCURVE",
"124 347 OFFCURVE",
"124 330 CURVE SMOOTH",
"124 310 OFFCURVE",
"132 297 OFFCURVE",
"149 287 CURVE SMOOTH",
"431 129 LINE SMOOTH",
"452 118 OFFCURVE",
"469 122 OFFCURVE"
);
}
);
width = 609;
}
);
leftKerningGroup = plus;
rightKerningGroup = plus;
unicode = 003C;
},
{
color = 5;
glyphname = lessequal;
lastChange = "2016-07-31 01:33:48 +0000";
layers = (
{
layerId = "9D2B49D7-8C02-48EB-8D57-D561CCF616AE";
paths = (
{
closed = 1;
nodes = (
"489 283 CURVE SMOOTH",
"497 306 OFFCURVE",
"490 322 OFFCURVE",
"467 329 CURVE SMOOTH",
"236 409 LINE",
"236 398 LINE",
"467 483 LINE SMOOTH",
"489 491 OFFCURVE",
"497 507 OFFCURVE",
"489 530 CURVE SMOOTH",
"481 553 OFFCURVE",
"464 559 OFFCURVE",
"442 551 CURVE SMOOTH",
"149 444 LINE SMOOTH",
"128 436 OFFCURVE",
"119 424 OFFCURVE",
"119 403 CURVE SMOOTH",
"119 381 OFFCURVE",
"130 368 OFFCURVE",
"149 362 CURVE SMOOTH",
"442 261 LINE SMOOTH",
"464 253 OFFCURVE",
"481 260 OFFCURVE"
);
},
{
closed = 1;
nodes = (
"456 149 LINE SMOOTH",
"480 149 OFFCURVE",
"492 161 OFFCURVE",
"492 185 CURVE SMOOTH",
"492 209 OFFCURVE",
"480 221 OFFCURVE",
"456 221 CURVE SMOOTH",
"156 221 LINE SMOOTH",
"132 221 OFFCURVE",
"119 209 OFFCURVE",
"119 185 CURVE SMOOTH",
"119 161 OFFCURVE",
"132 149 OFFCURVE",
"156 149 CURVE SMOOTH"
);
}
);
width = 609;
}
);
leftKerningGroup = plus;
rightKerningGroup = plus;
unicode = 2264;
},
{
color = 5;
glyphname = plusminus;
lastChange = "2016-07-31 01:33:48 +0000";
layers = (
{
components = (
{
name = endash;
transform = "{1, 0, 0, 1, 0, 82}";
},
{
name = endash;
transform = "{1, 0, 0, 1, 0, -153}";
}
);
layerId = "9D2B49D7-8C02-48EB-8D57-D561CCF616AE";
paths = (
{
closed = 1;
nodes = (
"279 213 LINE SMOOTH",
"279 190 OFFCURVE",
"291 178 OFFCURVE",
"314 178 CURVE SMOOTH",
"337 178 OFFCURVE",
"349 190 OFFCURVE",
"349 213 CURVE SMOOTH",
"349 485 LINE SMOOTH",
"349 508 OFFCURVE",
"337 520 OFFCURVE",
"314 520 CURVE SMOOTH",
"291 520 OFFCURVE",
"279 508 OFFCURVE",
"279 485 CURVE SMOOTH"
);
}
);
width = 609;
}
);
leftKerningGroup = plus;
leftMetricsKey = hyphen;
rightKerningGroup = plus;
rightMetricsKey = hyphen;
unicode = 00B1;
},
{
color = 5;
glyphname = approxequal;
lastChange = "2016-07-31 01:33:48 +0000";
layers = (
{
layerId = "9D2B49D7-8C02-48EB-8D57-D561CCF616AE";
paths = (
{
closed = 1;
nodes = (
"145 323 CURVE SMOOTH",
"189 370 OFFCURVE",
"194 372 OFFCURVE",
"217 372 CURVE SMOOTH",
"283 372 OFFCURVE",
"308 313 OFFCURVE",
"389 313 CURVE SMOOTH",
"432 313 OFFCURVE",
"467 334 OFFCURVE",
"513 384 CURVE SMOOTH",
"531 405 OFFCURVE",
"514 438 OFFCURVE",
"488 438 CURVE SMOOTH",
"479 438 OFFCURVE",
"470 434 OFFCURVE",
"464 428 CURVE SMOOTH",
"426 389 OFFCURVE",
"413 379 OFFCURVE",
"389 379 CURVE SMOOTH",
"337 379 OFFCURVE",
"300 438 OFFCURVE",
"217 438 CURVE SMOOTH",
"173 438 OFFCURVE",
"154 426 OFFCURVE",
"98 369 CURVE SMOOTH",
"78 349 OFFCURVE",
"93 313 OFFCURVE",
"121 313 CURVE SMOOTH",
"130 313 OFFCURVE",
"139 318 OFFCURVE"
);
},
{
closed = 1;
nodes = (
"145 161 CURVE SMOOTH",
"189 208 OFFCURVE",
"194 210 OFFCURVE",
"217 210 CURVE SMOOTH",
"283 210 OFFCURVE",
"308 151 OFFCURVE",
"389 151 CURVE SMOOTH",
"432 151 OFFCURVE",
"471 169 OFFCURVE",
"513 222 CURVE SMOOTH",
"532 249 OFFCURVE",
"514 276 OFFCURVE",
"488 276 CURVE SMOOTH",
"479 276 OFFCURVE",
"470 272 OFFCURVE",
"464 266 CURVE SMOOTH",
"426 227 OFFCURVE",
"413 217 OFFCURVE",
"389 217 CURVE SMOOTH",
"337 217 OFFCURVE",
"300 276 OFFCURVE",
"217 276 CURVE SMOOTH",
"173 276 OFFCURVE",
"151 265 OFFCURVE",
"98 207 CURVE SMOOTH",
"78 186 OFFCURVE",
"93 151 OFFCURVE",
"121 151 CURVE SMOOTH",
"130 151 OFFCURVE",
"139 156 OFFCURVE"
);
}
);
width = 609;
}
);
leftKerningGroup = plus;
rightKerningGroup = plus;
unicode = 2248;
},
{
color = 4;
glyphname = asciitilde;
lastChange = "2016-07-31 01:33:48 +0000";
layers = (
{
layerId = "9D2B49D7-8C02-48EB-8D57-D561CCF616AE";
paths = (
{
closed = 1;
nodes = (
"144 273 CURVE SMOOTH",
"189 320 OFFCURVE",
"194 322 OFFCURVE",
"216 322 CURVE SMOOTH",
"282 322 OFFCURVE",
"307 263 OFFCURVE",
"388 263 CURVE SMOOTH",
"432 263 OFFCURVE",
"466 284 OFFCURVE",
"512 334 CURVE SMOOTH",
"530 355 OFFCURVE",
"514 388 OFFCURVE",
"488 388 CURVE SMOOTH",
"479 388 OFFCURVE",
"470 384 OFFCURVE",
"463 378 CURVE SMOOTH",
"426 339 OFFCURVE",
"412 329 OFFCURVE",
"388 329 CURVE SMOOTH",
"336 329 OFFCURVE",
"300 388 OFFCURVE",
"216 388 CURVE SMOOTH",
"173 388 OFFCURVE",
"154 376 OFFCURVE",
"97 319 CURVE SMOOTH",
"78 299 OFFCURVE",
"93 263 OFFCURVE",
"121 263 CURVE SMOOTH",
"129 263 OFFCURVE",
"139 268 OFFCURVE"
);
}
);
width = 609;
}
);
leftKerningGroup = plus;
rightKerningGroup = plus;
unicode = 007E;
},
{
color = 5;
glyphname = logicalnot;
lastChange = "2016-07-31 01:33:48 +0000";
layers = (
{
layerId = "9D2B49D7-8C02-48EB-8D57-D561CCF616AE";
paths = (
{
closed = 1;
nodes = (
"521 236 CURVE SMOOTH",
"521 351 LINE SMOOTH",
"521 372 OFFCURVE",
"510 383 OFFCURVE",
"488 383 CURVE SMOOTH",
"120 383 LINE SMOOTH",
"103 383 OFFCURVE",
"88 368 OFFCURVE",
"88 351 CURVE SMOOTH",
"88 334 OFFCURVE",
"103 319 OFFCURVE",
"120 319 CURVE SMOOTH",
"456 319 LINE",
"456 236 LINE SMOOTH",
"456 219 OFFCURVE",
"471 204 OFFCURVE",
"488 204 CURVE SMOOTH",
"505 204 OFFCURVE",
"521 219 OFFCURVE"
);
}
);
width = 609;
}
);
leftKerningGroup = plus;
rightKerningGroup = plus;
unicode = 00AC;
},
{
color = 5;
glyphname = micro;
lastChange = "2016-07-31 01:34:07 +0000";
layers = (
{
layerId = "9D2B49D7-8C02-48EB-8D57-D561CCF616AE";
paths = (
{
closed = 1;
nodes = (
"558 133 CURVE SMOOTH",
"558 465 LINE SMOOTH",
"558 492 OFFCURVE",
"542 507 OFFCURVE",
"516 507 CURVE SMOOTH",
"489 507 OFFCURVE",
"474 492 OFFCURVE",
"474 465 CURVE SMOOTH",
"474 152 LINE SMOOTH",
"474 101 OFFCURVE",
"406 82 OFFCURVE",
"318 82 CURVE SMOOTH",
"290 82 LINE SMOOTH",
"203 82 OFFCURVE",
"178 107 OFFCURVE",
"178 194 CURVE SMOOTH",
"178 465 LINE SMOOTH",
"178 492 OFFCURVE",
"162 507 OFFCURVE",
"136 507 CURVE SMOOTH",
"109 507 OFFCURVE",
"94 492 OFFCURVE",
"94 465 CURVE SMOOTH",
"94 -50 LINE SMOOTH",
"94 -77 OFFCURVE",
"109 -92 OFFCURVE",
"136 -92 CURVE SMOOTH",
"162 -92 OFFCURVE",
"178 -71 OFFCURVE",
"178 -36 CURVE SMOOTH",
"178 53 LINE",
"206 15 OFFCURVE",
"244 -2 OFFCURVE",
"290 -2 CURVE SMOOTH",
"318 -2 LINE SMOOTH",
"398 -2 OFFCURVE",
"457 22 OFFCURVE",
"493 60 CURVE",
"521 24 OFFCURVE",
"558 -1 OFFCURVE",
"615 0 CURVE SMOOTH",
"643 0 OFFCURVE",
"658 15 OFFCURVE",
"658 42 CURVE SMOOTH",
"658 73 OFFCURVE",
"646 85 OFFCURVE",
"615 84 CURVE SMOOTH",
"567 82 OFFCURVE",
"558 88 OFFCURVE"
);
}
);
width = 703;
}
);
leftKerningGroup = u;
leftMetricsKey = u;
rightKerningGroup = mcro;
rightMetricsKey = l;
unicode = 00B5;
},
{
color = 5;
glyphname = percent;
lastChange = "2016-07-31 01:33:48 +0000";
layers = (
{
components = (
{
name = fraction;
transform = "{1, 0, 0, 1, 339, 0}";
}
);
layerId = "9D2B49D7-8C02-48EB-8D57-D561CCF616AE";
paths = (
{
closed = 1;
nodes = (
"223 316 LINE SMOOTH",
"319 316 OFFCURVE",
"366 364 OFFCURVE",
"366 461 CURVE SMOOTH",
"366 535 LINE SMOOTH",
"366 630 OFFCURVE",
"319 678 OFFCURVE",
"223 678 CURVE SMOOTH",
"207 678 LINE SMOOTH",
"111 678 OFFCURVE",
"64 631 OFFCURVE",
"64 535 CURVE SMOOTH",
"64 460 LINE SMOOTH",
"64 364 OFFCURVE",
"111 316 OFFCURVE",
"207 316 CURVE SMOOTH"
);
},
{
closed = 1;
nodes = (
"142 460 CURVE SMOOTH",
"142 535 LINE SMOOTH",
"142 587 OFFCURVE",
"155 599 OFFCURVE",
"207 599 CURVE SMOOTH",
"223 599 LINE SMOOTH",
"275 599 OFFCURVE",
"288 587 OFFCURVE",
"288 535 CURVE SMOOTH",
"288 461 LINE SMOOTH",
"288 407 OFFCURVE",
"275 395 OFFCURVE",
"223 395 CURVE SMOOTH",
"207 395 LINE SMOOTH",
"155 395 OFFCURVE",
"142 407 OFFCURVE"
);
},
{
closed = 1;
nodes = (
"671 0 LINE SMOOTH",
"767 0 OFFCURVE",
"814 47 OFFCURVE",
"814 144 CURVE SMOOTH",
"814 218 LINE SMOOTH",
"814 314 OFFCURVE",
"767 361 OFFCURVE",
"671 361 CURVE SMOOTH",
"655 361 LINE SMOOTH",
"559 361 OFFCURVE",
"512 315 OFFCURVE",
"512 218 CURVE SMOOTH",
"512 143 LINE SMOOTH",
"512 47 OFFCURVE",
"559 0 OFFCURVE",
"655 0 CURVE SMOOTH"
);
},
{
closed = 1;
nodes = (
"590 143 CURVE SMOOTH",
"590 218 LINE SMOOTH",
"590 271 OFFCURVE",
"603 283 OFFCURVE",
"655 283 CURVE SMOOTH",
"671 283 LINE SMOOTH",
"723 283 OFFCURVE",
"736 270 OFFCURVE",
"736 218 CURVE SMOOTH",
"736 144 LINE SMOOTH",
"736 91 OFFCURVE",
"723 78 OFFCURVE",
"671 78 CURVE SMOOTH",
"655 78 LINE SMOOTH",
"603 78 OFFCURVE",
"590 91 OFFCURVE"
);
}
);
width = 878;
}
);
leftKerningGroup = percent;
rightKerningGroup = percent;
unicode = 0025;
},
{
color = 5;
glyphname = perthousand;
lastChange = "2016-07-31 01:33:48 +0000";
layers = (
{
components = (
{
name = fraction;
transform = "{1, 0, 0, 1, 339, 0}";
}
);
layerId = "9D2B49D7-8C02-48EB-8D57-D561CCF616AE";
paths = (
{
closed = 1;
nodes = (
"223 316 LINE SMOOTH",
"319 316 OFFCURVE",
"366 364 OFFCURVE",
"366 461 CURVE SMOOTH",
"366 535 LINE SMOOTH",
"366 630 OFFCURVE",
"319 678 OFFCURVE",
"223 678 CURVE SMOOTH",
"207 678 LINE SMOOTH",
"111 678 OFFCURVE",
"64 631 OFFCURVE",
"64 535 CURVE SMOOTH",
"64 460 LINE SMOOTH",
"64 364 OFFCURVE",
"111 316 OFFCURVE",
"207 316 CURVE SMOOTH"
);
},
{
closed = 1;
nodes = (
"142 460 CURVE SMOOTH",
"142 535 LINE SMOOTH",
"142 587 OFFCURVE",
"155 599 OFFCURVE",
"207 599 CURVE SMOOTH",
"223 599 LINE SMOOTH",
"275 599 OFFCURVE",
"288 587 OFFCURVE",
"288 535 CURVE SMOOTH",
"288 461 LINE SMOOTH",
"288 407 OFFCURVE",
"275 395 OFFCURVE",
"223 395 CURVE SMOOTH",
"207 395 LINE SMOOTH",
"155 395 OFFCURVE",
"142 407 OFFCURVE"
);
},
{
closed = 1;
nodes = (
"671 0 LINE SMOOTH",
"767 0 OFFCURVE",
"814 47 OFFCURVE",
"814 144 CURVE SMOOTH",
"814 218 LINE SMOOTH",
"814 314 OFFCURVE",
"767 361 OFFCURVE",
"671 361 CURVE SMOOTH",
"655 361 LINE SMOOTH",
"559 361 OFFCURVE",
"512 315 OFFCURVE",
"512 218 CURVE SMOOTH",
"512 143 LINE SMOOTH",
"512 47 OFFCURVE",
"559 0 OFFCURVE",
"655 0 CURVE SMOOTH"
);
},
{
closed = 1;
nodes = (
"590 143 CURVE SMOOTH",
"590 218 LINE SMOOTH",
"590 271 OFFCURVE",
"603 283 OFFCURVE",
"655 283 CURVE SMOOTH",
"671 283 LINE SMOOTH",
"723 283 OFFCURVE",
"736 270 OFFCURVE",
"736 218 CURVE SMOOTH",
"736 144 LINE SMOOTH",
"736 91 OFFCURVE",
"723 78 OFFCURVE",
"671 78 CURVE SMOOTH",
"655 78 LINE SMOOTH",
"603 78 OFFCURVE",
"590 91 OFFCURVE"
);
},
{
closed = 1;
nodes = (
"1019 0 LINE SMOOTH",
"1115 0 OFFCURVE",
"1162 47 OFFCURVE",
"1162 144 CURVE SMOOTH",
"1162 218 LINE SMOOTH",
"1162 314 OFFCURVE",
"1115 361 OFFCURVE",
"1019 361 CURVE SMOOTH",
"1003 361 LINE SMOOTH",
"907 361 OFFCURVE",
"860 315 OFFCURVE",
"860 218 CURVE SMOOTH",
"860 143 LINE SMOOTH",
"860 47 OFFCURVE",
"907 0 OFFCURVE",
"1003 0 CURVE SMOOTH"
);
},
{
closed = 1;
nodes = (
"938 143 CURVE SMOOTH",
"938 218 LINE SMOOTH",
"938 271 OFFCURVE",
"951 283 OFFCURVE",
"1003 283 CURVE SMOOTH",
"1019 283 LINE SMOOTH",
"1071 283 OFFCURVE",
"1084 270 OFFCURVE",
"1084 218 CURVE SMOOTH",
"1084 144 LINE SMOOTH",
"1084 91 OFFCURVE",
"1071 78 OFFCURVE",
"1019 78 CURVE SMOOTH",
"1003 78 LINE SMOOTH",
"951 78 OFFCURVE",
"938 91 OFFCURVE"
);
}
);
width = 1226;
}
);
leftKerningGroup = percent;
leftMetricsKey = percent;
rightKerningGroup = percent;
rightMetricsKey = percent;
unicode = 2030;
},
{
color = 4;
glyphname = at;
lastChange = "2016-07-31 01:33:48 +0000";
layers = (
{
layerId = "9D2B49D7-8C02-48EB-8D57-D561CCF616AE";
paths = (
{
closed = 1;
nodes = (
"641 29 CURVE SMOOTH",
"649 36 OFFCURVE",
"653 45 OFFCURVE",
"653 56 CURVE SMOOTH",
"653 75 OFFCURVE",
"637 91 OFFCURVE",
"618 91 CURVE SMOOTH",
"609 91 OFFCURVE",
"601 88 OFFCURVE",
"596 83 CURVE SMOOTH",
"571 63 OFFCURVE",
"552 56 OFFCURVE",
"515 56 CURVE SMOOTH",
"240 56 LINE SMOOTH",
"168 55 OFFCURVE",
"150 73 OFFCURVE",
"150 150 CURVE SMOOTH",
"150 403 LINE SMOOTH",
"150 480 OFFCURVE",
"168 498 OFFCURVE",
"240 497 CURVE SMOOTH",
"500 497 LINE SMOOTH",
"573 497 OFFCURVE",
"591 479 OFFCURVE",
"591 402 CURVE SMOOTH",
"591 217 LINE SMOOTH",
"591 193 OFFCURVE",
"590 190 OFFCURVE",
"555 190 CURVE SMOOTH",
"521 190 OFFCURVE",
"520 191 OFFCURVE",
"520 217 CURVE SMOOTH",
"520 381 LINE SMOOTH",
"520 399 OFFCURVE",
"503 416 OFFCURVE",
"485 416 CURVE SMOOTH",
"474 416 OFFCURVE",
"464 411 OFFCURVE",
"457 384 CURVE",
"437 411 OFFCURVE",
"414 416 OFFCURVE",
"384 416 CURVE SMOOTH",
"343 416 LINE SMOOTH",
"251 416 OFFCURVE",
"207 373 OFFCURVE",
"207 277 CURVE SMOOTH",
"207 254 LINE SMOOTH",
"207 162 OFFCURVE",
"251 118 OFFCURVE",
"344 118 CURVE SMOOTH",
"351 118 LINE SMOOTH",
"400 118 OFFCURVE",
"441 128 OFFCURVE",
"470 169 CURVE",
"487 130 OFFCURVE",
"515 120 OFFCURVE",
"555 120 CURVE SMOOTH",
"627 120 OFFCURVE",
"661 150 OFFCURVE",
"661 217 CURVE SMOOTH",
"661 402 LINE SMOOTH",
"661 517 OFFCURVE",
"613 567 OFFCURVE",
"500 567 CURVE SMOOTH",
"240 567 LINE SMOOTH",
"129 568 OFFCURVE",
"80 517 OFFCURVE",
"80 403 CURVE SMOOTH",
"80 150 LINE SMOOTH",
"80 36 OFFCURVE",
"129 -15 OFFCURVE",
"240 -14 CURVE SMOOTH",
"515 -14 LINE SMOOTH",
"566 -14 OFFCURVE",
"605 -1 OFFCURVE"
);
},
{
closed = 1;
nodes = (
"277 254 CURVE SMOOTH",
"277 277 LINE SMOOTH",
"277 335 OFFCURVE",
"289 346 OFFCURVE",
"343 346 CURVE SMOOTH",
"384 346 LINE SMOOTH",
"439 346 OFFCURVE",
"450 335 OFFCURVE",
"450 276 CURVE SMOOTH",
"450 254 LINE SMOOTH",
"450 210 OFFCURVE",
"421 188 OFFCURVE",
"351 188 CURVE SMOOTH",
"344 188 LINE SMOOTH",
"290 188 OFFCURVE",
"277 200 OFFCURVE"
);
}
);
width = 741;
}
);
leftKerningGroup = at;
leftMetricsKey = o;
rightKerningGroup = at;
rightMetricsKey = o;
unicode = 0040;
},
{
color = 4;
glyphname = ampersand;
lastChange = "2016-07-31 01:33:48 +0000";
layers = (
{
layerId = "9D2B49D7-8C02-48EB-8D57-D561CCF616AE";
paths = (
{
closed = 1;
nodes = (
"617 23 CURVE SMOOTH",
"636 44 OFFCURVE",
"635 64 OFFCURVE",
"614 83 CURVE SMOOTH",
"277 382 LINE SMOOTH",
"224 430 OFFCURVE",
"214 447 OFFCURVE",
"214 488 CURVE SMOOTH",
"214 554 OFFCURVE",
"232 570 OFFCURVE",
"295 570 CURVE SMOOTH",
"320 570 LINE SMOOTH",
"368 570 OFFCURVE",
"389 562 OFFCURVE",
"397 530 CURVE SMOOTH",
"404 503 OFFCURVE",
"415 489 OFFCURVE",
"442 489 CURVE SMOOTH",
"470 489 OFFCURVE",
"486 504 OFFCURVE",
"483 533 CURVE SMOOTH",
"468 615 OFFCURVE",
"416 654 OFFCURVE",
"320 654 CURVE SMOOTH",
"295 654 LINE SMOOTH",
"183 654 OFFCURVE",
"130 599 OFFCURVE",
"130 488 CURVE SMOOTH",
"130 421 OFFCURVE",
"150 382 OFFCURVE",
"221 320 CURVE SMOOTH",
"558 20 LINE SMOOTH",
"579 1 OFFCURVE",
"600 3 OFFCURVE"
);
},
{
closed = 1;
nodes = (
"315 -21 LINE SMOOTH",
"467 -21 OFFCURVE",
"538 50 OFFCURVE",
"538 202 CURVE SMOOTH",
"538 237 LINE SMOOTH",
"538 264 OFFCURVE",
"523 279 OFFCURVE",
"496 279 CURVE SMOOTH",
"469 279 OFFCURVE",
"454 264 OFFCURVE",
"454 237 CURVE SMOOTH",
"454 202 LINE SMOOTH",
"454 96 OFFCURVE",
"421 63 OFFCURVE",
"315 63 CURVE SMOOTH",
"283 63 LINE SMOOTH",
"176 63 OFFCURVE",
"144 95 OFFCURVE",
"144 202 CURVE SMOOTH",
"144 270 OFFCURVE",
"156 305 OFFCURVE",
"189 324 CURVE SMOOTH",
"212 335 OFFCURVE",
"227 350 OFFCURVE",
"222 376 CURVE SMOOTH",
"217 402 OFFCURVE",
"193 417 OFFCURVE",
"167 406 CURVE SMOOTH",
"94 376 OFFCURVE",
"60 309 OFFCURVE",
"60 202 CURVE SMOOTH",
"60 49 OFFCURVE",
"130 -21 OFFCURVE",
"283 -21 CURVE SMOOTH"
);
}
);
width = 650;
}
);
leftKerningGroup = ampersand;
rightKerningGroup = ampersand;
unicode = 0026;
},
{
color = 5;
glyphname = paragraph;
lastChange = "2016-07-31 01:33:48 +0000";
layers = (
{
layerId = "9D2B49D7-8C02-48EB-8D57-D561CCF616AE";
paths = (
{
closed = 1;
nodes = (
"342 -163 CURVE SMOOTH",
"342 588 LINE",
"402 588 LINE",
"402 -163 LINE SMOOTH",
"402 -182 OFFCURVE",
"418 -198 OFFCURVE",
"437 -198 CURVE SMOOTH",
"456 -198 OFFCURVE",
"472 -182 OFFCURVE",
"472 -163 CURVE SMOOTH",
"472 623 LINE SMOOTH",
"472 645 OFFCURVE",
"459 658 OFFCURVE",
"437 658 CURVE SMOOTH",
"221 658 LINE SMOOTH",
"106 658 OFFCURVE",
"44 596 OFFCURVE",
"44 481 CURVE SMOOTH",
"44 452 LINE SMOOTH",
"44 338 OFFCURVE",
"106 276 OFFCURVE",
"221 276 CURVE SMOOTH",
"272 276 LINE",
"272 -163 LINE SMOOTH",
"272 -182 OFFCURVE",
"288 -198 OFFCURVE",
"307 -198 CURVE SMOOTH",
"326 -198 OFFCURVE",
"342 -182 OFFCURVE"
);
}
);
width = 576;
}
);
leftKerningGroup = paragraph;
leftMetricsKey = "=|P";
rightKerningGroup = H;
rightMetricsKey = H;
unicode = 00B6;
},
{
color = 5;
glyphname = section;
lastChange = "2016-07-31 01:33:48 +0000";
layers = (
{
layerId = "9D2B49D7-8C02-48EB-8D57-D561CCF616AE";
paths = (
{
closed = 1;
nodes = (
"482 282 CURVE SMOOTH",
"482 362 OFFCURVE",
"446 408 OFFCURVE",
"358 439 CURVE SMOOTH",
"259 474 LINE SMOOTH",
"208 492 OFFCURVE",
"192 509 OFFCURVE",
"192 546 CURVE SMOOTH",
"192 574 OFFCURVE",
"203 583 OFFCURVE",
"246 583 CURVE SMOOTH",
"344 583 LINE SMOOTH",
"386 583 OFFCURVE",
"396 573 OFFCURVE",
"396 530 CURVE SMOOTH",
"396 509 OFFCURVE",
"414 491 OFFCURVE",
"435 491 CURVE SMOOTH",
"456 491 OFFCURVE",
"474 509 OFFCURVE",
"474 530 CURVE SMOOTH",
"474 617 OFFCURVE",
"431 661 OFFCURVE",
"344 661 CURVE SMOOTH",
"246 661 LINE SMOOTH",
"161 661 OFFCURVE",
"114 621 OFFCURVE",
"114 546 CURVE SMOOTH",
"114 474 OFFCURVE",
"153 428 OFFCURVE",
"234 400 CURVE SMOOTH",
"333 365 LINE SMOOTH",
"390 345 OFFCURVE",
"404 327 OFFCURVE",
"404 282 CURVE SMOOTH",
"404 224 OFFCURVE",
"387 206 OFFCURVE",
"340 206 CURVE SMOOTH",
"318 206 OFFCURVE",
"301 189 OFFCURVE",
"301 167 CURVE SMOOTH",
"301 157 OFFCURVE",
"318 149 OFFCURVE",
"340 150 CURVE SMOOTH",
"432 150 OFFCURVE",
"482 196 OFFCURVE"
);
},
{
closed = 1;
nodes = (
"345 -90 LINE SMOOTH",
"444 -90 OFFCURVE",
"492 -42 OFFCURVE",
"492 57 CURVE SMOOTH",
"492 136 OFFCURVE",
"460 169 OFFCURVE",
"357 202 CURVE SMOOTH",
"233 242 LINE SMOOTH",
"171 262 OFFCURVE",
"158 277 OFFCURVE",
"158 328 CURVE SMOOTH",
"158 386 OFFCURVE",
"174 402 OFFCURVE",
"231 402 CURVE SMOOTH",
"253 402 OFFCURVE",
"270 419 OFFCURVE",
"270 441 CURVE SMOOTH",
"270 452 OFFCURVE",
"253 461 OFFCURVE",
"231 458 CURVE SMOOTH",
"129 458 OFFCURVE",
"80 416 OFFCURVE",
"80 328 CURVE SMOOTH",
"80 242 OFFCURVE",
"116 198 OFFCURVE",
"210 168 CURVE SMOOTH",
"334 128 LINE SMOOTH",
"407 104 OFFCURVE",
"414 94 OFFCURVE",
"414 57 CURVE SMOOTH",
"414 2 OFFCURVE",
"400 -12 OFFCURVE",
"345 -12 CURVE SMOOTH",
"231 -12 LINE SMOOTH",
"176 -12 OFFCURVE",
"162 2 OFFCURVE",
"162 57 CURVE SMOOTH",
"162 78 OFFCURVE",
"144 96 OFFCURVE",
"123 96 CURVE SMOOTH",
"102 96 OFFCURVE",
"84 78 OFFCURVE",
"84 57 CURVE SMOOTH",
"84 -42 OFFCURVE",
"132 -90 OFFCURVE",
"231 -90 CURVE SMOOTH"
);
}
);
width = 572;
}
);
leftKerningGroup = section;
leftMetricsKey = S;
rightKerningGroup = secton;
rightMetricsKey = S;
unicode = 00A7;
},
{
color = 4;
glyphname = copyright;
lastChange = "2016-07-31 01:33:48 +0000";
layers = (
{
layerId = "9D2B49D7-8C02-48EB-8D57-D561CCF616AE";
paths = (
{
closed = 1;
nodes = (
"738 335 CURVE SMOOTH",
"738 526 OFFCURVE",
"600 664 OFFCURVE",
"409 664 CURVE SMOOTH",
"218 664 OFFCURVE",
"80 526 OFFCURVE",
"80 335 CURVE SMOOTH",
"80 144 OFFCURVE",
"218 7 OFFCURVE",
"409 7 CURVE SMOOTH",
"600 7 OFFCURVE",
"738 144 OFFCURVE"
);
},
{
closed = 1;
nodes = (
"150 335 CURVE SMOOTH",
"150 488 OFFCURVE",
"256 594 OFFCURVE",
"409 594 CURVE SMOOTH",
"562 594 OFFCURVE",
"668 488 OFFCURVE",
"668 335 CURVE SMOOTH",
"668 182 OFFCURVE",
"562 77 OFFCURVE",
"409 77 CURVE SMOOTH",
"256 77 OFFCURVE",
"150 182 OFFCURVE"
);
},
{
closed = 1;
nodes = (
"434 146 LINE SMOOTH",
"503 146 OFFCURVE",
"546 168 OFFCURVE",
"563 211 CURVE SMOOTH",
"570 234 OFFCURVE",
"555 249 OFFCURVE",
"528 249 CURVE SMOOTH",
"506 249 OFFCURVE",
"503 238 OFFCURVE",
"490 219 CURVE SMOOTH",
"480 218 OFFCURVE",
"462 216 OFFCURVE",
"434 216 CURVE SMOOTH",
"385 216 LINE SMOOTH",
"324 216 OFFCURVE",
"308 232 OFFCURVE",
"308 292 CURVE SMOOTH",
"308 375 LINE SMOOTH",
"308 437 OFFCURVE",
"325 452 OFFCURVE",
"385 452 CURVE SMOOTH",
"434 452 LINE SMOOTH",
"462 452 OFFCURVE",
"479 451 OFFCURVE",
"490 449 CURVE SMOOTH",
"504 431 OFFCURVE",
"506 420 OFFCURVE",
"528 420 CURVE SMOOTH",
"557 420 OFFCURVE",
"569 434 OFFCURVE",
"563 457 CURVE SMOOTH",
"549 501 OFFCURVE",
"503 522 OFFCURVE",
"434 522 CURVE SMOOTH",
"385 522 LINE SMOOTH",
"286 522 OFFCURVE",
"238 475 OFFCURVE",
"238 375 CURVE SMOOTH",
"238 292 LINE SMOOTH",
"238 194 OFFCURVE",
"286 146 OFFCURVE",
"385 146 CURVE SMOOTH"
);
}
);
width = 818;
}
);
leftKerningGroup = O;
leftMetricsKey = O;
rightKerningGroup = O;
rightMetricsKey = O;
unicode = 00A9;
},
{
color = 4;
glyphname = registered;
lastChange = "2016-07-31 01:33:48 +0000";
layers = (
{
layerId = "9D2B49D7-8C02-48EB-8D57-D561CCF616AE";
paths = (
{
closed = 1;
nodes = (
"738 336 CURVE SMOOTH",
"738 527 OFFCURVE",
"600 665 OFFCURVE",
"409 665 CURVE SMOOTH",
"218 665 OFFCURVE",
"80 527 OFFCURVE",
"80 336 CURVE SMOOTH",
"80 145 OFFCURVE",
"218 7 OFFCURVE",
"409 7 CURVE SMOOTH",
"600 7 OFFCURVE",
"738 145 OFFCURVE"
);
},
{
closed = 1;
nodes = (
"150 336 CURVE SMOOTH",
"150 489 OFFCURVE",
"256 595 OFFCURVE",
"409 595 CURVE SMOOTH",
"562 595 OFFCURVE",
"668 489 OFFCURVE",
"668 336 CURVE SMOOTH",
"668 183 OFFCURVE",
"562 77 OFFCURVE",
"409 77 CURVE SMOOTH",
"256 77 OFFCURVE",
"150 183 OFFCURVE"
);
},
{
closed = 1;
nodes = (
"357 195 CURVE SMOOTH",
"357 289 LINE",
"396 289 LINE",
"457 180 LINE SMOOTH",
"469 161 OFFCURVE",
"485 155 OFFCURVE",
"505 165 CURVE SMOOTH",
"525 175 OFFCURVE",
"531 192 OFFCURVE",
"520 213 CURVE SMOOTH",
"469 301 LINE",
"502 318 OFFCURVE",
"520 351 OFFCURVE",
"520 399 CURVE SMOOTH",
"520 414 LINE SMOOTH",
"520 483 OFFCURVE",
"480 523 OFFCURVE",
"411 523 CURVE SMOOTH",
"322 523 LINE SMOOTH",
"299 523 OFFCURVE",
"287 510 OFFCURVE",
"287 488 CURVE SMOOTH",
"287 195 LINE SMOOTH",
"287 173 OFFCURVE",
"299 160 OFFCURVE",
"322 160 CURVE SMOOTH",
"344 160 OFFCURVE",
"357 173 OFFCURVE"
);
},
{
closed = 1;
nodes = (
"357 453 LINE",
"411 453 LINE SMOOTH",
"440 453 OFFCURVE",
"450 444 OFFCURVE",
"450 414 CURVE SMOOTH",
"450 399 LINE SMOOTH",
"450 368 OFFCURVE",
"440 359 OFFCURVE",
"411 359 CURVE SMOOTH",
"357 359 LINE"
);
}
);
width = 818;
}
);
leftKerningGroup = O;
leftMetricsKey = O;
rightKerningGroup = O;
rightMetricsKey = O;
unicode = 00AE;
},
{
color = 4;
glyphname = trademark;
lastChange = "2016-07-31 01:33:48 +0000";
layers = (
{
layerId = "9D2B49D7-8C02-48EB-8D57-D561CCF616AE";
paths = (
{
closed = 1;
nodes = (
"460 344 CURVE SMOOTH",
"460 523 LINE",
"532 415 LINE SMOOTH",
"537 406 OFFCURVE",
"546 401 OFFCURVE",
"558 401 CURVE SMOOTH",
"571 401 OFFCURVE",
"582 406 OFFCURVE",
"587 415 CURVE SMOOTH",
"656 521 LINE",
"656 344 LINE SMOOTH",
"656 323 OFFCURVE",
"667 312 OFFCURVE",
"688 312 CURVE SMOOTH",
"709 312 OFFCURVE",
"720 323 OFFCURVE",
"720 344 CURVE SMOOTH",
"720 627 LINE SMOOTH",
"720 648 OFFCURVE",
"709 660 OFFCURVE",
"687 660 CURVE SMOOTH",
"675 660 OFFCURVE",
"666 655 OFFCURVE",
"661 645 CURVE SMOOTH",
"559 490 LINE",
"456 645 LINE SMOOTH",
"450 655 OFFCURVE",
"440 660 OFFCURVE",
"428 660 CURVE SMOOTH",
"407 660 OFFCURVE",
"396 648 OFFCURVE",
"396 627 CURVE SMOOTH",
"396 344 LINE SMOOTH",
"396 323 OFFCURVE",
"407 312 OFFCURVE",
"428 312 CURVE SMOOTH",
"449 312 OFFCURVE",
"460 323 OFFCURVE"
);
},
{
closed = 1;
nodes = (
"224 344 CURVE SMOOTH",
"224 595 LINE",
"302 595 LINE SMOOTH",
"323 595 OFFCURVE",
"334 606 OFFCURVE",
"334 627 CURVE SMOOTH",
"334 648 OFFCURVE",
"323 660 OFFCURVE",
"302 660 CURVE SMOOTH",
"82 660 LINE SMOOTH",
"61 660 OFFCURVE",
"50 648 OFFCURVE",
"50 627 CURVE SMOOTH",
"50 606 OFFCURVE",
"61 595 OFFCURVE",
"82 595 CURVE SMOOTH",
"160 595 LINE",
"160 344 LINE SMOOTH",
"160 323 OFFCURVE",
"171 312 OFFCURVE",
"192 312 CURVE SMOOTH",
"213 312 OFFCURVE",
"224 323 OFFCURVE"
);
}
);
width = 770;
}
);
leftKerningGroup = ordfeminine;
rightKerningGroup = ordfemnne;
unicode = 2122;
},
{
color = 5;
glyphname = degree;
lastChange = "2016-07-31 01:33:48 +0000";
layers = (
{
layerId = "9D2B49D7-8C02-48EB-8D57-D561CCF616AE";
paths = (
{
closed = 1;
nodes = (
"156 439 LINE SMOOTH",
"209 439 OFFCURVE",
"239 469 OFFCURVE",
"239 522 CURVE SMOOTH",
"239 594 LINE SMOOTH",
"239 647 OFFCURVE",
"209 677 OFFCURVE",
"156 677 CURVE SMOOTH",
"133 677 LINE SMOOTH",
"80 677 OFFCURVE",
"50 647 OFFCURVE",
"50 594 CURVE SMOOTH",
"50 522 LINE SMOOTH",
"50 469 OFFCURVE",
"80 439 OFFCURVE",
"133 439 CURVE SMOOTH"
);
},
{
closed = 1;
nodes = (
"106 522 CURVE SMOOTH",
"106 594 LINE SMOOTH",
"106 615 OFFCURVE",
"112 621 OFFCURVE",
"133 621 CURVE SMOOTH",
"156 621 LINE SMOOTH",
"177 621 OFFCURVE",
"183 615 OFFCURVE",
"183 594 CURVE SMOOTH",
"183 522 LINE SMOOTH",
"183 501 OFFCURVE",
"177 495 OFFCURVE",
"156 495 CURVE SMOOTH",
"133 495 LINE SMOOTH",
"112 495 OFFCURVE",
"106 501 OFFCURVE"
);
}
);
width = 289;
}
);
leftKerningGroup = ordfeminine;
rightKerningGroup = ordfemnne;
unicode = 00B0;
},
{
color = 5;
glyphname = bar;
lastChange = "2016-07-31 01:33:48 +0000";
layers = (
{
layerId = "9D2B49D7-8C02-48EB-8D57-D561CCF616AE";
paths = (
{
closed = 1;
nodes = (
"164 -120 CURVE SMOOTH",
"164 674 LINE SMOOTH",
"164 702 OFFCURVE",
"149 716 OFFCURVE",
"122 716 CURVE SMOOTH",
"95 716 OFFCURVE",
"80 702 OFFCURVE",
"80 674 CURVE SMOOTH",
"80 -120 LINE SMOOTH",
"80 -147 OFFCURVE",
"95 -162 OFFCURVE",
"122 -162 CURVE SMOOTH",
"149 -162 OFFCURVE",
"164 -147 OFFCURVE"
);
}
);
width = 244;
}
);
leftKerningGroup = H;
rightKerningGroup = H;
unicode = 007C;
},
{
color = 5;
glyphname = brokenbar;
lastChange = "2016-07-31 01:33:48 +0000";
layers = (
{
layerId = "9D2B49D7-8C02-48EB-8D57-D561CCF616AE";
paths = (
{
closed = 1;
nodes = (
"164 -120 CURVE SMOOTH",
"164 167 LINE SMOOTH",
"164 190 OFFCURVE",
"145 209 OFFCURVE",
"122 209 CURVE SMOOTH",
"99 209 OFFCURVE",
"80 190 OFFCURVE",
"80 167 CURVE SMOOTH",
"80 -120 LINE SMOOTH",
"80 -143 OFFCURVE",
"99 -162 OFFCURVE",
"122 -162 CURVE SMOOTH",
"145 -162 OFFCURVE",
"164 -143 OFFCURVE"
);
},
{
closed = 1;
nodes = (
"164 389 CURVE SMOOTH",
"164 674 LINE SMOOTH",
"164 697 OFFCURVE",
"145 716 OFFCURVE",
"122 716 CURVE SMOOTH",
"99 716 OFFCURVE",
"80 697 OFFCURVE",
"80 674 CURVE SMOOTH",
"80 389 LINE SMOOTH",
"80 366 OFFCURVE",
"99 347 OFFCURVE",
"122 347 CURVE SMOOTH",
"145 347 OFFCURVE",
"164 366 OFFCURVE"
);
}
);
width = 244;
}
);
leftKerningGroup = H;
leftMetricsKey = bar;
rightKerningGroup = H;
rightMetricsKey = bar;
unicode = 00A6;
},
{
color = 5;
glyphname = dagger;
lastChange = "2016-07-31 01:33:48 +0000";
layers = (
{
layerId = "9D2B49D7-8C02-48EB-8D57-D561CCF616AE";
paths = (
{
closed = 1;
nodes = (
"242 -158 CURVE SMOOTH",
"242 423 LINE",
"308 423 LINE SMOOTH",
"336 423 OFFCURVE",
"350 437 OFFCURVE",
"350 465 CURVE SMOOTH",
"350 493 OFFCURVE",
"336 507 OFFCURVE",
"308 507 CURVE SMOOTH",
"242 507 LINE",
"242 662 LINE SMOOTH",
"242 690 OFFCURVE",
"228 704 OFFCURVE",
"200 704 CURVE SMOOTH",
"172 704 OFFCURVE",
"158 690 OFFCURVE",
"158 662 CURVE SMOOTH",
"158 507 LINE",
"92 507 LINE SMOOTH",
"64 507 OFFCURVE",
"50 493 OFFCURVE",
"50 465 CURVE SMOOTH",
"50 437 OFFCURVE",
"64 423 OFFCURVE",
"92 423 CURVE SMOOTH",
"158 423 LINE",
"158 -158 LINE SMOOTH",
"158 -186 OFFCURVE",
"172 -200 OFFCURVE",
"200 -200 CURVE SMOOTH",
"228 -200 OFFCURVE",
"242 -186 OFFCURVE"
);
}
);
width = 400;
}
);
leftKerningGroup = Hbar;
rightKerningGroup = Hbar;
unicode = 2020;
},
{
color = 5;
glyphname = daggerdbl;
lastChange = "2016-07-31 01:33:48 +0000";
layers = (
{
layerId = "9D2B49D7-8C02-48EB-8D57-D561CCF616AE";
paths = (
{
closed = 1;
nodes = (
"242 -158 CURVE SMOOTH",
"242 0 LINE",
"308 0 LINE SMOOTH",
"336 0 OFFCURVE",
"350 14 OFFCURVE",
"350 42 CURVE SMOOTH",
"350 70 OFFCURVE",
"336 84 OFFCURVE",
"308 84 CURVE SMOOTH",
"242 84 LINE",
"242 423 LINE",
"308 423 LINE SMOOTH",
"336 423 OFFCURVE",
"350 437 OFFCURVE",
"350 465 CURVE SMOOTH",
"350 493 OFFCURVE",
"336 507 OFFCURVE",
"308 507 CURVE SMOOTH",
"242 507 LINE",
"242 669 LINE SMOOTH",
"242 697 OFFCURVE",
"228 711 OFFCURVE",
"200 711 CURVE SMOOTH",
"172 711 OFFCURVE",
"158 697 OFFCURVE",
"158 669 CURVE SMOOTH",
"158 507 LINE",
"92 507 LINE SMOOTH",
"64 507 OFFCURVE",
"50 493 OFFCURVE",
"50 465 CURVE SMOOTH",
"50 437 OFFCURVE",
"64 423 OFFCURVE",
"92 423 CURVE SMOOTH",
"158 423 LINE",
"158 84 LINE",
"92 84 LINE SMOOTH",
"64 84 OFFCURVE",
"50 70 OFFCURVE",
"50 42 CURVE SMOOTH",
"50 14 OFFCURVE",
"64 0 OFFCURVE",
"92 0 CURVE SMOOTH",
"158 0 LINE",
"158 -158 LINE SMOOTH",
"158 -186 OFFCURVE",
"172 -200 OFFCURVE",
"200 -200 CURVE SMOOTH",
"228 -200 OFFCURVE",
"242 -186 OFFCURVE"
);
}
);
width = 400;
}
);
leftKerningGroup = Hbar;
rightKerningGroup = Hbar;
unicode = 2021;
},
{
color = 4;
glyphname = asciicircum;
lastChange = "2016-07-31 01:33:48 +0000";
layers = (
{
layerId = "9D2B49D7-8C02-48EB-8D57-D561CCF616AE";
paths = (
{
closed = 1;
nodes = (
"152 426 CURVE SMOOTH",
"214 587 LINE",
"276 426 LINE SMOOTH",
"281 414 OFFCURVE",
"294 404 OFFCURVE",
"309 404 CURVE SMOOTH",
"328 404 OFFCURVE",
"344 420 OFFCURVE",
"344 439 CURVE SMOOTH",
"344 443 OFFCURVE",
"343 448 OFFCURVE",
"342 453 CURVE SMOOTH",
"263 656 LINE SMOOTH",
"255 674 OFFCURVE",
"243 683 OFFCURVE",
"222 683 CURVE SMOOTH",
"206 683 LINE SMOOTH",
"185 683 OFFCURVE",
"173 674 OFFCURVE",
"165 656 CURVE SMOOTH",
"86 453 LINE SMOOTH",
"85 448 OFFCURVE",
"84 443 OFFCURVE",
"84 439 CURVE SMOOTH",
"84 420 OFFCURVE",
"100 404 OFFCURVE",
"119 404 CURVE SMOOTH",
"134 404 OFFCURVE",
"147 414 OFFCURVE"
);
}
);
width = 428;
}
);
leftKerningGroup = asterisk;
leftMetricsKey = period;
rightKerningGroup = astersk;
rightMetricsKey = period;
unicode = 005E;
},
{
color = 5;
glyphname = hookabovecomb;
lastChange = "2016-07-31 01:33:48 +0000";
layers = (
{
anchors = (
{
name = _top;
position = "{135, 507}";
},
{
name = top;
position = "{137, 752}";
}
);
layerId = "9D2B49D7-8C02-48EB-8D57-D561CCF616AE";
paths = (
{
closed = 1;
nodes = (
"156 560 OFFCURVE",
"163 566 OFFCURVE",
"163 587 CURVE SMOOTH",
"163 596 OFFCURVE",
"165 599 OFFCURVE",
"184 610 CURVE SMOOTH",
"201 620 OFFCURVE",
"230 638 OFFCURVE",
"230 679 CURVE SMOOTH",
"230 739 OFFCURVE",
"200 769 OFFCURVE",
"140 769 CURVE SMOOTH",
"80 769 OFFCURVE",
"50 739 OFFCURVE",
"50 679 CURVE SMOOTH",
"50 658 OFFCURVE",
"57 651 OFFCURVE",
"78 651 CURVE SMOOTH",
"99 651 OFFCURVE",
"106 658 OFFCURVE",
"106 679 CURVE SMOOTH",
"106 708 OFFCURVE",
"112 714 OFFCURVE",
"140 714 CURVE SMOOTH",
"168 714 OFFCURVE",
"174 708 OFFCURVE",
"174 679 CURVE SMOOTH",
"174 671 OFFCURVE",
"171 669 OFFCURVE",
"155 659 CURVE SMOOTH",
"137 648 OFFCURVE",
"107 630 OFFCURVE",
"107 587 CURVE SMOOTH",
"107 566 OFFCURVE",
"114 560 OFFCURVE",
"135 560 CURVE SMOOTH"
);
}
);
width = 280;
}
);
leftKerningGroup = hookabovecomb;
rightKerningGroup = hookabovecomb;
unicode = 0309;
},
{
color = 5;
glyphname = horncomb;
lastChange = "2016-07-31 01:33:48 +0000";
layers = (
{
anchors = (
{
name = _topright;
position = "{50, 507}";
},
{
name = topright;
position = "{50, 507}";
}
);
layerId = "9D2B49D7-8C02-48EB-8D57-D561CCF616AE";
paths = (
{
closed = 1;
nodes = (
"108 446 OFFCURVE",
"179 462 OFFCURVE",
"179 539 CURVE SMOOTH",
"179 552 LINE SMOOTH",
"179 577 OFFCURVE",
"165 591 OFFCURVE",
"140 591 CURVE SMOOTH",
"115 591 OFFCURVE",
"101 582 OFFCURVE",
"101 565 CURVE SMOOTH",
"101 539 LINE SMOOTH",
"101 513 OFFCURVE",
"89 507 OFFCURVE",
"50 507 CURVE",
"50 446 LINE"
);
}
);
width = 229;
}
);
leftKerningGroup = horncomb;
rightKerningGroup = horncomb;
unicode = 031B;
},
{
color = 5;
glyphname = ogonekcomb;
lastChange = "2016-07-31 01:33:48 +0000";
layers = (
{
anchors = (
{
name = _ogonek;
position = "{183, 0}";
}
);
layerId = "9D2B49D7-8C02-48EB-8D57-D561CCF616AE";
paths = (
{
closed = 1;
nodes = (
"175 -224 OFFCURVE",
"197 -218 OFFCURVE",
"216 -209 CURVE SMOOTH",
"228 -202 OFFCURVE",
"233 -193 OFFCURVE",
"233 -184 CURVE SMOOTH",
"233 -164 OFFCURVE",
"224 -145 OFFCURVE",
"195 -145 CURVE SMOOTH",
"191 -145 OFFCURVE",
"187 -146 OFFCURVE",
"182 -147 CURVE SMOOTH",
"174 -145 OFFCURVE",
"167 -151 OFFCURVE",
"153 -151 CURVE SMOOTH",
"135 -151 OFFCURVE",
"123 -142 OFFCURVE",
"123 -130 CURVE SMOOTH",
"123 -123 OFFCURVE",
"125 -116 OFFCURVE",
"134 -105 CURVE SMOOTH",
"211 -3 LINE SMOOTH",
"218 5 OFFCURVE",
"221 13 OFFCURVE",
"221 21 CURVE SMOOTH",
"221 41 OFFCURVE",
"195 57 OFFCURVE",
"180 57 CURVE SMOOTH",
"172 57 OFFCURVE",
"163 52 OFFCURVE",
"153 41 CURVE SMOOTH",
"75 -62 LINE SMOOTH",
"59 -83 OFFCURVE",
"50 -108 OFFCURVE",
"50 -130 CURVE SMOOTH",
"50 -183 OFFCURVE",
"95 -224 OFFCURVE",
"153 -224 CURVE SMOOTH"
);
}
);
width = 283;
}
);
leftKerningGroup = ogonekcomb;
rightKerningGroup = ogonekcomb;
unicode = 0328;
},
{
color = 5;
glyphname = strokeshortcomb;
lastChange = "2016-07-31 01:33:48 +0000";
layers = (
{
anchors = (
{
name = _center;
position = "{215, 270}";
}
);
layerId = "9D2B49D7-8C02-48EB-8D57-D561CCF616AE";
paths = (
{
closed = 1;
nodes = (
"347 235 LINE SMOOTH",
"370 235 OFFCURVE",
"382 248 OFFCURVE",
"382 270 CURVE SMOOTH",
"382 292 OFFCURVE",
"370 305 OFFCURVE",
"347 305 CURVE SMOOTH",
"85 305 LINE SMOOTH",
"63 305 OFFCURVE",
"50 292 OFFCURVE",
"50 270 CURVE SMOOTH",
"50 248 OFFCURVE",
"63 235 OFFCURVE",
"85 235 CURVE SMOOTH"
);
}
);
width = 432;
}
);
leftKerningGroup = strokeshortcomb;
rightKerningGroup = strokeshortcomb;
unicode = 0335;
},
{
color = 5;
glyphname = strokelongcomb;
lastChange = "2016-07-31 01:33:48 +0000";
layers = (
{
anchors = (
{
name = _center;
position = "{407, 269}";
}
);
layerId = "9D2B49D7-8C02-48EB-8D57-D561CCF616AE";
paths = (
{
closed = 1;
nodes = (
"729 234 LINE SMOOTH",
"751 234 OFFCURVE",
"763 246 OFFCURVE",
"763 268 CURVE SMOOTH",
"763 289 OFFCURVE",
"751 301 OFFCURVE",
"729 301 CURVE SMOOTH",
"83 301 LINE SMOOTH",
"62 301 OFFCURVE",
"50 289 OFFCURVE",
"50 268 CURVE SMOOTH",
"50 246 OFFCURVE",
"62 234 OFFCURVE",
"83 234 CURVE SMOOTH"
);
}
);
width = 813;
}
);
leftKerningGroup = strokelongcomb;
rightKerningGroup = strokelongcomb;
unicode = 0336;
},
{
color = 5;
glyphname = slashshortcomb;
lastChange = "2016-07-31 01:33:48 +0000";
layers = (
{
anchors = (
{
name = _center;
position = "{196, 323}";
}
);
layerId = "9D2B49D7-8C02-48EB-8D57-D561CCF616AE";
paths = (
{
closed = 1;
nodes = (
"339 385 LINE SMOOTH",
"359 402 OFFCURVE",
"362 420 OFFCURVE",
"346 441 CURVE SMOOTH",
"331 462 OFFCURVE",
"311 464 OFFCURVE",
"292 449 CURVE SMOOTH",
"67 279 LINE SMOOTH",
"47 262 OFFCURVE",
"44 244 OFFCURVE",
"59 223 CURVE SMOOTH",
"75 202 OFFCURVE",
"94 200 OFFCURVE",
"114 215 CURVE SMOOTH"
);
}
);
width = 406;
}
);
leftKerningGroup = slashshortcomb;
rightKerningGroup = slashshortcomb;
unicode = 0337;
},
{
color = 5;
glyphname = slashlongcomb;
lastChange = "2016-07-31 01:33:48 +0000";
layers = (
{
anchors = (
{
name = _center;
position = "{296, 286}";
}
);
layerId = "9D2B49D7-8C02-48EB-8D57-D561CCF616AE";
paths = (
{
closed = 1;
nodes = (
"93 -90 OFFCURVE",
"111 -85 OFFCURVE",
"125 -63 CURVE SMOOTH",
"528 599 LINE SMOOTH",
"542 621 OFFCURVE",
"538 639 OFFCURVE",
"516 653 CURVE SMOOTH",
"494 667 OFFCURVE",
"476 662 OFFCURVE",
"462 640 CURVE SMOOTH",
"57 -22 LINE SMOOTH",
"44 -44 OFFCURVE",
"49 -62 OFFCURVE",
"71 -76 CURVE SMOOTH"
);
}
);
width = 587;
}
);
leftKerningGroup = slashlongcomb;
rightKerningGroup = slashlongcomb;
unicode = 0338;
},
